<?xml version="1.0" encoding="UTF-8"?>
<svg id="Layer_1" xmlns="http://www.w3.org/2000/svg" viewBox="0 0 554.5 312.12">
  <defs>
    <style>
      .cls-1 {
        fill: #56b948;
      }

      .cls-2 {
        fill: #fefffe;
      }
    </style>
  </defs>
  <path class="cls-2" d="M554.25,117.47v194.4H.25v-127.93c1.06.07,1.97-.42,2.85-.85,5.56-2.69,11.43-4.61,17.08-7.07,6.84-2.99,13.93-5.41,20.9-8.1,1.48-.57,3.1-.75,4.54-1.31,5.77-2.28,12.14-1.98,17.89-4.34,1.18-.48,2.25-1.23,3.58-1.44,5.16-.86,9.83-3.45,15.01-4.33,1.88-.32,3.66-.43,5.53-.02-.24,1.1-1.03,1.27-1.6,1.64-4.98,3.26-10.69,5.14-15.64,8.52-3.94,2.68-8,5.19-11.99,7.83-1.05.69-2.12,2.69-3.8.72-.06-.07-.38.06-.56.13-2.21.78-4.48,1.43-6.61,2.38-4.45,2.01-8.8,4.24-12.46,7.54-2.15,1.93-4.47,3.72-6.1,6.17-.35.53-.86.69-1.47.75-2.94.31-5.17,2.42-5.82,5.51,1.11.38,1.83-.75,2.84-.75.78,0,1.79-.29,2.1.6.35,1.01-.71,1.36-1.4,1.56-.92.27-1.76.53-1.48,1.67.28,1.11,1.28.97,2.14.9,1.15-.1,2.29-.7,3.47-.22-1.06,2.54-4.31.6-5.31,2.74,1.81,2.78,2.89,6.04,6.51,7.25-.09-1.33.6-2.21,1.26-3.08-1.72-1.07-3.93-.97-5.37-2.73,2.14-1.14,4.26-1.74,3.91-4.55-.1-.81.54-1.93,1.72-1.87,3.25.18,6.38-.8,9.58-1,2.16-.13,3.12,1.53,2.12,3.42-1.76.15-1.94-1.95-3.99-2.68,1.5,3.2-1.66,3.88-2.69,6.33,1.12-.61,1.86-.69,2.59-.25.8.49,1.48-.25,2.22-.26.52,0,.71.6.87,1.1.19.58-.22,1.26.24,1.8,3.15-1.52,4.17-1.51,5.43.26-2.36.71-1.32,5.2-5.08,4.53-.47-1.06.6-1.83-.05-2.82-1.34-.3-2.68.19-4.33.35.68,2.23,1,4.33-.16,6.37-.72,1.27-1.57,1.89-2.94.99-.99-.66-1.54-.48-1.75.82,1.02.63,2.04,1.27,3.08,1.91,1.4.85,2.53.51,3.18-.94,1.23-2.72,5.02-2.76,6.74-.94,1.24,1.31,2.43,2.64,3.32,4.23,1.07,1.9,4.74,2.46,6.3.98,1.46-1.38,4.7-.64,5.54,1.24.2.46.23.84-.1,1.17-1.55,1.61-3.51,2.19-5.68,2.16-1.64-.02-2.2-1.14-2.29-2.57-3.16.28-6.07,1.23-9.12.91-.69-.08-1.44.12-2.12.32-4.25,1.25-7.57,3.9-10.5,7.11-1.08,1.18-2.07,2.51-2.22,4.11-.18,1.98-1.11,3.51-2.26,5.02-.56.73-1.06,1.54-1.46,2.37-.49,1.02-.58,1.9.48,2.86,1.21,1.1,1.19,2.59-.17,3.65-1.46,1.14-2.22,2.7-3.4,4.4,2.13.03,3.88.01,5.67-.25,2.03-.3,4-1.21,6.16-.67.8.2,1.41.38,1.28,1.33-.12.85-.27,2.1-1.17,2.06-1.52-.05-3.07,1.08-4.59-.06-.45-.34-1.08-.4-1.66.34,1.4.85,1.55,2.7,2.93,3.54.7.42.89.93.72,1.6-.21.8-.67,1.44-1.57,1.58-.68.11-1.48-.17-2.03.76,1.34,1.6,1.46,3.14-.97,4.21,2.13,1.87,4.02,3.88,6.77,3.82,2.01-.05,3.75.69,5.61.91,2.49.3,5.41,1.61,7.44-1.64,1.82,1.46,4.1,2.24,5.74,4.45-2.11-.09-1.58,1.9-2.88,2.91-3.34-4.69-7.25-2.44-11.21-.65,2.55,2.27-.74,4.46-.25,7.03,2.82-1.03,4.31-3.06,5.18-5.56.49-1.43,1.38-1.71,2.66-1.42s2.49.8,3.39,1.78c1.01,1.1,1.06,1.91-.65,2.47-1.37.44-2.84.91-4,2.63,2.51-.43,4.58-1.13,6.74-.83.08-1.12-.37-2,.36-3.04,2.72.75,5.41-.17,8.11-.81,1.37-.32,2.38-.11,3.27.96.57.68,1.1,1.17,2.19.62,2.19-1.11,2.79-.8,4.06,1.65-1.15.53-1.95,1.65-3.36,1.72s-2.61.71-3.76,1.5c-1.81,1.24-3.95,1.92-6.01,2.25-1.4.22-3.36.49-4.61-.93-1.06-1.2-2.41-1.27-3.51-.61-1.96,1.16-4.13,1.5-6.22,2.16-.62.19-1.13.52-1.13,1.13,0,.82.77.98,1.39,1.07,1.79.27,3.62.22,5.36-.13,1.25-.25,2.08.19,2.86.92.31.28.29.89-.07,1.18-.84.65-1.81.76-2.82.35-.34-.13-.67-.31-1.01-.37-1.51-.28-3-.44-4.35.77.4,1.62.98,2.74,3.04,2.5,1.67-.2,2.8.54,3.2,2.43.28,1.28.8,2.8,2.36,3.09,2.71.52,5.53.79,7.91-.97,1.83-1.36,3.91-2.76,5.02-4.65,2.32-3.96,5.81-5.98,9.82-7.7,5.84-2.52,11.51-5.43,17.31-8.04,2.55-1.15,5.02-2.44,7.52-3.67,2.65-1.3,5.69-1.83,8.33-3.14,1.9-.96,4.08-1.68,5.63-3.42-3.17-.51-5.28,1.98-8.11,2.86.08-1.22.56-1.58,1.05-1.84,2.7-1.45,5.41-2.88,8.15-4.26.48-.24,1.02-.42,1.64-.41,4.15.07,8.28-.11,12.14-1.87,2.07-.95,4.28-1.2,6.51-1.24.84-.01,1.65.12,2.76-.71-6.44-2.04-11.86,1.78-17.55,2.11-.35-1.37,1.04-1.35,1.11-2.21-.88-.75-1.38.11-2.03.45-1.99,1.03-3.76,3.18-6.38,1.32-.38-.28-.81.1-1.18.32-2.93,1.8-6.19.93-9.46,1.47.32-2.72,2.15-3.86,3.95-4.5,5.72-2.01,11.63-3.35,17.29-5.63,5.28-2.13,11.1-2.28,16.67-3.4,7.86-1.58,15.95-1.95,23.74-4,3.61-.95,7.39.14,11.02-1.29,3.55-1.39,7.54-1.17,11.22-2.14,3.38-.9,6.89-.84,10.29-1.84,2.35-.68,5.17-.83,7.54.64-.11.98-1.65.82-1.05,2.13,1.5-.82,3.25-.07,4.78-.87.69-.36,1.53-.52,1.83-1.38.36-1.01-.93-1-1.3-1.7,2.45-1.47,4.75-.57,6.82.14,2.22.76,4.36-1.1,6.3.33.69-.51.02-1.47.89-1.73,3.58,1.41,7.06,3.27,11.12,2.19.13-.03.28.07.42.09,3.15.36,6.31.55,9.46.19,3.88-.43,7.7-.23,11.51.53.49.1,1.03.13,1.5.01,3.88-.91,7.99,1.17,11.77-.93.06-.03.16-.03.22-.01,2.71,1.04,5.69.93,8.4,1.71,3.02.86,5.77.47,8.62.04.11-2.79.43-2.98,2.91-1.82.67.32,1.47.72,2.06.46,1.89-.81,3.48.12,5.2.53,1.8.42,4.51.9,5.3-.16,1.68-2.25,3.51-1.6,5.28-1.22,2.29.49,4.33.23,6.16-1.08,1.71-1.21,3.43-1.17,5.34-.8,3.87.76,7.75,1.44,11.74,1.02.99-.11,2.02-.06,3,.1,2.82.45,5.62.42,8.44.28l.14,2.58c-.58,0-1.35.38-2.72,1.05.32.64,1.43.36,1.53,1.49-3.15.48-6.3,1.04-9.47,1.41-4.62.53-9.37-.37-13.89,1.27-.31.11-.71-.06-1.06-.05-4.5.15-9,.33-13.5.7-3.27.27-6.62,1.12-9.93-.07-1.05-.38-2.07-.22-3.06,1.01,3.29-.11,6.17.75,9.2.74,3.45,0,6.8-1.04,10.29-.67,2.11.23,4.34.28,6.42-.13,4.71-.92,9.52-.8,14.26-1.21,5.12-.44,10.28-.73,15.39-1.3,4.28-.47,8.22.69,12.31,1.53-.11,3.98.15,4.29,3.23,3.93,11.53-1.37,23.15-2.08,34.51-4.77.7-.17,1.57.03,1.44-1.06-.13-1-.89-.74-1.64-.8-.32-.02-.63-.02-.93,0l-.08-2.92c.07,0,.13,0,.2-.01,1.79-.1,3.6-.13,5.4-.14,1.72-.02,3.46-.15,4.88,1.21.65.63,1.36.26,1.89-.31,1.29-1.39,2.94-1.72,4.73-1.67,1.74.04,3.46-.19,5.11-.71,2.9-.91,5.87-1.32,8.9-1.54,1.43-.1,2.7.08,3.84,1.01.74.61,1.6,1.13,2.58.8,2.69-.9,5.43-.52,8.16-.4.45.01,1.05-.14,1.22.54-.37.73-1.43-.15-1.85,1.05,2.66,1.04,5.34,1.54,8.11.92,2.77-.61,5.59-1.17,8.35-1.45,1.9-.19,4.2.43,6.08.14,4.7-.72,9.63-.67,14-3.04,1.33-.72,2.69-1.16,4.1-1.35,1.37-.2,2.79-.17,4.26.05,3.48.53,7.1,1.29,10.51.84,4.61-.61,9.24-1.23,13.83-2.08,4.13-.77,8.07-1.65,11.16-4.7,2.62,3.05,5.25,2.96,7.43-.17.78-1.13.85-2.41,1.03-3.69.23-1.64-.33-2.04-1.92-1.69-4.57.99-9.25.93-13.89,1.33-2.39.21-4.99-.66-7.15.7-3.31,2.1-7.25,1.63-10.74,3.07-4.27,1.76-9.16,1.79-13.21,4.37-.44.28-.97.5-1.5.62-.18.04-.36.06-.53.07-3.83.21-7.39,1.48-11.02,2.56-1.72.51-3.53,1.02-5.32.57-3.32-.83-6.7.51-10.01-.4-.61-.17-1.31-.04-1.88.32-1.3.8-2.67.79-4.06.46-.2-.8.72-1.39.14-2.21-2.87-.56-5.96.53-8.83-.7.15-1.31-1.3-2.22-.85-3.79,1.26.36,2.17-.97,3.42-.83,3.57.39,7.2-.4,10.75.65,1.46.43,2.88.23,3.85-1.17.59-.84,1.46-.72,2.32-.83,2.79-.34,5.71-.52,7.05-3.52,1.19-.38,2.07.76,3.25.26,2.13-.89,4.47-1.04,6.69-1.62,1.81-.47,3.46-.48,5.24.32,1.49.67,3.2.72,4.85.33.18-.04.32-.23.43-.32.21-.73-.95-.73-.55-1.74,3.6-1.65,8.17-1.63,11.58-4.68q-2.66-.76-2.42-2.58c-.35-.02-.71-.05-1.06-.05-.88,0-1.96.06-1.89-1.16.08-1.28,1.12-1.26,2.13-1.03,3.66.81,7.66.82,10.29,4.18.6.78,1.39.8,2.07.18,1.31-1.22,2.32-.51,3.37.32-.67,2.42-3.55.81-4.61,2.65,2.82.58,5.27-.03,7.55-1.58.83-.56,1.65-.95,2.8-.63,1.26.35,2-.4,2-2.61-2.17,2.25-4.29,1.08-6.45.91.07-.92.75-1.29,1.42-1.72,2.41-1.58,4.81-1.45,7.38-.31,6.26,2.79,6.97,1.02,12.42-2.63-1.87-1.08-3.55-2.2-5.78-.8-1.05.67-2.33.35-3.52-.09.15-1.96,1.33-2.83,2.96-3.35,2.2-.68,4.51-1.19,6.4-2.53,2.14-1.54,4.24-2.89,7.25-1.71-.63-1.69-1.81-2.12-2.9-2.59-1.24-.54-1.71-1.2-.82-2.47,1.08-1.56.22-2.24-1.3-2.39-.86-.09-1.74-.05-2.59.05-3.63.42-7.19-.87-11.16-.04.61-1.01.96-1.57,1.82-1.59,2.82-.07,5.12-1.86,7.82-2.37.63-.12,1.3-.65,1.26-1.33-.1-1.97,1.29-2.48,2.69-3.11.58-.26,1.43-.4,1.47-1.32-1.77-.81-3.49-1.16-5.45-.58-2.18.64-4.6-.65-6.74.41-3.78,1.88-7.82.41-12.16,1.54.94-1.29,1.25-2.55,2.26-2.66,3.58-.4,6.2-2.91,9.43-4.03,1.06-.36,1.05-1.17.56-1.9-.82-1.25-2.07-1.94-3.48-1.26-.64.3-1.06.23-1.57.09-2.9-.79-5.82-.61-8.76-.35-3.31.29-6.57,1.28-9.96.14-1.22-.41-2.93-.57-3.99-.01-1.83.96-2.46.37-3.21-1.19-.6-1.24-1.93-1.81-3.12-1.14-1.85,1.03-3.96,1.26-5.77,2.16-2.97,1.48-6.07,2.02-9.27,2.65-2.84.55-6.56-.46-8.2,3.3-.06.15-.37.19-.56.29-3.18,1.7-6.65,2.35-10.15,2.69-2.28.23-4.59.47-6.81.85-2.3.4-3.52-.21-4.76-2.21,3.83-1.67,7.66,1.42,11.54-.55-2.7-.84-5.18-1.26-7.87-1.4-.17-.3-.57-.74-.24-1.33,1.93-.79,4.12-.05,6.33-1.17-3.27-1.21-5.94.68-8.71.57-2.9-.12-5.78-.74-8.67-1.08-4.72-.54-6.43-.97-8.22-2.26,1.88-.39,3.76.28,5.39-.52.48-.23.7-.46,1.18-.05.92.78,1.8.35,2.48-.36.68-.7,1.53-1,2.33-1.45,3.68-2.05,7.73-1.35,11.62-1.75,1.18-.12,2.74.4,2.82-1.72.02-.6.92-.7,1.46-.51,2.31.83,4.58-.04,6.85-.15,2.56-.12,5.04-.88,7.65-1.09,5.1-.43,10.29-.5,15.33-1.57,1.81-.39,3.7-.12,5.36-.68,1.13-.37,2.2-.79,3.29-.52,1.31.33,2.41.08,3.52-.49,2.15-1.09,4.34-1.74,6.73-.81.16.07.4-.04.6-.07-1.11-1.87-3.74-.98-5.09-2.62,1.24-.93,2.44-1.17,3.68-1.03,1.73.2,3.44.07,5.17.04,1.75-.03,3.28-.91,5.05-1.01,2.87-.15,5.96.1,8.14-2.52.27-.31.93-.32,1.42-.43,3.48-.79,7.1-1.23,10.35-2.68,2.52-1.11,4.79-2.04,7.64-1.33,2.09.52,4.27-.39,6.42-.53,1.71-.12,3.14.24,3.59,2.21.15.62.56,1.17,1.22.81,1.06-.58,2.31.02,3.36-.7.03-.27.09-.55.09-.83.01-15.13,0-30.25.04-45.38h.4ZM537.08,217.54c-.23-2.77-2.23-2.13-3.42-2.64-.56-.24-1-.11-1.13.51-.13.64.33.96.86.91,1.19-.1,2.13.56,3.69,1.22ZM533.88,240.08c.34-1.3.47-2.43-.71-3.18-.76-.47-1.6-.12-2.2.31-.79.58-.73,1.68-.34,2.33.71,1.2,1.98.67,3.25.54ZM507.52,173.32c2.55,1.56,4.86,1.59,7.19.2-2.31-.5-4.6-1.02-7.19-.2ZM476.47,183.26c-5.88-.95-11.57-.11-17.28.24,3.09,2.35,15.53,2.17,17.28-.24ZM329.45,247.28c.67,1.45,1.51,1.04,2.71.32-1.11-.47-1.82-.91-2.71-.32ZM314.49,247.96h10.07c-2.2-1.72-8.02-1.96-10.07,0ZM324,262.53c-1.39-1.04-2.85-2.42-3.87-1.96-2.78,1.23-5.72.45-8.48,1.25-.8.23-2.01.28-2.14-1.1-.06-.63-.36-.68-.83-.65-.5.03-1.11.03-1.07.74.06,1.12-.81.98-1.45,1.18-3.16,1-6.24.43-9.29-.48-2.23-.67-4.39-1.25-6.72-.28-.89.37-1.98.3-2.99.35-2.47.13-4.98-.05-7.4.37-6.81,1.18-13.75,1.27-20.52,2.78-4.37.97-8.88,1.27-13.31,1.94-1.86.27-3.69.7-6.03,1.16,1.51.52,2.48.47,3.49.48,1.83.02,3.52-.67,5.25-1.01,3.81-.75,7.7-.62,11.49-1.55,3.11-.76,6.32-1.16,9.51-1.47,3.28-.31,6.58-.33,9.84-.99,2.68-.54,5.41-.62,8.16-.48,2.59.14,5.09.83,7.62,1.06,6.66.59,13.32-.4,20-.41,2.78,0,5.57-.26,8.74-.93ZM318.59,259.05c-1.92.15-3.93-.24-6.04.55,2.33,1.51,4.12-.23,6.04-.55ZM239.36,267.89c-1.21.14-2.42-.31-3.47.11-.95.39-2.23.08-3.3,1.71,2.62-.76,4.97-.2,6.77-1.82ZM210.43,246.84q2.04.78,3.4.33c-1.03-1.51-2.26-.64-3.4-.33ZM203.32,250.43c1.19.72,2.4,1.47,3.85.25-1.32-1-2.61-.36-3.85-.25ZM193.67,250.53c2.59-1.18,5.2.94,7.88-.18-2.99-1.65-6.34-1.63-7.88.18ZM178.81,252.73c-2.23-1.31-4.03-.14-6.01.84,2.45,1.32,4.39,1.03,6.01-.84ZM171.42,254.7c.06-.85-.28-1.28-.68-1.27-2.55.11-5.11.27-7.66.5-.66.06-.88.71-.78,1.33.1.59.53.86,1.11.76,2.67-.42,5.33-.87,8.01-1.32ZM109.26,278.47c3.93,1.74,7.99,1.32,12.05.78-3.97-1.32-7.99-1.32-12.05-.78Z"/>
  <path class="cls-2" d="M554.25,93.32v24.15h-.4c0-1.15-.49-1.62-1.4-2.1-1.75-.92-4.13-.76-5.14-3.04-.15-.34-1.03-.49-1.58-.51-1.76-.06-3.53-.02-5.66-.02.71,1.41,1.38,2.49.48,3.4-.84.85-1.89.21-2.86.01-1.19-.25-2.4-.45-3.61-.6-3.06-.38-6.04-1.19-9.06-1.72-2.16-.37-4.29-1-6.52-1.17-2.53-.19-4.99-1.39-7.6-.48-.29.1-.75-.04-1.03-.22-1.9-1.23-4.69.04-6.23-2.22-.1-.16-.57-.16-.82-.09-2.72.75-5.41-.19-8-.52-7.44-.98-14.92-1.03-22.37-1.62-6.09-.49-12.13-1.77-18.28-1.38-.27.02-.56-.13-.84-.2-4.04-1-8.16-1.35-12.61-1.65,2.34-2.68,5.58-.27,8.13-1.51-.95-1.68-2.31-.54-3.35-.64-3.72-.33-7.5-.79-11.2-.47-6.68.6-13.35-.52-19.99.21-2.06.23-3.97-.69-6-.4-5.35.76-10.76.52-16.14.83-6.8.39-13.63.26-20.45.57-13.92.64-27.84,1.09-41.77,1.56-3.03.11-6.11-.17-9.12,0l-.18-2.82c12.43-.82,24.83-2.01,37.28-2.64,3.87-.19,7.86-.18,11.55-1.18,5.06-1.37,10.23-1.03,15.29-1.94,1.36-.25,2.68-1.04,4.19-.46,1.33.52,2.66.26,3.97-.33,1.27-.56,2.59-1.06,3.67.44.34.46.88.38,1.39.15,2.16-1.02,4.45-.99,6.77-.87,1.36.07,2.7-.02,3.82-1.13-.85-.87-1.7-.91-2.73-.5-1.09.43-2.24.51-3.3-.21-1.83-1.24-3.7-1.9-5.61-.1-.65-.91-.8-2.16-1.9-2.13-2.94.11-5.69-1.3-8.7-.85-2.39.35-4.84.1-7.27.24-2.25.14-4.59-1.33-6.94-2.11q1.92-2.42.27-5.04c-.49-.79-.16-1.58.58-1.74,1.33-.29,2.48-1.06,3.92-1.04,3.86.03,7.72-.01,11.57-.17,5.27-.23,10.53-.88,15.81-.48,4.73.36,9.5.13,14.17.61,5.67.58,11.4-.39,17,.95.33.09.74.05,1.07-.06,1.09-.4,2.09-.06,3.16.14,2.9.55,5.84.86,9.33.8l1.19-.1c.6.32,1.2.47,1.8.51,5.37.34,10.66,1.33,16.03,1.8,8.06.72,16.05,2.19,24.14,2.76,1.78.12,3.54.39,5.32.57,2.58.26,5.1.85,7.57,1.59,1.72.52,3.34-.39,5.09.08,5.42,1.47,10.87,2.57,16.59,2.73,2.94.08,6.01.07,9.06.61,5.88,1.05,11.82,2.14,17.94,1.76h.51ZM499.5,105.91c3.26,1.04,6.53,1.14,9.98-.07-3.11-1.42-9.41-1.27-9.98.07ZM496.25,101.2c1.2,2.01,2.76,1.04,4.67,1.21-1.31-1.19-3-.74-3.58-2.23.89-.9,2.55.4,3.26-1.34-2.78-.84-5.53-.15-8.25-.37-.08,1.06.48,1,.96,1.12,1.12.28,2.39.69,2.94,1.61ZM490.22,98.9c-1.3-.76-2.31-.45-3.58-.27,1.11,1.58,2.12,1.4,3.58.27ZM479,99.18c-.27-.61-.63-.72-.98-.73-5.94-.11-11.9-.84-17.83.3-.92.17-1.99.38-2.75-.15-3.14-2.2-6.5-1.2-9.99-.96.25.58.64.79,1.05.85,3.3.47,6.39,1.62,9.43,2.95,1.39.61,2.8.29,3.84-.65,1.08-.96,1.98-.83,3.13-.32.74.33,1.83,1.01,2.34.07.68-1.24,1.63-.94,2.57-.92,1.66.03,3.33.3,4.96.16,1.38-.12,2.97.44,4.23-.6ZM457.51,87.13c-.94-1.72-2.02-1.35-3.16-.62.98.19,1.95.38,3.16.62ZM447.11,85.45c1.26.69,2.53,1.22,4.49.52-1.8-.93-3.16-.51-4.49-.52Z"/>
  <path class="cls-2" d="M554.25.25v93.07h-.51v-2.37c-.86.28-1.63.41-2.38.13-5.95-2.27-12.33-1.44-18.49-2.43-9.68-1.57-19.49-2.39-29.19-4.02-.56-.1-1.15-.04-1.72-.05-4.02-.09-8.15.52-12-.76-3.81-1.26-7.65-1.79-11.6-1.9-4.34-.12-8.79.86-12.87-1.55-.46-.27-1.26.09-1.91.1-2.81.03-5.62.19-8.43-.19-1.75-.24-3.53-.32-5.21.48.09.05.17.1.26.15l-1.19.1c-1.53-1.25-2.89-1.31-4.14-1.72-3.1-1.02-6.7.98-9.5-1.64-.11-.1-.42.03-.63-.01-2.51-.54-4.98-.02-7.48.17-1.99.15-3.98.87-5.97.49-2.87-.56-5.79-.92-8.64-1.33-4.66-.68-9.46-1.29-14.27-.07-.94.23-2.84.66-4.11-.73,1.22-1.15,2.64-1.85,4.18-2.17,4.9-1.04,9.92-.91,14.89-1.09,3.07-.11,6.15-.23,9.27.24,2.56.39,5.3,0,7.9-.03,2.94-.04,6.18-.04,9.19.96,1.18.39,2.59.6,3.86.03-.12-.94-.77-.96-1.32-1.01-2.99-.27-6.02-.36-8.98-.8-2.1-.32-4.22.67-6.3-.35-1.27-.63-2.67-.64-4.15-.62-1.91.02-3.99,1.09-5.83-.37-.14-.11-.42-.06-.63-.04-3.78.38-7.55-.34-11.35-.05-3.96.3-7.87-.73-11.85-.66-2.85.05-5.56.97-8.52.7-6.38-.58-12.74-1.53-19.2-1.3-1.64.06-3.43.23-5.12-.33-2.5-.84-5.1-.86-7.7-.66-1.29.09-2.58.38-3.86.32-5.56-.27-11.11-.33-16.67.08-5.31.39-10.6,1.03-15.94.8-1.36-.05-2.75-.03-4.1.18-8.71,1.34-17.33,3.18-26.27,2.46-3.15-.26-6.4-.6-9.59-.04-1.41.24-3.7-.02-4.09.72-1.35,2.63-3.62,2.04-5.69,2.42-2.89.52-5.86-.33-8.72.71-.83.3-1.86.02-2.78.15-1.23.18-.57-1.31-1.34-1.42-.79-.04-.63.97-1.53,1.11-2-1.27-4.48-1.59-6.86-.96-3.25.87-6.52.8-9.79.95-1.14.05-2.02.44-1.93,1.78.08.99-.45,1.21-1.28,1.28-5.44.49-10.88.92-16.27,1.86-6.8,1.2-13.62,2.19-20.54,2.12-4.68-.05-9.36.1-13.94,1.06-3.29.69-6.55,1.11-9.6,3.26-3.84,2.7-8.91,2.49-13.42,3.61-1.74.43-3.67.68-5.18-1.16,2.25-.57,4.34-1.11,6.55-1.67-.5-1.29-1.21-1.02-1.98-.71-2.12.85-4.39,1.66-6.61,1.55-3.8-.2-7.11,1.1-10.56,2.27-3.79,1.28-7.24,3.75-11.53,3.43-.76-.06-1.58.18-2.32.44-2.77.99-5.65,1.62-8.46,2.48-5.8,1.77-11.8,2.83-17.64,4.5-10.08,2.89-20.25,5.41-30.18,8.79-5.78,1.97-11.8,3.46-17.08,6.57-6.98,4.11-13.92,8.31-21.04,12.18-6.57,3.58-12.91,7.54-19.43,11.2-4.39,2.47-9.22,4.49-12.69,8.42V.25h554ZM553.67,89.06c.15-1.03.53-1.93-.72-2.25-3.42-.88-6.86-1.6-10.42-.96-.6.11-1.38.06-1.22,1.15,4.08.45,8.18.92,12.36,2.06ZM553.44,82.59c.41-1.07.78-2.02-.34-2.17-2.17-.29-4.39-.92-6.6.05,2.2.86,4.63.79,6.94,2.12Z"/>
  <path d="M425.98,109.77c2.46-.6,4.94,1.79,7.4-.29-2.49,1.1-4.92-.45-7.4.29ZM553.85,117.47c-.05,15.13-.03,30.25-.04,45.38,0,.28-.06.56-.09.83-1.05.72-2.3.12-3.36.7-.66.36-1.07-.19-1.22-.81-.45-1.97-1.88-2.33-3.59-2.21-2.15.14-4.33,1.05-6.42.53-2.85-.71-5.12.22-7.64,1.33-3.25,1.45-6.87,1.89-10.35,2.68-.49.11-1.15.12-1.42.43-2.18,2.62-5.27,2.37-8.14,2.52-1.77.1-3.3.98-5.05,1.01-1.73.03-3.44.16-5.17-.04-1.24-.14-2.44.1-3.68,1.03,1.35,1.64,3.98.75,5.09,2.62-.2.03-.44.14-.6.07-2.39-.93-4.58-.28-6.73.81-1.11.57-2.21.82-3.52.49-1.09-.27-2.16.15-3.29.52-1.66.56-3.55.29-5.36.68-5.04,1.07-10.23,1.14-15.33,1.57-2.61.21-5.09.97-7.65,1.09-2.27.11-4.54.98-6.85.15-.54-.19-1.44-.09-1.46.51-.08,2.12-1.64,1.6-2.82,1.72-3.89.4-7.94-.3-11.62,1.75-.8.45-1.65.75-2.33,1.45-.68.71-1.56,1.14-2.48.36-.48-.41-.7-.18-1.18.05-1.63.8-3.51.13-5.39.52,1.79,1.29,3.5,1.72,8.22,2.26,2.89.34,5.77.96,8.67,1.08,2.77.11,5.44-1.78,8.71-.57-2.21,1.12-4.4.38-6.33,1.17-.33.59.07,1.03.24,1.33,2.69.14,5.17.56,7.87,1.4-3.88,1.97-7.71-1.12-11.54.55,1.24,2,2.46,2.61,4.76,2.21,2.22-.38,4.53-.62,6.81-.85,3.5-.34,6.97-.99,10.15-2.69.19-.1.5-.14.56-.29,1.64-3.76,5.36-2.75,8.2-3.3,3.2-.63,6.3-1.17,9.27-2.65,1.81-.9,3.92-1.13,5.77-2.16,1.19-.67,2.52-.1,3.12,1.14.75,1.56,1.38,2.15,3.21,1.19,1.06-.56,2.77-.4,3.99.01,3.39,1.14,6.65.15,9.96-.14,2.94-.26,5.86-.44,8.76.35.51.14.93.21,1.57-.09,1.41-.68,2.66.01,3.48,1.26.49.73.5,1.54-.56,1.9-3.23,1.12-5.85,3.63-9.43,4.03-1.01.11-1.32,1.37-2.26,2.66,4.34-1.13,8.38.34,12.16-1.54,2.14-1.06,4.56.23,6.74-.41,1.96-.58,3.68-.23,5.45.58-.04.92-.89,1.06-1.47,1.32-1.4.63-2.79,1.14-2.69,3.11.04.68-.63,1.21-1.26,1.33-2.7.51-5,2.3-7.82,2.37-.86.02-1.21.58-1.82,1.59,3.97-.83,7.53.46,11.16.04.85-.1,1.73-.14,2.59-.05,1.52.15,2.38.83,1.3,2.39-.89,1.27-.42,1.93.82,2.47,1.09.47,2.27.9,2.9,2.59-3.01-1.18-5.11.17-7.25,1.71-1.89,1.34-4.2,1.85-6.4,2.53-1.63.52-2.81,1.39-2.96,3.35,1.19.44,2.47.76,3.52.09,2.23-1.4,3.91-.28,5.78.8-5.45,3.65-6.16,5.42-12.42,2.63-2.57-1.14-4.97-1.27-7.38.31-.67.43-1.35.8-1.42,1.72,2.16.17,4.28,1.34,6.45-.91,0,2.21-.74,2.96-2,2.61-1.15-.32-1.97.07-2.8.63-2.28,1.55-4.73,2.16-7.55,1.58,1.06-1.84,3.94-.23,4.61-2.65-1.05-.83-2.06-1.54-3.37-.32-.68.62-1.47.6-2.07-.18-2.63-3.36-6.63-3.37-10.29-4.18-1.01-.23-2.05-.25-2.13,1.03-.07,1.22,1.01,1.16,1.89,1.16.35,0,.71.03,1.06.05q-.24,1.82,2.42,2.58c-3.41,3.05-7.98,3.03-11.58,4.68-.4,1.01.76,1.01.55,1.74-.11.09-.25.28-.43.32-1.65.39-3.36.34-4.85-.33-1.78-.8-3.43-.79-5.24-.32-2.22.58-4.56.73-6.69,1.62-1.18.5-2.06-.64-3.25-.26-1.34,3-4.26,3.18-7.05,3.52-.86.11-1.73-.01-2.32.83-.97,1.4-2.39,1.6-3.85,1.17-3.55-1.05-7.18-.26-10.75-.65-1.25-.14-2.16,1.19-3.42.83-.45,1.57,1,2.48.85,3.79,0,0-.02-.01-.03-.01,0,.01,0,.03,0,.04-2.27.29-4.6.38-7.21,1.52,2.12.5,3.59-.65,5.04-.22,1.42.42,1.86-.21,2.17-1.3,0-.01.03-.01.04-.01v-.02c2.87,1.23,5.96.14,8.83.7.58.82-.34,1.41-.14,2.21,1.39.33,2.76.34,4.06-.46.57-.36,1.27-.49,1.88-.32,3.31.91,6.69-.43,10.01.4,1.79.45,3.6-.06,5.32-.57,3.63-1.08,7.19-2.35,11.02-2.56.17-.01.35-.03.53-.07l.19,1.35c-1.41.19-2.77.63-4.1,1.35-4.37,2.37-9.3,2.32-14,3.04-1.88.29-4.18-.33-6.08-.14-2.76.28-5.58.84-8.35,1.45-2.77.62-5.45.12-8.11-.92.42-1.2,1.48-.32,1.85-1.05-.17-.68-.77-.53-1.22-.54-2.73-.12-5.47-.5-8.16.4-.98.33-1.84-.19-2.58-.8-1.14-.93-2.41-1.11-3.84-1.01-3.03.22-6,.63-8.9,1.54-1.65.52-3.37.75-5.11.71-1.79-.05-3.44.28-4.73,1.67-.53.57-1.24.94-1.89.31-1.42-1.36-3.16-1.23-4.88-1.21-1.8.01-3.61.04-5.4.14-.07.01-.13.01-.2.01-1.11.03-2.07-.3-3.03-1.06,3.52.33,5.71-2.8,8.96-3.14,1.65-.18,3.44.69,4.96-.65.62-.54,1.84-.75,1.49-1.82-.35-1.08-1.46-.71-2.26-.56-4.44.84-8.86.68-13.27-.1-.83-.15-1.55-.18-2.19.48-.24.25-.58.42-.91.57-1.67.73-9.87-1-11.07-2.4-1.55-1.81-3.63-1.19-5.43-1.07-4.52.3-9.06.31-13.56.97-1.33.2-2.9.29-4.02-.97-.29-.33-.71-.22-.97-.01-1.86,1.54-3.78.77-5.66.15-1-.34-1.65-.17-2.2.87,2.83,1.42,5.95,1.84,8.92,2.73,2.93.88,6.04.12,9,.83-.23,1.29-1.44.61-1.93,1.97-.07.2,1.28.14.95,1.09-1.18.8-2.37.2-3.53-.31-1.75-.77-3.53-1.89-4.23,1.22-.14.63-1.14.92-1.6.32-2.2-2.79-5.36-2.19-8.11-2.01-.92.06-1.84.12-2.75.17-2.82.14-5.62.17-8.44-.28-.98-.16-2.01-.21-3-.1-3.99.42-7.87-.26-11.74-1.02-1.91-.37-3.63-.41-5.34.8-1.83,1.31-3.87,1.57-6.16,1.08-1.77-.38-3.6-1.03-5.28,1.22-.79,1.06-3.5.58-5.3.16-1.72-.41-3.31-1.34-5.2-.53-.59.26-1.39-.14-2.06-.46-2.48-1.16-2.8-.97-2.91,1.82-2.85.43-5.6.82-8.62-.04-2.71-.78-5.69-.67-8.4-1.71-.06-.02-.16-.02-.22.01-3.78,2.1-7.89.02-11.77.93-.47.12-1.01.09-1.5-.01-3.81-.76-7.63-.96-11.51-.53-3.15.36-6.31.17-9.46-.19-.14-.02-.29-.12-.42-.09-4.06,1.08-7.54-.78-11.12-2.19-.87.26-.2,1.22-.89,1.73-1.94-1.43-4.08.43-6.3-.33-2.07-.71-4.37-1.61-6.82-.14.37.7,1.66.69,1.3,1.7-.3.86-1.14,1.02-1.83,1.38-1.53.8-3.28.05-4.78.87-.6-1.31.94-1.15,1.05-2.13-2.37-1.47-5.19-1.32-7.54-.64-3.4,1-6.91.94-10.29,1.84-3.68.97-7.67.75-11.22,2.14-3.63,1.43-7.41.34-11.02,1.29-7.79,2.05-15.88,2.42-23.74,4-5.57,1.12-11.39,1.27-16.67,3.4-5.66,2.28-11.57,3.62-17.29,5.63-1.8.64-3.63,1.78-3.95,4.5,3.27-.54,6.53.33,9.46-1.47.37-.22.8-.6,1.18-.32,2.62,1.86,4.39-.29,6.38-1.32.65-.34,1.15-1.2,2.03-.45-.07.86-1.46.84-1.11,2.21,5.69-.33,11.11-4.15,17.55-2.11-1.11.83-1.92.7-2.76.71-2.23.04-4.44.29-6.51,1.24-3.86,1.76-7.99,1.94-12.14,1.87-.62-.01-1.16.17-1.64.41-2.74,1.38-5.45,2.81-8.15,4.26-.49.26-.97.62-1.05,1.84,2.83-.88,4.94-3.37,8.11-2.86-1.55,1.74-3.73,2.46-5.63,3.42-2.64,1.31-5.68,1.84-8.33,3.14-2.5,1.23-4.97,2.52-7.52,3.67-5.8,2.61-11.47,5.52-17.31,8.04-4.01,1.72-7.5,3.74-9.82,7.7-1.11,1.89-3.19,3.29-5.02,4.65-2.38,1.76-5.2,1.49-7.91.97-1.56-.29-2.08-1.81-2.36-3.09-.4-1.89-1.53-2.63-3.2-2.43-2.06.24-2.64-.88-3.04-2.5,1.35-1.21,2.84-1.05,4.35-.77.34.06.67.24,1.01.37,1.01.41,1.98.3,2.82-.35.36-.29.38-.9.07-1.18-.78-.73-1.61-1.17-2.86-.92-1.74.35-3.57.4-5.36.13-.62-.09-1.39-.25-1.39-1.07,0-.61.51-.94,1.13-1.13,2.09-.66,4.26-1,6.22-2.16,1.1-.66,2.45-.59,3.51.61,1.25,1.42,3.21,1.15,4.61.93,2.06-.33,4.2-1.01,6.01-2.25,1.15-.79,2.35-1.43,3.76-1.5s2.21-1.19,3.36-1.72c-1.27-2.45-1.87-2.76-4.06-1.65-1.09.55-1.62.06-2.19-.62-.89-1.07-1.9-1.28-3.27-.96-2.7.64-5.39,1.56-8.11.81-.73,1.04-.28,1.92-.36,3.04-2.16-.3-4.23.4-6.74.83,1.16-1.72,2.63-2.19,4-2.63,1.71-.56,1.66-1.37.65-2.47-.9-.98-2.11-1.49-3.39-1.78s-2.17-.01-2.66,1.42c-.87,2.5-2.36,4.53-5.18,5.56-.49-2.57,2.8-4.76.25-7.03,3.96-1.79,7.87-4.04,11.21.65,1.3-1.01.77-3,2.88-2.91-1.64-2.21-3.92-2.99-5.74-4.45-2.03,3.25-4.95,1.94-7.44,1.64-1.86-.22-3.6-.96-5.61-.91-2.75.06-4.64-1.95-6.77-3.82,2.43-1.07,2.31-2.61.97-4.21.55-.93,1.35-.65,2.03-.76.9-.14,1.36-.78,1.57-1.58.17-.67-.02-1.18-.72-1.6-1.38-.84-1.53-2.69-2.93-3.54.58-.74,1.21-.68,1.66-.34,1.52,1.14,3.07.01,4.59.06.9.04,1.05-1.21,1.17-2.06.13-.95-.48-1.13-1.28-1.33-2.16-.54-4.13.37-6.16.67-1.79.26-3.54.28-5.67.25,1.18-1.7,1.94-3.26,3.4-4.4,1.36-1.06,1.38-2.55.17-3.65-1.06-.96-.97-1.84-.48-2.86.4-.83.9-1.64,1.46-2.37,1.15-1.51,2.08-3.04,2.26-5.02.15-1.6,1.14-2.93,2.22-4.11,2.93-3.21,6.25-5.86,10.5-7.11.68-.2,1.43-.4,2.12-.32,3.05.32,5.96-.63,9.12-.91.09,1.43.65,2.55,2.29,2.57,2.17.03,4.13-.55,5.68-2.16.33-.33.3-.71.1-1.17-.84-1.88-4.08-2.62-5.54-1.24-1.56,1.48-5.23.92-6.3-.98-.89-1.59-2.08-2.92-3.32-4.23-1.72-1.82-5.51-1.78-6.74.94-.65,1.45-1.78,1.79-3.18.94-1.04-.64-2.06-1.28-3.08-1.91.21-1.3.76-1.48,1.75-.82,1.37.9,2.22.28,2.94-.99,1.16-2.04.84-4.14.16-6.37,1.65-.16,2.99-.65,4.33-.35.65.99-.42,1.76.05,2.82,3.76.67,2.72-3.82,5.08-4.53-1.26-1.77-2.28-1.78-5.43-.26-.46-.54-.05-1.22-.24-1.8-.16-.5-.35-1.1-.87-1.1-.74.01-1.42.75-2.22.26-.73-.44-1.47-.36-2.59.25,1.03-2.45,4.19-3.13,2.69-6.33,2.05.73,2.23,2.83,3.99,2.68,1-1.89.04-3.55-2.12-3.42-3.2.2-6.33,1.18-9.58,1-1.18-.06-1.82,1.06-1.72,1.87.35,2.81-1.77,3.41-3.91,4.55,1.44,1.76,3.65,1.66,5.37,2.73-.66.87-1.35,1.75-1.26,3.08-3.62-1.21-4.7-4.47-6.51-7.25,1-2.14,4.25-.2,5.31-2.74-1.18-.48-2.32.12-3.47.22-.86.07-1.86.21-2.14-.9-.28-1.14.56-1.4,1.48-1.67.69-.2,1.75-.55,1.4-1.56-.31-.89-1.32-.6-2.1-.6-1.01,0-1.73,1.13-2.84.75.65-3.09,2.88-5.2,5.82-5.51.61-.06,1.12-.22,1.47-.75,1.63-2.45,3.95-4.24,6.1-6.17,3.66-3.3,8.01-5.53,12.46-7.54,2.13-.95,4.4-1.6,6.61-2.38.18-.07.5-.2.56-.13,1.68,1.97,2.75-.03,3.8-.72,3.99-2.64,8.05-5.15,11.99-7.83,4.95-3.38,10.66-5.26,15.64-8.52.57-.37,1.36-.54,1.6-1.64-1.87-.41-3.65-.3-5.53.02-5.18.88-9.85,3.47-15.01,4.33-1.33.21-2.4.96-3.58,1.44-5.75,2.36-12.12,2.06-17.89,4.34-1.44.56-3.06.74-4.54,1.31-6.97,2.69-14.06,5.11-20.9,8.1-5.65,2.46-11.52,4.38-17.08,7.07-.88.43-1.79.92-2.85.85v-19.88c10.15-4.51,20.12-9.37,29.89-14.7-2.08-.86-3.95.23-5.91.15-3.85-.15-7.59,1.71-11.52.71-.43-.11-.96.23-1.45.34-3.77.87-7.35,2.34-11.01,3.56v-4.76c3.47-3.93,8.3-5.95,12.69-8.42,6.52-3.66,12.86-7.62,19.43-11.2,7.12-3.87,14.06-8.07,21.04-12.18,5.28-3.11,11.3-4.6,17.08-6.57,9.93-3.38,20.1-5.9,30.18-8.79,5.84-1.67,11.84-2.73,17.64-4.5,2.81-.86,5.69-1.49,8.46-2.48.74-.26,1.56-.5,2.32-.44,4.29.32,7.74-2.15,11.53-3.43,3.45-1.17,6.76-2.47,10.56-2.27,2.22.11,4.49-.7,6.61-1.55.77-.31,1.48-.58,1.98.71-2.21.56-4.3,1.1-6.55,1.67,1.51,1.84,3.44,1.59,5.18,1.16,4.51-1.12,9.58-.91,13.42-3.61,3.05-2.15,6.31-2.57,9.6-3.26,4.58-.96,9.26-1.11,13.94-1.06,6.92.07,13.74-.92,20.54-2.12,5.39-.94,10.83-1.37,16.27-1.86.83-.07,1.36-.29,1.28-1.28-.09-1.34.79-1.73,1.93-1.78,3.27-.15,6.54-.08,9.79-.95,2.38-.63,4.86-.31,6.86.96.9-.14.74-1.15,1.53-1.11.77.11.11,1.6,1.34,1.42.92-.13,1.95.15,2.78-.15,2.86-1.04,5.83-.19,8.72-.71,2.07-.38,4.34.21,5.69-2.42.39-.74,2.68-.48,4.09-.72,3.19-.56,6.44-.22,9.59.04,8.94.72,17.56-1.12,26.27-2.46,1.35-.21,2.74-.23,4.1-.18,5.34.23,10.63-.41,15.94-.8,5.56-.41,11.11-.35,16.67-.08,1.28.06,2.57-.23,3.86-.32,2.6-.2,5.2-.18,7.7.66,1.69.56,3.48.39,5.12.33,6.46-.23,12.82.72,19.2,1.3,2.96.27,5.67-.65,8.52-.7,3.98-.07,7.89.96,11.85.66,3.8-.29,7.57.43,11.35.05.21-.02.49-.07.63.04,1.84,1.46,3.92.39,5.83.37,1.48-.02,2.88,0,4.15.62,2.08,1.02,4.2.03,6.3.35,2.96.44,5.99.53,8.98.8.55.05,1.2.07,1.32,1.01-1.27.57-2.68.36-3.86-.03-3.01-1-6.25-1-9.19-.96-2.6.04-5.34.42-7.9.03-3.12-.47-6.2-.35-9.27-.24-4.97.18-9.99.05-14.89,1.09-1.54.32-2.96,1.02-4.18,2.17,1.27,1.39,3.17.96,4.11.73,4.81-1.22,9.61-.61,14.27.07,2.85.41,5.77.77,8.64,1.33,1.99.38,3.98-.34,5.97-.49,2.5-.19,4.97-.71,7.48-.17.21.04.52-.09.63.01,2.8,2.62,6.4.62,9.5,1.64,1.25.41,2.61.47,4.14,1.72-3.49.06-6.43-.25-9.33-.8-1.07-.2-2.07-.54-3.16-.14-.33.11-.74.15-1.07.06-5.6-1.34-11.33-.37-17-.95-4.67-.48-9.44-.25-14.17-.61-5.28-.4-10.54.25-15.81.48-3.85.16-7.71.2-11.57.17-1.44-.02-2.59.75-3.92,1.04-.74.16-1.07.95-.58,1.74q1.64,2.62-.27,5.04c2.35.78,4.69,2.25,6.94,2.11,2.43-.14,4.88.11,7.27-.24,3.01-.45,5.76.96,8.7.85,1.1-.03,1.25,1.22,1.9,2.13,1.91-1.8,3.78-1.14,5.61.1,1.06.72,2.21.64,3.3.21,1.03-.41,1.88-.37,2.73.5-1.12,1.11-2.46,1.2-3.82,1.13-2.32-.12-4.61-.15-6.77.87-.51.23-1.05.31-1.39-.15-1.08-1.5-2.4-1-3.67-.44-1.31.59-2.64.85-3.97.33-1.51-.58-2.83.21-4.19.46-5.06.91-10.23.57-15.29,1.94-3.69,1-7.68.99-11.55,1.18-12.45.63-24.85,1.82-37.28,2.64-1.2.08-2.4.16-3.6.23-2.66.16-5.36.24-7.99-.09-4.38-.54-8.72-.19-13.08.05-4.15.24-8.3.49-12.46.63-3.99.13-8.06.2-11.93,1.48-.72.24-1.5.42-2.1.04-1.89-1.22-3.82-.54-5.65-.11-5.58,1.3-11.2,1.39-16.91,1.45-5.38.05-10.86-.68-16.22,1.02-2.43.77-5.08.89-7.65,1.15-3.42.34-6.97.07-10.26.9-4.36,1.1-8.97,1.17-13.1,3.27-2.83,1.44-6.07,1.58-9.13,2.2-1.18.24-1.87.48-2.06,1.71.89.59,1.99.78,2.89.54,4.35-1.16,8.98-.2,13.22-1.71,2.26-.8,4.29-1.1,6.64-.45.94.25,2.21-.65,3.25-1.05,4.13-1.55,8.45-1.6,12.69-1.74,2.22-.07,4.61-.87,6.86.31.33.17.95-.2,1.43-.32,2.14-.57,4.23-1.46,6.54-.71.47.15,1.11-.18,1.65-.36,2.79-.88,5.57-1,8.51-.67,2.35.26,4.8-.27,7.2-.5,7.14-.69,14.3-1.54,21.43-1.98,8.2-.5,16.39-1.44,24.63-1.66,4.41-.12,8.87-.03,13.31-.63.69-.09,1.37-.15,2.07-.18,3.01-.16,6.09.12,9.12,0,13.93-.47,27.85-.92,41.77-1.56,6.82-.31,13.65-.18,20.45-.57,5.38-.31,10.79-.07,16.14-.83,2.03-.29,3.94.63,6,.4,6.64-.73,13.31.39,19.99-.21,3.7-.32,7.48.14,11.2.47,1.04.1,2.4-1.04,3.35.64-2.55,1.24-5.79-1.17-8.13,1.51,4.45.3,8.57.65,12.61,1.65.28.07.57.22.84.2,6.15-.39,12.19.89,18.28,1.38,7.45.59,14.93.64,22.37,1.62,2.59.33,5.28,1.27,8,.52.25-.07.72-.07.82.09,1.54,2.26,4.33.99,6.23,2.22.28.18.74.32,1.03.22,2.61-.91,5.07.29,7.6.48,2.23.17,4.36.8,6.52,1.17,3.02.53,6,1.34,9.06,1.72,1.21.15,2.42.35,3.61.6.97.2,2.02.84,2.86-.01.9-.91.23-1.99-.48-3.4,2.13,0,3.9-.04,5.66.02.55.02,1.43.17,1.58.51,1.01,2.28,3.39,2.12,5.14,3.04.91.48,1.4.95,1.4,2.1ZM515.9,115.25c2,.87,4.05.98,6.15.58-2-.64-4-1.31-6.15-.58ZM509.69,201.82c1.19-.49,3.21-.48,2.85-2.27-.27-1.36-2.12-1.33-3.36-1.21-5.57.56-11.23.62-16.63,2.19-2.77.8-5.58.59-8.36.92-2.3.28-4.66-.32-6.63,1.46-.25.21-.85.14-1.26.05-4.95-1.08-9.94-.93-14.85.08-2.45.51-4.8,1.47-7.26,2.09-3.92.99-7.85,1.82-11.82,2.07-6.54.42-13.01,1.42-19.52,2.09-2.9.3-5.92.17-8.74,1.06-2.62.83-5.24,1.47-7.99,1.58-.58.02-1.14.2-1.36.96.22.89,1.01,1,1.79,1.16,1.66.33,3.49.14,4.85-.42,4.47-1.83,9.23-1.08,13.77-2,.64-.13,1.26.09,1.47.93-1.32.72-2.5,1.73-4.17,1.26-3.25-.9-6.34.6-9.52.73-.06,0-.11.22-.27.53,10.81,2.71,21.63,3.47,32.6,1.64,7.08-1.17,14.16-2.33,21.44-3.53-.72-1.34-2.18-1.77-1.38-3.26.86-.36,1.46.11,2.1.41.71.33,1.39,1.2,2.12.94,2.53-.91,5.41-.49,7.73-1.66,2.77-1.41,5.6-1.86,8.59-2.4,8-1.46,16.19-2.22,23.81-5.4ZM507.49,114.37c1.52,2.07,2.96.3,4.65.38-1.59-1.9-3.03-1.5-4.65-.38ZM486.97,111.54c2.98.74,5.98,1.12,9.03.94-2.98-.75-5.98-1.17-9.03-.94ZM485.72,111.24c-.79-.48-1.22-.98-1.59-.94-2.88.32-5.59-.75-8.33-.94-1.96-.13-4.01.14-5.82-.67-1.52-.67-3.22-1.2-4.56-.81-4.63,1.38-8.86-1.14-13.39-.99-2.62.08-5.43-.92-8.15-1.43-.66-.13-1.05-.77-1.96-.56-3.71.85-7.52-.05-11.27.42-1.53.19-2.72-1.09-4.32-1.11-5.48-.07-10.95-.3-16.36.82-.59.12-1.25.12-1.66-.28-1.29-1.28-2.98-.95-4.26-.6-2.34.65-4.68.6-7.05.91,1.37.48,2.89.52,4.03,1.35,2.07,1.53,4.33,1.74,6.76,1.55.7-.06,1.43.09,2.13.22,1.5.26,3.4.73,4.44-.01,2.4-1.72,4.85-.68,7.26-.85,1.56-.11,3.14.28,4.69.48,5.19.68,10.48.17,15.64,1.56,1.7.45,3.42,1.37,5.36,1.15,3.65-.41,7.3.16,10.97.08,6.17-.14,12.35.29,18.52.57,2.83.12,5.65.3,8.92.08ZM477.3,218.32c1.09.74,1.66.13,2.38-.97-2.51-.66-4.79-1.49-7.11-.16-.43.25-.12.9.41,1.33,1.37-.99,2.83-1.22,4.32-.2ZM466.51,134.93c.96-.19,2.19-.12,2.16-1.57-.04-1.44-1.33-1.19-2.24-1.48-1.88-.6-3.73.7-5.69-.19-3.22-1.45-6.84-1.16-10.25-1.86-3.49-.71-7.05-.04-10.59-.69-4.86-.89-9.77-.57-14.7-.04-4.03.44-8.13-.06-12.2-.43-1.41-.13-2.76.2-4.52,1.02,2.72,1.3,4.96-.76,7.22.37,1.64.81,3.82-.21,5.35.61,3.49,1.87,7.1,1.84,10.8,1.5,2.5-.23,4.89-.18,6.9,1.64.29.27.79.49,1.17.45,4.26-.41,7.93,1.82,11.9,2.67,3.33.72,6.36,1.1,9.21-1.18.3-.23.82-.31,1.23-.27,1.47.16,2.85-.26,4.25-.55ZM445.48,224.98c1.76,1.1,3.22,1.04,4.64,0-1.49-.34-2.95-2.64-4.64,0ZM449.5,200.61c-1.27-2.68-3.03-.88-4.64-.65,1.5.55,3.13.11,4.64.65ZM444.31,202.76c1.07-.76.41-1.58-.49-2.16-1.12-.72-2.39-.76-3.74-.53-2.27.39-4.64.75-6.75-.43-1.32-.73-2.18-.63-3.21.38-1.62,1.57-3.71,2.38-5.74,1.32-3.55-1.83-6.81.52-10.26.26,1.01,1.43,2.42.94,3.66.89,2.63-.09,5.34-.64,7.83.33,3.04,1.19,5.99,2.18,9.23.69.05-.41-.41-.56-.75-.8-.36-.26-1.06-.2-.89-1.28,3.62.39,7.31.11,11.11,1.33ZM431.74,184.12c.04-.72.33-1.26-.06-1.81-.67.07-1.36.09-1.77,1.01.58.25,1.12.49,1.83.8ZM426.82,235.91c1.59-.33,3.45-.77,4.81-2.69-6.99-.72-13.69-.06-20.65.07.92,1.48,3.39,2.06,1,4.18,1.56-.23,2.47.86,3.7.77,3.82-.27,7.42-1.57,11.14-2.33ZM417.15,193.52c2.97.47,5.56,1.33,7.52-.5-.82-.08-2.16-.18-3.48-.33-1.28-.16-2.66-1.01-4.04.83ZM396.44,151.46c-2.46-1.53-4.88-.18-7.91-.23,3.05,2.08,5.48.67,7.91.23ZM390.48,215.06c1.31.4,1.63-.78,2.2-1.42-.99-2.31-3.57-.26-4.82-1.8,1.12-1.62,2.94.7,4.15-.82-2.42-1.62-4.95-.03-7.64-.53,1.09,3.1,3.62,3.82,6.11,4.57ZM388.67,197.46c.95-.84,2.17-.06,3.44-.9-2.59-.77-4.99-.92-7.33-.75-3.97.3-8.01-.37-11.93,1.06-3.15,1.15-6.18-1.06-9.48-.88-1.55.09-3.45-.31-5.08.05-2.09.47-4.13.51-6.21.25-1-.13-2.01-.08-3-.17-5.66-.52-11.16.74-16.72,1.34-2.69.29-5.42-.17-8.11.48-.16.64-.42,1.37.48,1.57,1.32.3,2.71.91,4.02.44,1.89-.68,3.85-.3,5.76-.61,1.29-.21,2.77.05,4.38,1.27-4.46,1.52-8.78.1-13.04.99.63.74,1.61.42,1.64,1.35-2.22.23-4.43-.22-6.63-.3-4.14-.14-8.33,2.7-12.41-.1-.16-.1-.43-.07-.64-.07-5.3-.07-10.51,1-15.79,1.16-.07,0-.14.06-.2.08-4.14,1.31-8.37,2.37-12.7,2.27-3.21-.07-6.25,1.02-9.44.84-.71-.04-1.59-.12-2.05.74.67.69,1.35.42,2.17.34,2.11-.2,3.93-1.51,6.17-1.26,3.45.38,6.92.96,10.41.16.88-.2,1.86-.15,2.79.59-2.38,1.21-4.7,2.28-7.59,2.84,1.67,1.16,2.93-.03,4.27.27,5.24,1.17,10.54,1.14,15.81.12,1.78-.34,3.51-.68,5.33-.4.88.14,1.48-.06,2.13-.94.88-1.21,2-2.24,3.86-2.26,4.82-.03,9.52,1.2,14.32,1.11,2.05-.03,3.95.06,5.79,1.23.95.61,2.33.74,3.55.42,3.77-1,7.53.01,11.3-.03,5.18-.06,10.24,1.21,15.35,1.95,4.2.6,8.48.29,12.67,1.18,1.37.29,3.08.77,3.45-1.59.08-.52.9-.55,1.52-.46.49.08,1.02.59,1.61-.11-.78-.72-1.91-.99-2.59-.66-3.45,1.7-6.85-.3-10.32-.05-2.33.16-4.94-.38-7.45-.41-1.58-.03-3.16-.15-4.73-.35-1.46-.18-1.99-.98-1.13-2.6,1.25.75,2.25-.35,3.44-.47,5.98-.58,11.82-2.02,17.74-2.93,1.16-.18,2.35-.99,3.48.36.51.61,1.39.32,2.05-.22-.42-.67-1.37-.44-1.6-1.61,1.93,1.04,2.98-.5,4.16-1.33,1.35-.96,3.17.17,4.29-1.06-.02-1.03-1.23-1.11-1.21-1.94ZM390.41,132.44c-.74-1.55-1.35-2.7-3.24-1.62-1.63.95-3.46.97-5.19.28-.83-.33-1.44-.39-2.13.21-.78.67-1.82.71-2.77,1.16,4.38.96,8.76.52,13.33-.03ZM378.69,221.93c-1.66-1.56-2.94-2.42-4.68-2.61-1.91-.21-3.92-.03-5.7-1-1.94-1.07-4.02-1.54-6.21-1.52-2.04.02-4.13.22-6.1.2-3.06-.03-6.16-.03-9.24-.09-1.05-.03-1.69-.33-2.26-1.25-.82-1.32-6.42-1.21-7.2.09-.11.18.08.54.13.82-.13.11-.25.21-.37.31-.36-.06-.72-.08-1.06-.18-2.1-.62-4.27.93-3.66,2.92.61,2.02-.49,1.91-1.64,1.85-5.91-.29-11.84-.5-17.73-1.21-2.2-.26-4.36,1.06-6.6.66-1.26-.22-1.67.26-1.86,1.38,1.5.14,3.04-.12,4.42.61,1.03.54,1.97.62,3.22.27,2.84-.77,5.99-.13,7.86,1.78,1.51,1.53,2.83,2.34,4.66,2.08,3.88-.55,7.92-.18,11.62-1.89.48-.22,1.24-.3,1.66-.07.88.48,1.42.11,2.13-.31,3.73-2.26,7.84-1.63,11.78-1.04,1.01.15,2.11.68,2.97.17,1.87-1.08,3.75-.75,5.66-.51.51.06.94.16,1.44-.07,2.48-1.11,5.03-1.09,7.73-.88,2.8.21,5.67-.29,9.03-.51ZM327.84,82.64c-2.12-.23-4.15.72-6.3.23,2.18,1.29,4.25.68,6.3-.23ZM299.74,228.65c2.53.28,5.06.38,7.49-.88-13.07-.64-26.14-1.95-39.16.19.22,2.12,2.59.22,2.94,2.08-1.76.65-3.51,1.19-5.16,1.94-1.73.78-3.55,1.17-5.37,1.56-1.65.36-3.51,0-4.87,1.31,2.5-.15,4.94-.51,7.37-.94,5.99-1.05,12.13-1.26,18.21-1.85,1.16-.11,2.29-.43,3.54-.68-.53-.56-1.58-.12-1.46-1.47,3.43,1,6.9.41,10.55.58.05-1.01.66-1.33,1.67-1.63,1.45-.43,2.82-.37,4.25-.21ZM279.51,142.85c-.82-1.04-1.9-1.3-3.2-1.31-1.55-.01-2.93.67-4.41.93-5.51.96-11.02,2-16.51,3.06-.94.17-2.03.27-2.38,1.49,1.44.8,3.09.7,4.64,1.25-.08.38-.07.53-.14.65-.18.36-.58.33-.9.48-3.39,1.61-7.04.56-10.54,1.05-2.12.3-4.52-.55-6.34,1.32,1.7,1.81,3.71,2.58,5.65,1.55,1.87-1,3.84-1.01,5.73-1.57,5.73-1.71,11.55-2.93,17.42-4.07,3.83-.73,8.11-1.37,10.98-4.83ZM265.19,207.74c-1.91.82-3.72.5-5.63,1.67,2.08-.48,4.06.57,5.63-1.67ZM247.65,236.31c-2.7-.11-6.03.68-9.3,1.84,3.44-.3,6.79-1.01,9.3-1.84ZM229.28,239.71c-2.22-.64-3.72,1.77-6.26,1.12,2.86,2.3,4.28-.67,6.26-1.12ZM219.81,97.3c-4.31-1.57-15.16.21-17.39,3.02,3.37,1.15,6.24-.02,9.11-.79.88-.23,1.61-.54,2.62-.53,1.9.03,3.88-.29,5.66-1.7ZM182.65,103.58c-1.9-.51-3.53-1.63-5.72-1.08-9.55,2.38-19.14,4.6-28.74,6.81-5.92,1.36-12.06,1.6-17.87,3.53-.58.19-1.4.09-1.36,1.04.06,1.14.96.82,1.62.87,1.65.12,2.95-1.04,4.55-1.2,4.56-.46,8.92-1.95,13.54-2.41,6.18-.62,12.25-2.31,18.39-3.46,5.28-.98,10.59-1.81,15.59-4.1ZM163,114.82c-.03-.24-.06-.47-.09-.7-1.6.57-2.79-1.01-4.06-.82-5.23.78-10.6.72-15.66,2.66-1.86.71-3.82,1.52-5.87,1.22-3.36-.5-6.57-.44-9.78.93-1.13.48-2.39.85-3.68,1.09-4.79.92-9.55,1.98-14.29,3.14-3.83.93-7.64,2.84-11.8,1.47-.25-.09-.6-.01-.85.1-2.24,1.01-4.47,1.76-7,2.15-2.36.35-4.67,1.37-7.19,1.35-1.14,0-2.21.45-2.93,1.51-.55.82-1.17,1.76-2.44,1.11-.41-.21-.63.09-.92.3-3.53,2.51-7.57,3.42-11.81,3.33-1.52-.03-2.63.35-3.76,1.26.67.68,1.27,1.45,2.1,1.14,2.95-1.09,6.17,1.11,9.1-.87.6-.4,1.56-.6,2.28-1.04,1.86-1.14,3.89-1.7,5.99-1.07,2.22.66,4.38.71,6.59.14,7.19-1.84,14.45-3.36,21.52-5.77,4.93-1.68,10.32-1.87,15.16-4.07.32-.15.71-.22,1.06-.2,3.48.27,6.72-.61,9.88-1.96,1.23-.52,2.59-1.39,3.78-1.25,5.11.64,9.79-1.79,14.89-1.74,3.25.04,6.52-2.2,9.78-3.41ZM101.63,270.15c-.51,0-1.09.16-1.5-.03-3.18-1.45-6.08.38-8.51,1.52-3.43,1.59-7.1,2.66-10.38,4.59-.76.45-1.89.78-2.69.57-3.17-.83-4.9.93-6.48,3.17.63,1.32,2.46.43,2.96,1.41,1.38,2.71,2.96,1.19,4.58.47,2.16-.96,4.39-1.72,6.94-2.41-.05.12-.09.23-.14.33-.74,1.62-1.78,2.18-3.19,2.21-1.64.03-2.98,1.01-4.47,1.5-.75.25-.87.82-.54,1.57,3.39-1.37,7.05-1.69,10.09-4.02,2.98-2.28,6.57-3.47,10.96-3.82-2.9-2.1-4.5.32-6.42.68-2.14.41-4.07,1.66-6.47,2.06.02-.06.04-.11.07-.16.75-1.74,2.79-1.38,3.68-2.56-.71-.77-1.99-.44-2.3-1.58.4-.67,1.07-.72,1.44-.24,1.17,1.48,2.59.95,3.95.58,1.52-.42,3.02-.93,4.48-1.53,1.96-.82,3.88-1.76,3.94-4.31ZM52.21,213.14c.92.27,2.15-.11,1.98-1.55-.14-1.21-1-1.66-2.19-1.5-1.55.21-2.86.89-4.07,2.01.9,2.77,2.86.63,4.28,1.04ZM49.51,136.79c1.79-.24,2.73-1.48,3.9-2.34-1.43.35-2.84.78-3.9,2.34ZM51.21,203.52c-1.57-1.03-2.13-.02-2.66,1.1.74-.62,1.89.02,2.66-1.1Z"/>
  <path d="M553.74,90.95v2.37c-6.12.38-12.06-.71-17.94-1.76-3.05-.54-6.12-.53-9.06-.61-5.72-.16-11.17-1.26-16.59-2.73-1.75-.47-3.37.44-5.09-.08-2.47-.74-4.99-1.33-7.57-1.59-1.78-.18-3.54-.45-5.32-.57-8.09-.57-16.08-2.04-24.14-2.76-5.37-.47-10.66-1.46-16.03-1.8-.6-.04-1.2-.19-1.8-.51-.09-.05-.17-.1-.26-.15,1.68-.8,3.46-.72,5.21-.48,2.81.38,5.62.22,8.43.19.65-.01,1.45-.37,1.91-.1,4.08,2.41,8.53,1.43,12.87,1.55,3.95.11,7.79.64,11.6,1.9,3.85,1.28,7.98.67,12,.76.57.01,1.16-.05,1.72.05,9.7,1.63,19.51,2.45,29.19,4.02,6.16.99,12.54.16,18.49,2.43.75.28,1.52.15,2.38-.13Z"/>
  <path d="M552.95,86.81c1.25.32.87,1.22.72,2.25-4.18-1.14-8.28-1.61-12.36-2.06-.16-1.09.62-1.04,1.22-1.15,3.56-.64,7,.08,10.42.96Z"/>
  <path d="M553.1,80.42c1.12.15.75,1.1.34,2.17-2.31-1.33-4.74-1.26-6.94-2.12,2.21-.97,4.43-.34,6.6-.05Z"/>
  <path d="M533.66,214.9c1.19.51,3.19-.13,3.42,2.64-1.56-.66-2.5-1.32-3.69-1.22-.53.05-.99-.27-.86-.91.13-.62.57-.75,1.13-.51Z"/>
  <path d="M533.17,236.9c1.18.75,1.05,1.88.71,3.18-1.27.13-2.54.66-3.25-.54-.39-.65-.45-1.75.34-2.33.6-.43,1.44-.78,2.2-.31Z"/>
  <path d="M525.08,231.52c1.59-.35,2.15.05,1.92,1.69-.18,1.28-.25,2.56-1.03,3.69-2.18,3.13-4.81,3.22-7.43.17-3.09,3.05-7.03,3.93-11.16,4.7-4.59.85-9.22,1.47-13.83,2.08-3.41.45-7.03-.31-10.51-.84-1.47-.22-2.89-.25-4.26-.05l-.19-1.35c.53-.12,1.06-.34,1.5-.62,4.05-2.58,8.94-2.61,13.21-4.37,3.49-1.44,7.43-.97,10.74-3.07,2.16-1.36,4.76-.49,7.15-.7,4.64-.4,9.32-.34,13.89-1.33Z"/>
  <path class="cls-2" d="M522.05,115.83c-2.1.4-4.15.29-6.15-.58,2.15-.73,4.15-.06,6.15.58Z"/>
  <path class="cls-2" d="M512.54,199.55c.36,1.79-1.66,1.78-2.85,2.27-7.62,3.18-15.81,3.94-23.81,5.4-2.99.54-5.82.99-8.59,2.4-2.32,1.17-5.2.75-7.73,1.66-.73.26-1.41-.61-2.12-.94-.64-.3-1.24-.77-2.1-.41-.8,1.49.66,1.92,1.38,3.26-7.28,1.2-14.36,2.36-21.44,3.53-10.97,1.83-21.79,1.07-32.6-1.64.16-.31.21-.53.27-.53,3.18-.13,6.27-1.63,9.52-.73,1.67.47,2.85-.54,4.17-1.26-.21-.84-.83-1.06-1.47-.93-4.54.92-9.3.17-13.77,2-1.36.56-3.19.75-4.85.42-.78-.16-1.57-.27-1.79-1.16.22-.76.78-.94,1.36-.96,2.75-.11,5.37-.75,7.99-1.58,2.82-.89,5.84-.76,8.74-1.06,6.51-.67,12.98-1.67,19.52-2.09,3.97-.25,7.9-1.08,11.82-2.07,2.46-.62,4.81-1.58,7.26-2.09,4.91-1.01,9.9-1.16,14.85-.08.41.09,1.01.16,1.26-.05,1.97-1.78,4.33-1.18,6.63-1.46,2.78-.33,5.59-.12,8.36-.92,5.4-1.57,11.06-1.63,16.63-2.19,1.24-.12,3.09-.15,3.36,1.21Z"/>
  <path class="cls-2" d="M512.14,114.75c-1.69-.08-3.13,1.69-4.65-.38,1.62-1.12,3.06-1.52,4.65.38Z"/>
  <path d="M514.71,173.52c-2.33,1.39-4.64,1.36-7.19-.2,2.59-.82,4.88-.3,7.19.2Z"/>
  <path d="M509.48,105.84c-3.45,1.21-6.72,1.11-9.98.07.57-1.34,6.87-1.49,9.98-.07Z"/>
  <path d="M500.92,102.41c-1.91-.17-3.47.8-4.67-1.21-.55-.92-1.82-1.33-2.94-1.61-.48-.12-1.04-.06-.96-1.12,2.72.22,5.47-.47,8.25.37-.71,1.74-2.37.44-3.26,1.34.58,1.49,2.27,1.04,3.58,2.23Z"/>
  <path class="cls-2" d="M496,112.48c-3.05.18-6.05-.2-9.03-.94,3.05-.23,6.05.19,9.03.94Z"/>
  <path d="M486.64,98.63c1.27-.18,2.28-.49,3.58.27-1.46,1.13-2.47,1.31-3.58-.27Z"/>
  <path class="cls-2" d="M484.13,110.3c.37-.04.8.46,1.59.94-3.27.22-6.09.04-8.92-.08-6.17-.28-12.35-.71-18.52-.57-3.67.08-7.32-.49-10.97-.08-1.94.22-3.66-.7-5.36-1.15-5.16-1.39-10.45-.88-15.64-1.56-1.55-.2-3.13-.59-4.69-.48-2.41.17-4.86-.87-7.26.85-1.04.74-2.94.27-4.44.01-.7-.13-1.43-.28-2.13-.22-2.43.19-4.69-.02-6.76-1.55-1.14-.83-2.66-.87-4.03-1.35,2.37-.31,4.71-.26,7.05-.91,1.28-.35,2.97-.68,4.26.6.41.4,1.07.4,1.66.28,5.41-1.12,10.88-.89,16.36-.82,1.6.02,2.79,1.3,4.32,1.11,3.75-.47,7.56.43,11.27-.42.91-.21,1.3.43,1.96.56,2.72.51,5.53,1.51,8.15,1.43,4.53-.15,8.76,2.37,13.39.99,1.34-.39,3.04.14,4.56.81,1.81.81,3.86.54,5.82.67,2.74.19,5.45,1.26,8.33.94Z"/>
  <path class="cls-2" d="M479.68,217.35c-.72,1.1-1.29,1.71-2.38.97-1.49-1.02-2.95-.79-4.32.2-.53-.43-.84-1.08-.41-1.33,2.32-1.33,4.6-.5,7.11.16Z"/>
  <path d="M478.02,98.45c.35.01.71.12.98.73-1.26,1.04-2.85.48-4.23.6-1.63.14-3.3-.13-4.96-.16-.94-.02-1.89-.32-2.57.92-.51.94-1.6.26-2.34-.07-1.15-.51-2.05-.64-3.13.32-1.04.94-2.45,1.26-3.84.65-3.04-1.33-6.13-2.48-9.43-2.95-.41-.06-.8-.27-1.05-.85,3.49-.24,6.85-1.24,9.99.96.76.53,1.83.32,2.75.15,5.93-1.14,11.89-.41,17.83-.3Z"/>
  <path d="M459.19,183.5c5.71-.35,11.4-1.19,17.28-.24-1.75,2.41-14.19,2.59-17.28.24Z"/>
  <path class="cls-2" d="M468.67,133.36c.03,1.45-1.2,1.38-2.16,1.57-1.4.29-2.78.71-4.25.55-.41-.04-.93.04-1.23.27-2.85,2.28-5.88,1.9-9.21,1.18-3.97-.85-7.64-3.08-11.9-2.67-.38.04-.88-.18-1.17-.45-2.01-1.82-4.4-1.87-6.9-1.64-3.7.34-7.31.37-10.8-1.5-1.53-.82-3.71.2-5.35-.61-2.26-1.13-4.5.93-7.22-.37,1.76-.82,3.11-1.15,4.52-1.02,4.07.37,8.17.87,12.2.43,4.93-.53,9.84-.85,14.7.04,3.54.65,7.1-.02,10.59.69,3.41.7,7.03.41,10.25,1.86,1.96.89,3.81-.41,5.69.19.91.29,2.2.04,2.24,1.48Z"/>
  <path d="M454.35,86.51c1.14-.73,2.22-1.1,3.16.62-1.21-.24-2.18-.43-3.16-.62Z"/>
  <path d="M451.6,85.97c-1.96.7-3.23.17-4.49-.52,1.33.01,2.69-.41,4.49.52Z"/>
  <path class="cls-2" d="M450.12,224.98c-1.42,1.04-2.88,1.1-4.64,0,1.69-2.64,3.15-.34,4.64,0Z"/>
  <path class="cls-2" d="M444.86,199.96c1.61-.23,3.37-2.03,4.64.65-1.51-.54-3.14-.1-4.64-.65Z"/>
  <path class="cls-2" d="M443.82,200.6c.9.58,1.56,1.4.49,2.16-3.8-1.22-7.49-.94-11.11-1.33-.17,1.08.53,1.02.89,1.28.34.24.8.39.75.8-3.24,1.49-6.19.5-9.23-.69-2.49-.97-5.2-.42-7.83-.33-1.24.05-2.65.54-3.66-.89,3.45.26,6.71-2.09,10.26-.26,2.03,1.06,4.12.25,5.74-1.32,1.03-1.01,1.89-1.11,3.21-.38,2.11,1.18,4.48.82,6.75.43,1.35-.23,2.62-.19,3.74.53Z"/>
  <path class="cls-1" d="M437.08,242.28v.02l-.03-.03s.02.01.03.01Z"/>
  <path class="cls-2" d="M437.08,242.3s-.03,0-.04.01c0-.01,0-.03,0-.04l.03.03Z"/>
  <path class="cls-2" d="M437.04,242.31c-.31,1.09-.75,1.72-2.17,1.3-1.45-.43-2.92.72-5.04.22,2.61-1.14,4.94-1.23,7.21-1.52Z"/>
  <path class="cls-2" d="M425.98,109.77c2.48-.74,4.91.81,7.4-.29-2.46,2.08-4.94-.31-7.4.29Z"/>
  <path class="cls-2" d="M431.68,182.31c.39.55.1,1.09.06,1.81-.71-.31-1.25-.55-1.83-.8.41-.92,1.1-.94,1.77-1.01Z"/>
  <path class="cls-2" d="M431.63,233.22c-1.36,1.92-3.22,2.36-4.81,2.69-3.72.76-7.32,2.06-11.14,2.33-1.23.09-2.14-1-3.7-.77,2.39-2.12-.08-2.7-1-4.18,6.96-.13,13.66-.79,20.65-.07Z"/>
  <path class="cls-2" d="M424.67,193.02c-1.96,1.83-4.55.97-7.52.5,1.38-1.84,2.76-.99,4.04-.83,1.32.15,2.66.25,3.48.33Z"/>
  <path class="cls-2" d="M405.46,241.24c.35,1.07-.87,1.28-1.49,1.82-1.52,1.34-3.31.47-4.96.65-3.25.34-5.44,3.47-8.96,3.14.96.76,1.92,1.09,3.03,1.06l.08,2.92c-2.3.15-4.39,1.43-6.64,1.39-3.49-.07-7.01-.42-10.47-.97-2.5-.4-4.86-.93-7.53-.84-7.95.3-15.93-.07-23.9-.18-.63-.01-1.25.09-1.74-.57-.95-1.32-1.38-1.9-2.1-1.9l-.14-2.58c.91-.05,1.83-.11,2.75-.17,2.75-.18,5.91-.78,8.11,2.01.46.6,1.46.31,1.6-.32.7-3.11,2.48-1.99,4.23-1.22,1.16.51,2.35,1.11,3.53.31.33-.95-1.02-.89-.95-1.09.49-1.36,1.7-.68,1.93-1.97-2.96-.71-6.07.05-9-.83-2.97-.89-6.09-1.31-8.92-2.73.55-1.04,1.2-1.21,2.2-.87,1.88.62,3.8,1.39,5.66-.15.26-.21.68-.32.97.01,1.12,1.26,2.69,1.17,4.02.97,4.5-.66,9.04-.67,13.56-.97,1.8-.12,3.88-.74,5.43,1.07,1.2,1.4,9.4,3.13,11.07,2.4.33-.15.67-.32.91-.57.64-.66,1.36-.63,2.19-.48,4.41.78,8.83.94,13.27.1.8-.15,1.91-.52,2.26.56Z"/>
  <path d="M395.73,251.63c.13,1.09-.74.89-1.44,1.06-11.36,2.69-22.98,3.4-34.51,4.77-3.08.36-3.34.05-3.23-3.93-4.09-.84-8.03-2-12.31-1.53-5.11.57-10.27.86-15.39,1.3-4.74.41-9.55.29-14.26,1.21-2.08.41-4.31.36-6.42.13-3.49-.37-6.84.67-10.29.67-3.03.01-5.91-.85-9.2-.74.99-1.23,2.01-1.39,3.06-1.01,3.31,1.19,6.66.34,9.93.07,4.5-.37,9-.55,13.5-.7.35-.01.75.16,1.06.05,4.52-1.64,9.27-.74,13.89-1.27,3.17-.37,6.32-.93,9.47-1.41-.1-1.13-1.21-.85-1.53-1.49,1.37-.67,2.14-1.05,2.72-1.05.72,0,1.15.58,2.1,1.9.49.66,1.11.56,1.74.57,7.97.11,15.95.48,23.9.18,2.67-.09,5.03.44,7.53.84,3.46.55,6.98.9,10.47.97,2.25.04,4.34-1.24,6.64-1.39.3-.02.61-.02.93,0,.75.06,1.51-.2,1.64.8Z"/>
  <path class="cls-2" d="M388.53,151.23c3.03.05,5.45-1.3,7.91.23-2.43.44-4.86,1.85-7.91-.23Z"/>
  <path class="cls-2" d="M392.68,213.64c-.57.64-.89,1.82-2.2,1.42-2.49-.75-5.02-1.47-6.11-4.57,2.69.5,5.22-1.09,7.64.53-1.21,1.52-3.03-.8-4.15.82,1.25,1.54,3.83-.51,4.82,1.8Z"/>
  <path class="cls-2" d="M392.11,196.56c-1.27.84-2.49.06-3.44.9-.02.83,1.19.91,1.21,1.94-1.12,1.23-2.94.1-4.29,1.06-1.18.83-2.23,2.37-4.16,1.33.23,1.17,1.18.94,1.6,1.61-.66.54-1.54.83-2.05.22-1.13-1.35-2.32-.54-3.48-.36-5.92.91-11.76,2.35-17.74,2.93-1.19.12-2.19,1.22-3.44.47-.86,1.62-.33,2.42,1.13,2.6,1.57.2,3.15.32,4.73.35,2.51.03,5.12.57,7.45.41,3.47-.25,6.87,1.75,10.32.05.68-.33,1.81-.06,2.59.66-.59.7-1.12.19-1.61.11-.62-.09-1.44-.06-1.52.46-.37,2.36-2.08,1.88-3.45,1.59-4.19-.89-8.47-.58-12.67-1.18-5.11-.74-10.17-2.01-15.35-1.95-3.77.04-7.53-.97-11.3.03-1.22.32-2.6.19-3.55-.42-1.84-1.17-3.74-1.26-5.79-1.23-4.8.09-9.5-1.14-14.32-1.11-1.86.02-2.98,1.05-3.86,2.26-.65.88-1.25,1.08-2.13.94-1.82-.28-3.55.06-5.33.4-5.27,1.02-10.57,1.05-15.81-.12-1.34-.3-2.6.89-4.27-.27,2.89-.56,5.21-1.63,7.59-2.84-.93-.74-1.91-.79-2.79-.59-3.49.8-6.96.22-10.41-.16-2.24-.25-4.06,1.06-6.17,1.26-.82.08-1.5.35-2.17-.34.46-.86,1.34-.78,2.05-.74,3.19.18,6.23-.91,9.44-.84,4.33.1,8.56-.96,12.7-2.27.06-.02.13-.08.2-.08,5.28-.16,10.49-1.23,15.79-1.16.21,0,.48-.03.64.07,4.08,2.8,8.27-.04,12.41.1,2.2.08,4.41.53,6.63.3-.03-.93-1.01-.61-1.64-1.35,4.26-.89,8.58.53,13.04-.99-1.61-1.22-3.09-1.48-4.38-1.27-1.91.31-3.87-.07-5.76.61-1.31.47-2.7-.14-4.02-.44-.9-.2-.64-.93-.48-1.57,2.69-.65,5.42-.19,8.11-.48,5.56-.6,11.06-1.86,16.72-1.34.99.09,2,.04,3,.17,2.08.26,4.12.22,6.21-.25,1.63-.36,3.53.04,5.08-.05,3.3-.18,6.33,2.03,9.48.88,3.92-1.43,7.96-.76,11.93-1.06,2.34-.17,4.74-.02,7.33.75ZM354.21,206.22c-1.54-.66-2.85-.81-4.54.16,1.8.85,3.12,1.11,4.54-.16Z"/>
  <path class="cls-2" d="M387.17,130.82c1.89-1.08,2.5.07,3.24,1.62-4.57.55-8.95.99-13.33.03.95-.45,1.99-.49,2.77-1.16.69-.6,1.3-.54,2.13-.21,1.73.69,3.56.67,5.19-.28Z"/>
  <path class="cls-2" d="M374.01,219.32c1.74.19,3.02,1.05,4.68,2.61-3.36.22-6.23.72-9.03.51-2.7-.21-5.25-.23-7.73.88-.5.23-.93.13-1.44.07-1.91-.24-3.79-.57-5.66.51-.86.51-1.96-.02-2.97-.17-3.94-.59-8.05-1.22-11.78,1.04-.71.42-1.25.79-2.13.31-.42-.23-1.18-.15-1.66.07-3.7,1.71-7.74,1.34-11.62,1.89-1.83.26-3.15-.55-4.66-2.08-1.87-1.91-5.02-2.55-7.86-1.78-1.25.35-2.19.27-3.22-.27-1.38-.73-2.92-.47-4.42-.61.19-1.12.6-1.6,1.86-1.38,2.24.4,4.4-.92,6.6-.66,5.89.71,11.82.92,17.73,1.21,1.15.06,2.25.17,1.64-1.85-.61-1.99,1.56-3.54,3.66-2.92.34.1.7.12,1.06.18.1.08.25.25.31.23.27-.13.17-.34.06-.54-.05-.28-.24-.64-.13-.82.78-1.3,6.38-1.41,7.2-.09.57.92,1.21,1.22,2.26,1.25,3.08.06,6.18.06,9.24.09,1.97.02,4.06-.18,6.1-.2,2.19-.02,4.27.45,6.21,1.52,1.78.97,3.79.79,5.7,1Z"/>
  <path d="M349.67,206.38c1.69-.97,3-.82,4.54-.16-1.42,1.27-2.74,1.01-4.54.16Z"/>
  <path class="cls-1" d="M337.43,216.57c.11.2.21.41-.06.54-.06.02-.21-.15-.31-.23.12-.1.24-.2.37-.31Z"/>
  <path d="M332.16,247.6c-1.2.72-2.04,1.13-2.71-.32.89-.59,1.6-.15,2.71.32Z"/>
  <path class="cls-2" d="M321.54,82.87c2.15.49,4.18-.46,6.3-.23-2.05.91-4.12,1.52-6.3.23Z"/>
  <path d="M324.56,247.96h-10.07c2.05-1.96,7.87-1.72,10.07,0Z"/>
  <path class="cls-2" d="M320.65,100.66l.18,2.82c-.7.03-1.38.09-2.07.18-4.44.6-8.9.51-13.31.63-8.24.22-16.43,1.16-24.63,1.66-7.13.44-14.29,1.29-21.43,1.98-2.4.23-4.85.76-7.2.5-2.94-.33-5.72-.21-8.51.67-.54.18-1.18.51-1.65.36-2.31-.75-4.4.14-6.54.71-.48.12-1.1.49-1.43.32-2.25-1.18-4.64-.38-6.86-.31-4.24.14-8.56.19-12.69,1.74-1.04.4-2.31,1.3-3.25,1.05-2.35-.65-4.38-.35-6.64.45-4.24,1.51-8.87.55-13.22,1.71-.9.24-2,.05-2.89-.54.19-1.23.88-1.47,2.06-1.71,3.06-.62,6.3-.76,9.13-2.2,4.13-2.1,8.74-2.17,13.1-3.27,3.29-.83,6.84-.56,10.26-.9,2.57-.26,5.22-.38,7.65-1.15,5.36-1.7,10.84-.97,16.22-1.02,5.71-.06,11.33-.15,16.91-1.45,1.83-.43,3.76-1.11,5.65.11.6.38,1.38.2,2.1-.04,3.87-1.28,7.94-1.35,11.93-1.48,4.16-.14,8.31-.39,12.46-.63,4.36-.24,8.7-.59,13.08-.05,2.63.33,5.33.25,7.99.09,1.2-.07,2.4-.15,3.6-.23Z"/>
  <path d="M320.13,260.57c1.02-.46,2.48.92,3.87,1.96-3.17.67-5.96.93-8.74.93-6.68,0-13.34,1-20,.41-2.53-.23-5.03-.92-7.62-1.06-2.75-.14-5.48-.06-8.16.48-3.26.66-6.56.68-9.84.99-3.19.31-6.4.71-9.51,1.47-3.79.93-7.68.8-11.49,1.55-1.73.34-3.42,1.03-5.25,1.01-1.01-.01-1.98.04-3.49-.48,2.34-.46,4.17-.89,6.03-1.16,4.43-.67,8.94-.97,13.31-1.94,6.77-1.51,13.71-1.6,20.52-2.78,2.42-.42,4.93-.24,7.4-.37,1.01-.05,2.1.02,2.99-.35,2.33-.97,4.49-.39,6.72.28,3.05.91,6.13,1.48,9.29.48.64-.2,1.51-.06,1.45-1.18-.04-.71.57-.71,1.07-.74.47-.03.77.02.83.65.13,1.38,1.34,1.33,2.14,1.1,2.76-.8,5.7-.02,8.48-1.25Z"/>
  <path d="M312.55,259.6c2.11-.79,4.12-.4,6.04-.55-1.92.32-3.71,2.06-6.04.55Z"/>
  <path class="cls-2" d="M307.23,227.77c-2.43,1.26-4.96,1.16-7.49.88-1.43-.16-2.8-.22-4.25.21-1.01.3-1.62.62-1.67,1.63-3.65-.17-7.12.42-10.55-.58-.12,1.35.93.91,1.46,1.47-1.25.25-2.38.57-3.54.68-6.08.59-12.22.8-18.21,1.85-2.43.43-4.87.79-7.37.94,1.36-1.31,3.22-.95,4.87-1.31,1.82-.39,3.64-.78,5.37-1.56,1.65-.75,3.4-1.29,5.16-1.94-.35-1.86-2.72.04-2.94-2.08,13.02-2.14,26.09-.83,39.16-.19ZM277.29,230.41c1.6.05,3.24.7,4.74-.27-1.6,0-3.25-.96-4.74.27Z"/>
  <path d="M282.03,230.14c-1.5.97-3.14.32-4.74.27,1.49-1.23,3.14-.27,4.74-.27Z"/>
  <path class="cls-2" d="M276.31,141.54c1.3.01,2.38.27,3.2,1.31-2.87,3.46-7.15,4.1-10.98,4.83-5.87,1.14-11.69,2.36-17.42,4.07-1.89.56-3.86.57-5.73,1.57-1.94,1.03-3.95.26-5.65-1.55,1.82-1.87,4.22-1.02,6.34-1.32,3.5-.49,7.15.56,10.54-1.05.32-.15.72-.12.9-.48.07-.12.06-.27.14-.65-1.55-.55-3.2-.45-4.64-1.25.35-1.22,1.44-1.32,2.38-1.49,5.49-1.06,11-2.1,16.51-3.06,1.48-.26,2.86-.94,4.41-.93Z"/>
  <path class="cls-2" d="M259.56,209.41c1.91-1.17,3.72-.85,5.63-1.67-1.57,2.24-3.55,1.19-5.63,1.67Z"/>
  <path class="cls-2" d="M238.35,238.15c3.27-1.16,6.6-1.95,9.3-1.84-2.51.83-5.86,1.54-9.3,1.84Z"/>
  <path d="M235.89,268c1.05-.42,2.26.03,3.47-.11-1.8,1.62-4.15,1.06-6.77,1.82,1.07-1.63,2.35-1.32,3.3-1.71Z"/>
  <path class="cls-2" d="M223.02,240.83c2.54.65,4.04-1.76,6.26-1.12-1.98.45-3.4,3.42-6.26,1.12Z"/>
  <path class="cls-2" d="M202.42,100.32c2.23-2.81,13.08-4.59,17.39-3.02-1.78,1.41-3.76,1.73-5.66,1.7-1.01-.01-1.74.3-2.62.53-2.87.77-5.74,1.94-9.11.79Z"/>
  <path d="M213.83,247.17q-1.36.45-3.4-.33c1.14-.31,2.37-1.18,3.4.33Z"/>
  <path d="M207.17,250.68c-1.45,1.22-2.66.47-3.85-.25,1.24-.11,2.53-.75,3.85.25Z"/>
  <path d="M201.55,250.35c-2.68,1.12-5.29-1-7.88.18,1.54-1.81,4.89-1.83,7.88-.18Z"/>
  <path class="cls-2" d="M176.93,102.5c2.19-.55,3.82.57,5.72,1.08-5,2.29-10.31,3.12-15.59,4.1-6.14,1.15-12.21,2.84-18.39,3.46-4.62.46-8.98,1.95-13.54,2.41-1.6.16-2.9,1.32-4.55,1.2-.66-.05-1.56.27-1.62-.87-.04-.95.78-.85,1.36-1.04,5.81-1.93,11.95-2.17,17.87-3.53,9.6-2.21,19.19-4.43,28.74-6.81Z"/>
  <path d="M172.8,253.57c1.98-.98,3.78-2.15,6.01-.84-1.62,1.87-3.56,2.16-6.01.84Z"/>
  <path d="M170.74,253.43c.4-.01.74.42.68,1.27-2.68.45-5.34.9-8.01,1.32-.58.1-1.01-.17-1.11-.76-.1-.62.12-1.27.78-1.33,2.55-.23,5.11-.39,7.66-.5Z"/>
  <path class="cls-2" d="M162.91,114.12c.03.23.06.46.09.7-3.26,1.21-6.53,3.45-9.78,3.41-5.1-.05-9.78,2.38-14.89,1.74-1.19-.14-2.55.73-3.78,1.25-3.16,1.35-6.4,2.23-9.88,1.96-.35-.02-.74.05-1.06.2-4.84,2.2-10.23,2.39-15.16,4.07-7.07,2.41-14.33,3.93-21.52,5.77-2.21.57-4.37.52-6.59-.14-2.1-.63-4.13-.07-5.99,1.07-.72.44-1.68.64-2.28,1.04-2.93,1.98-6.15-.22-9.1.87-.83.31-1.43-.46-2.1-1.14,1.13-.91,2.24-1.29,3.76-1.26,4.24.09,8.28-.82,11.81-3.33.29-.21.51-.51.92-.3,1.27.65,1.89-.29,2.44-1.11.72-1.06,1.79-1.52,2.93-1.51,2.52.02,4.83-1,7.19-1.35,2.53-.39,4.76-1.14,7-2.15.25-.11.6-.19.85-.1,4.16,1.37,7.97-.54,11.8-1.47,4.74-1.16,9.5-2.22,14.29-3.14,1.29-.24,2.55-.61,3.68-1.09,3.21-1.37,6.42-1.43,9.78-.93,2.05.3,4.01-.51,5.87-1.22,5.06-1.94,10.43-1.88,15.66-2.66,1.27-.19,2.46,1.39,4.06.82Z"/>
  <path d="M121.31,279.25c-4.06.54-8.12.96-12.05-.78,4.06-.54,8.08-.54,12.05.78Z"/>
  <path class="cls-2" d="M100.13,270.12c.41.19.99.03,1.5.03-.06,2.55-1.98,3.49-3.94,4.31-1.46.6-2.96,1.11-4.48,1.53-1.36.37-2.78.9-3.95-.58-.37-.48-1.04-.43-1.44.24.31,1.14,1.59.81,2.3,1.58-.89,1.18-2.93.82-3.68,2.56l-.03-.02c.05-.1.09-.21.14-.33-2.55.69-4.78,1.45-6.94,2.41-1.62.72-3.2,2.24-4.58-.47-.5-.98-2.33-.09-2.96-1.41,1.58-2.24,3.31-4,6.48-3.17.8.21,1.93-.12,2.69-.57,3.28-1.93,6.95-3,10.38-4.59,2.43-1.14,5.33-2.97,8.51-1.52Z"/>
  <path class="cls-2" d="M92.84,277.89c1.92-.36,3.52-2.78,6.42-.68-4.39.35-7.98,1.54-10.96,3.82-3.04,2.33-6.7,2.65-10.09,4.02-.33-.75-.21-1.32.54-1.57,1.49-.49,2.83-1.47,4.47-1.5,1.41-.03,2.45-.59,3.19-2.21l.03.02s-.05.1-.07.16c2.4-.4,4.33-1.65,6.47-2.06Z"/>
  <path class="cls-2" d="M54.19,211.59c.17,1.44-1.06,1.82-1.98,1.55-1.42-.41-3.38,1.73-4.28-1.04,1.21-1.12,2.52-1.8,4.07-2.01,1.19-.16,2.05.29,2.19,1.5Z"/>
  <path class="cls-2" d="M53.41,134.45c-1.17.86-2.11,2.1-3.9,2.34,1.06-1.56,2.47-1.99,3.9-2.34Z"/>
  <path class="cls-2" d="M48.55,204.62c.53-1.12,1.09-2.13,2.66-1.1-.77,1.12-1.92.48-2.66,1.1Z"/>
  <path class="cls-2" d="M24.23,149.51c1.96.08,3.83-1.01,5.91-.15-9.77,5.33-19.74,10.19-29.89,14.7v-9.94c3.66-1.22,7.24-2.69,11.01-3.56.49-.11,1.02-.45,1.45-.34,3.93,1,7.67-.86,11.52-.71Z"/>
</svg>