<?xml version="1.0" encoding="UTF-8"?>
<svg id="Layer_1" xmlns="http://www.w3.org/2000/svg" viewBox="0 0 315.15 336.68">
  <defs>
    <style>
      .cls-1 {
        fill: #fff;
      }

      .cls-2 {
        fill: none;
      }

      .cls-3 {
        fill: #56b949;
      }

      .cls-4 {
        fill: #010101;
      }
    </style>
  </defs>
  <path class="cls-2" d="M202.72,280.87c-.53.01-1.06,0-1.59,0,.54,0,1.07.01,1.59,0Z"/>
  <path class="cls-2" d="M88.68,267.06c-.7,0-1.42.39-2.12.57.37.14.72.25,1.06.34-.34-.09-.69-.2-1.06-.34.69-.19,1.42-.57,2.12-.57Z"/>
  <path class="cls-2" d="M205.6,282.38c.3,0,.63.09.98.25-.35-.17-.67-.26-.98-.25Z"/>
  <path class="cls-2" d="M111.89,291.11c-.47.22-.93.59-1.37,1.25h0c.43-.66.9-1.03,1.37-1.25Z"/>
  <path class="cls-2" d="M80.28,123.38c-4.58,1.63-9.59.59-14.29,1.85-.24.06-.5.1-.76.11.27,0,.52-.04.77-.11,4.7-1.25,9.71-.22,14.29-1.85,1.53-.54,2.95-.87,4.43-.87-1.48,0-2.91.33-4.44.87Z"/>
  <path class="cls-2" d="M144.07,267.92c-1.87-.01-3.76-.33-5.63-.31,1.87-.02,3.76.3,5.63.31Z"/>
  <path class="cls-2" d="M114.09,290.51c-.51.21-1.12.23-1.74.42.62-.19,1.22-.21,1.74-.42h0Z"/>
  <path class="cls-2" d="M164.5,283.68c.67-.03,1.34-.04,2.01-.04-.67,0-1.34.02-2.01.04Z"/>
  <path class="cls-2" d="M98.32,266.48c-.65-.48-1.33-.61-2.02-.6.69-.02,1.37.12,2.02.6,0,0,0,0,0,0Z"/>
  <path class="cls-2" d="M92.85,266.33c-.44,0-.89-.05-1.34-.21-1.4-.48-2.9-1.04-4.47-1,1.57-.03,3.06.53,4.46,1,.45.15.9.21,1.35.21Z"/>
  <path class="cls-2" d="M108.9,267.33c-3.39.08-6.46-1.48-9.61-2.71,0,0,0,0,0,0,3.14,1.24,6.22,2.8,9.61,2.71Z"/>
  <path class="cls-2" d="M119.43,267.47c-2.55.09-5.11-.1-7.66-.39-.15-.02-.31-.13-.45-.1,0,0,0,0,0,0,.14-.03.3.08.45.1,2.55.29,5.12.48,7.67.39Z"/>
  <path class="cls-2" d="M135.25,267.95c-.27,0-.55-.04-.82-.09-2.58-.51-5.16-.79-7.76-.81,2.6.02,5.17.3,7.75.81.27.05.55.09.83.09Z"/>
  <path class="cls-2" d="M0,287.92h0c1.34-.26,2.71-.43,4.11-.39-1.4-.04-2.77.13-4.11.39Z"/>
  <path class="cls-2" d="M51.06,273.47c-1.27-.29-2.43.1-3.61.65,1.17-.55,2.34-.94,3.61-.65Z"/>
  <path class="cls-2" d="M79.52,267.95c-.12,1.06-1.78.89-1.14,2.3,0,0,0,0,0,0-.64-1.41,1.02-1.24,1.14-2.3-1.6-.99-3.39-1.3-5.13-1.22,1.74-.09,3.52.22,5.12,1.22Z"/>
  <path class="cls-2" d="M4.94,288.93c.22,0,.45,0,.67,0-.23,0-.45,0-.67,0,0,0,0,0,0,0Z"/>
  <path class="cls-2" d="M51.06,273.47c.42.1.86.27,1.31.53h0c-.45-.27-.89-.44-1.31-.53Z"/>
  <path class="cls-2" d="M299.98,232.34c1.38.06,2.77-.16,3.87-.62,3.67-1.5,7.51-1.4,11.3-1.69h0c-3.79.3-7.63.19-11.3,1.69-1.1.45-2.49.68-3.87.62Z"/>
  <path class="cls-2" d="M300.69,140.97h0c1.43-.66,2.6-1.03,3.75-1.11-1.14.08-2.32.45-3.75,1.11Z"/>
  <path class="cls-2" d="M312.29,208.72c-.73,0-1.48.26-2.22,1.26,1.2.19,2.35.44,3.42.57-1.07-.13-2.22-.38-3.42-.57.75-.99,1.49-1.26,2.22-1.26Z"/>
  <path class="cls-2" d="M246.04,106.74c4.18-.21,8.5-.19,12.49-1.28,5.47-1.48,11.06-1.11,16.53-2.1,1.47-.27,2.9-1.12,4.53-.5,1.44.56,2.88.28,4.29-.36,1.37-.61,2.8-1.15,3.97.48.37.5.95.41,1.5.16,2.34-1.1,4.81-1.07,7.32-.94,1.47.08,2.92-.02,4.13-1.22,0,0,0,0,0,0-1.21,1.19-2.65,1.29-4.12,1.21-2.51-.13-4.98-.16-7.32.94-.55.25-1.14.34-1.5-.16-1.17-1.62-2.59-1.08-3.97-.48-1.42.64-2.85.92-4.29.36-1.63-.63-3.06.23-4.53.5-5.47.98-11.06.62-16.53,2.1-3.99,1.08-8.3,1.07-12.49,1.28-13.46.68-26.87,1.97-40.31,2.85,0,0,0,0-.01,0h0c13.44-.88,26.85-2.16,40.31-2.84Z"/>
  <path class="cls-2" d="M206.58,282.63c.35.17.71.4,1.08.67-.37-.27-.73-.5-1.08-.67Z"/>
  <path class="cls-2" d="M315.15,217.7h0s-.06,0-.09,0c.03,0,.06,0,.09,0Z"/>
  <path class="cls-2" d="M307.05,117.7c-.42.3-.97.42-1.59.43.61-.01,1.16-.13,1.59-.43,1.3-.93,2.61-1.11,3.92-1.09-1.31-.03-2.62.16-3.92,1.09Z"/>
  <path class="cls-2" d="M150.91,112.3s.03,0,.05.01c-.02,0-.03,0-.05-.01Z"/>
  <path class="cls-2" d="M314.36,217.68c.23,0,.46,0,.69,0-.23-.01-.46-.01-.69,0Z"/>
  <path class="cls-2" d="M299.95,117.48c-.66.05-1.3.08-1.94.06.63.02,1.28,0,1.94-.06.19-.02.38-.02.57,0-.19,0-.38,0-.57,0Z"/>
  <path class="cls-2" d="M305.45,118.13c-.58.01-1.2-.07-1.82-.17.62.1,1.24.18,1.82.17Z"/>
  <path class="cls-2" d="M301.82,114.38c-.49.03-.98-.05-1.31-.37-.7-.69-1.5-.95-2.31-.99.8.04,1.61.29,2.31.99.33.32.82.41,1.31.37Z"/>
  <path class="cls-2" d="M315.05,210.65c-.5.01-1.02-.02-1.56-.09.54.07,1.06.1,1.56.09Z"/>
  <path class="cls-2" d="M315.15,257.12h0c-.7.18-1.4.35-2.11.51.7-.16,1.41-.33,2.11-.51Z"/>
  <path class="cls-2" d="M126.03,113.56s0,0,0,0c-2.55.02-5.11-.11-7.68-.12,2.57,0,5.13.15,7.67.12Z"/>
  <path class="cls-2" d="M313.04,257.62c-1,.22-2.01.41-3.03.55,1.02-.14,2.03-.33,3.03-.55Z"/>
  <path class="cls-2" d="M178.28,286.04c7.2.64,14.4-.43,21.62-.44-7.22,0-14.42,1.08-21.62.44Z"/>
  <path class="cls-2" d="M209.35,284.6c-.38-.28-.76-.59-1.13-.88.38.29.76.59,1.13.88Z"/>
  <path class="cls-2" d="M150.47,112.13s-.03-.01-.04-.02c-.77-.5-1.55-.7-2.32-.74.77.04,1.54.25,2.31.74.02,0,.03.01.05.02Z"/>
  <path class="cls-2" d="M298.05,232.06c.18.04.37.08.56.12.39.08.8.12,1.21.14-.41-.03-.81-.07-1.21-.14-.19-.04-.37-.08-.56-.12Z"/>
  <path class="cls-2" d="M297.57,231.91c-.15-.06-.3-.13-.42-.23.13.1.27.17.42.23Z"/>
  <path class="cls-2" d="M313.21,231.62c.64-.01,1.29.03,1.94.15h0c-.65-.12-1.3-.16-1.94-.15Z"/>
  <path class="cls-2" d="M314.41,116.8c.16,0,.33,0,.49-.02h0c-.16.01-.33.02-.49.02Z"/>
  <path class="cls-2" d="M197.51,109.98c-1.44,0-2.88-.07-4.3-.25-1.78-.22-3.55-.3-5.32-.31,1.77,0,3.54.09,5.31.31,1.42.18,2.87.25,4.31.25Z"/>
  <path class="cls-2" d="M196.43,76.43c1.09-.17,2.21-.22,3.32-.22-1.11,0-2.23.05-3.33.22-8.24,1.27-16.4,2.95-24.78,2.83,8.39.12,16.55-1.56,24.79-2.83Z"/>
  <path class="cls-2" d="M34.83,115.32c-5.18,1.22-10.37,2.42-15.56,3.61-1.6.37-3.22.66-4.84.92,1.62-.26,3.24-.56,4.84-.92,5.19-1.19,10.38-2.39,15.56-3.61Z"/>
  <path class="cls-2" d="M4.72,121.48c3.21-.68,6.47-1.1,9.72-1.62-3.24.53-6.5.94-9.72,1.62Z"/>
  <path class="cls-2" d="M15.41,125.61c1.56-.48,3.13-.84,4.72-1.09-1.59.26-3.17.61-4.72,1.09Z"/>
  <path class="cls-2" d="M.23,124.82c-.07,0-.15,0-.23,0h0c.08,0,.16,0,.23,0h0Z"/>
  <path class="cls-2" d="M29.66,95.39c.31-.13.61-.24.9-.27-.29.03-.59.14-.91.27-2.29.92-4.74,1.79-7.14,1.68h0c2.4.12,4.85-.76,7.15-1.68Z"/>
  <path class="cls-2" d="M21,97.05c-3.49.14-6.64,1.35-9.91,2.46-3.68,1.24-7.07,3.52-11.09,3.72h0c4.02-.19,7.41-2.47,11.1-3.72,3.26-1.11,6.41-2.32,9.9-2.46Z"/>
  <path class="cls-2" d="M31.31,126.65c-.66.31-1.32.61-1.98.87.66-.27,1.32-.57,1.98-.87Z"/>
  <path class="cls-2" d="M35.28,124.89c-.44.16-.88.34-1.32.54.44-.19.88-.37,1.32-.54Z"/>
  <path class="cls-2" d="M18.65,129.33c-2.32.49-4.62,1.06-6.97,1.21,2.35-.15,4.65-.72,6.97-1.21Z"/>
  <path class="cls-2" d="M28.01,128.01c-.44.14-.88.27-1.32.36.44-.09.88-.22,1.32-.36Z"/>
  <path class="cls-2" d="M21.65,128.79c-.67.09-1.34.21-2,.34.66-.13,1.33-.25,2-.34Z"/>
  <path class="cls-2" d="M30.32,99.21c4.88-1.21,10.36-.98,14.51-3.9,3.3-2.32,6.82-2.78,10.38-3.52,4.33-.91,8.75-1.15,13.17-1.15-4.43,0-8.85.25-13.18,1.15-3.56.75-7.08,1.2-10.38,3.52-4.15,2.92-9.63,2.69-14.51,3.9-.7.17-1.44.32-2.16.33.73,0,1.47-.16,2.17-.33Z"/>
  <path class="cls-2" d="M33.3,125.72c-.44.2-.88.41-1.32.61.44-.21.88-.41,1.32-.61Z"/>
  <path class="cls-2" d="M218.1,75.37c3-.22,6.01-.32,9.01-.32-3.01,0-6.01.1-9.02.32-5.02.37-10.03.94-15.06.92,5.04.03,10.05-.55,15.07-.92Z"/>
  <path class="cls-2" d="M92.49,88.35c5.83-1.02,11.71-1.48,17.59-2.01.9-.08,1.47-.31,1.38-1.38-.1-1.45.85-1.87,2.09-1.92,3.54-.16,7.07-.09,10.58-1.03.96-.25,1.94-.37,2.9-.33-.96-.03-1.94.08-2.91.33-3.51.94-7.05.86-10.58,1.03-1.23.05-2.18.48-2.09,1.92.09,1.07-.49,1.31-1.38,1.38-5.88.53-11.76.99-17.59,2.01-7.35,1.3-14.72,2.37-22.2,2.29,0,0,0,0,0,0,7.48.08,14.86-.99,22.21-2.29Z"/>
  <path class="cls-2" d="M284.13,76.66s0,0,0,0c-2.69.05-5.27.81-8.02.81,2.75,0,5.33-.76,8.03-.81Z"/>
  <path class="cls-2" d="M158.09,268.7c1.63.47,3.19.59,4.73.54-1.53.05-3.09-.08-4.72-.54-2.93-.84-6.15-.72-9.08-1.85-.03-.01-.08-.02-.12-.01.04,0,.08,0,.11.01,2.93,1.12,6.15,1.01,9.08,1.85Z"/>
  <path class="cls-2" d="M7.1,130.67c-.52.17-1.04.42-1.56.67.52-.25,1.04-.5,1.56-.67Z"/>
  <path class="cls-2" d="M309.21,77.43c.11-.01.24-.03.36-.03-.12,0-.26.02-.37.03-1.02.1-2.04.13-3.06.12,1.02.01,2.04-.02,3.07-.12Z"/>
  <path class="cls-2" d="M296.94,77.37c.51-.04,1.03-.06,1.54-.07-.52,0-1.03.03-1.55.07-.53.04-1.07.06-1.6.06.54,0,1.07-.02,1.61-.06Z"/>
  <path class="cls-2" d="M254.16,76.01c.87-.03,1.74-.04,2.61-.04-.87,0-1.74,0-2.62.04-.66.02-1.35.07-2.05.08.7,0,1.39-.05,2.06-.08Z"/>
  <path class="cls-2" d="M133.2,81.84s0,0,0,0c-.85-.04-.68,1.04-1.65,1.2,0,0,0,0,0,0,.97-.15.8-1.23,1.65-1.2Z"/>
  <path class="cls-2" d="M135.41,83.34c-.26,0-.52,0-.77.04,0,0,0,0,0,0,.25-.03.5-.04.76-.04Z"/>
  <path class="cls-2" d="M104.7,119.88c-4.58.15-9.26.21-13.72,1.88-.98.38-2.15,1.17-3.11,1.18.96,0,2.14-.8,3.12-1.18,4.47-1.68,9.14-1.73,13.72-1.88,1.5-.05,3.07-.4,4.62-.35-1.56-.05-3.13.3-4.63.35Z"/>
  <path class="cls-2" d="M137.66,83.21c1.54-.56,3.12-.61,4.69-.59-1.58-.02-3.16.03-4.7.59-.34.12-.7.15-1.08.16.38,0,.75-.03,1.09-.16Z"/>
  <path class="cls-2" d="M147.09,82.45c2.24-.41,4.69.23,6.15-2.62.42-.8,2.9-.52,4.42-.78,1.29-.23,2.59-.32,3.9-.33-1.31,0-2.61.1-3.91.33-1.52.26-4-.02-4.42.78-1.46,2.84-3.91,2.21-6.15,2.62-.78.14-1.57.19-2.36.2.79-.01,1.58-.06,2.37-.2Z"/>
  <path class="cls-2" d="M240.3,74.94c1.05-.08,2.1-.13,3.15-.11-1.05-.02-2.1.03-3.16.11-1.39.1-2.78.41-4.17.35,0,0,0,0,0,0,1.38.06,2.78-.25,4.17-.35Z"/>
  <path class="cls-2" d="M239.09,267.83c.19.25.46.35.73.35-.27,0-.54-.11-.72-.35-1.49-1.89-3.38-2.34-5.32-2.37,1.94.03,3.83.48,5.31,2.37Z"/>
  <path class="cls-2" d="M243.11,259.42c-.95-.04-1.9-.32-2.66-1.17-.16-.18-.35-.24-.54-.22.19-.01.37.05.53.22.76.85,1.71,1.13,2.67,1.17Z"/>
  <path class="cls-2" d="M247.78,266.92c-.8-.03-1.59-.41-2.38-.75-.95-.42-1.9-.93-2.72-.91.81-.01,1.76.5,2.71.91.79.35,1.59.73,2.39.75Z"/>
  <path class="cls-2" d="M236.73,259.21c-1.15,0-2.31-.43-3.45-.81-.27-.09-.52-.15-.75-.17.23.02.47.07.74.17,1.15.38,2.3.81,3.46.81Z"/>
  <path class="cls-2" d="M265.32,259.4c1.06,1.23,7.12,2.7,10.32,2.78-3.2-.08-9.25-1.55-10.3-2.78-.94-1.1-2.07-1.37-3.22-1.37,1.15,0,2.27.27,3.21,1.37Z"/>
  <path class="cls-2" d="M297.43,261.58c.38,1.16-.94,1.38-1.61,1.97-.82.72-1.71.85-2.62.82.91.03,1.81-.1,2.63-.82.67-.58,1.99-.81,1.61-1.97-.19-.59-.59-.78-1.05-.8.45.03.85.22,1.04.8Z"/>
  <path class="cls-2" d="M181.7,268.36c-1.08-.04-2.3-.29-3.27-.51-1.4-.33-2.71-.98-4.15-.91,1.43-.06,2.74.58,4.13.92.98.23,2.2.47,3.28.51Z"/>
  <path class="cls-2" d="M290.45,264.25c-3.29.34-5.58,3.34-8.99,3.42,3.41-.08,5.7-3.07,9-3.42.22-.02.44-.03.67-.03-.23,0-.46,0-.68.03Z"/>
  <path class="cls-2" d="M172.28,267.36c-.55-.02-1.17-.33-1.71-.59-1.01-.47-1.69-.74-2.15-.72.46,0,1.13.26,2.14.72.55.26,1.17.57,1.72.59Z"/>
  <path class="cls-2" d="M192.52,266.59c-.85.05-1.74-.04-2.66-.24-.84-.18-1.69-.42-2.54-.42.84,0,1.69.24,2.53.42.93.2,1.82.28,2.67.24Z"/>
  <path class="cls-2" d="M211.77,265.56c-3.2-.05-6.34-.62-9.48-1.24-.78-.15-1.52-.25-2.25-.25.73,0,1.47.1,2.24.25,3.14.62,6.29,1.18,9.49,1.24Z"/>
  <path class="cls-2" d="M229.77,270.68c.53.71,1.2.61,1.88.62,7.53.1,15.07.42,22.58.28-7.52.14-15.05-.18-22.58-.28-.68-.01-1.35.1-1.88-.62-1.03-1.43-1.49-2.05-2.27-2.05l-.15-2.79h0l.15,2.79c.78,0,1.24.63,2.27,2.05Z"/>
  <path class="cls-2" d="M225.06,265.92c-2.28.05-4.55-.02-6.83-.39-.8-.13-1.62-.19-2.44-.17.81-.03,1.63.04,2.42.17,2.29.36,4.56.44,6.84.39Z"/>
  <path class="cls-2" d="M175.17,276.21c2.01.24,3.95.58,5.94.58,3.26,0,6.44-.86,9.72-.81-3.27-.05-6.45.81-9.72.81-2,0-3.93-.33-5.94-.58Z"/>
  <path class="cls-2" d="M195.72,276.25c-1.12.01-2.24-.06-3.34-.18,1.1.12,2.22.19,3.34.18Z"/>
  <path class="cls-2" d="M224.82,270.05s-.07-.04-.1-.07c.03.03.07.05.1.07Z"/>
  <path class="cls-2" d="M199.81,274.22h0c.2,0,.41.04.62.07-.21-.03-.42-.08-.62-.07Z"/>
  <path class="cls-2" d="M295.37,269.93c.27.26.54.36.81.36-.27,0-.54-.1-.8-.36-1.34-1.29-2.95-1.34-4.58-1.32,1.62-.02,3.23.03,4.57,1.32Z"/>
  <path class="cls-2" d="M9.27,127.47c-.31.03-.62.05-.93.04.31,0,.62-.01.93-.04Z"/>
  <path class="cls-2" d="M302.53,267.79c-.24,0-.48,0-.71,0,.23,0,.47,0,.71,0,0,0,0,0,0,0Z"/>
  <path class="cls-2" d="M284.04,268.79l.09,3.16h0l-.09-3.16s0,0,0,0c-1.2.03-2.23-.33-3.27-1.15,0,0,0,0-.01,0,1.04.82,2.08,1.18,3.28,1.15Z"/>
  <path class="cls-2" d="M276.95,273.45h0c-3.77-.08-7.58-.45-11.32-1.05-2.37-.38-4.61-.86-7.07-.91,2.46.05,4.71.54,7.07.91,3.74.59,7.55.97,11.32,1.05Z"/>
  <path class="cls-2" d="M231.24,273.21c-5.52.62-11.1.93-16.64,1.41-5.12.44-10.33.31-15.42,1.31-1.12.22-2.29.32-3.46.33,1.17-.01,2.33-.11,3.46-.33,5.09-.99,10.29-.86,15.42-1.31,5.54-.48,11.11-.79,16.64-1.41,2.79-.31,5.44.03,8.07.54-2.64-.51-5.29-.85-8.07-.54Z"/>
  <path class="cls-2" d="M286.91,272.81h0c.14,1.18-.8.96-1.56,1.15-12.28,2.91-24.85,3.68-37.31,5.16-1.47.17-2.34.2-2.85-.19.51.39,1.38.36,2.85.19,12.47-1.48,25.03-2.25,37.31-5.16.76-.18,1.7.03,1.56-1.15-.09-.68-.45-.82-.91-.85.46.03.82.17.91.85Z"/>
  <path class="cls-2" d="M224.94,270.13c.33.18.74.26,1.01.57-.27-.31-.68-.39-1.01-.57Z"/>
  <path class="cls-2" d="M8.61,130.46c-.48-.06-.99.04-1.51.21.52-.17,1.03-.27,1.51-.21,1.04.13,2.06.14,3.06.08-1.01.06-2.03.05-3.06-.08Z"/>
  <path class="cls-2" d="M287.81,261.57c-2.39-.04-4.78-.29-7.16-.71-.34-.06-.66-.1-.96-.09.3,0,.62.03.95.1,2.39.42,4.78.68,7.17.71Z"/>
  <path class="cls-2" d="M244.29,226.56c.1.08.22.15.36.22-.14-.06-.26-.13-.36-.22Z"/>
  <path class="cls-2" d="M268.62,220.17c-.32.07-.63.17-.95.25.32-.08.63-.18.95-.25Z"/>
  <path class="cls-2" d="M275.23,218.05c-.55.46-1.12.95-1.78,1.15.67-.2,1.23-.69,1.78-1.15Z"/>
  <path class="cls-2" d="M272.61,221.04c-.3.15-.61.24-.89.23.29.01.59-.08.89-.23Z"/>
  <path class="cls-2" d="M271.76,219.63c.35.41.86.48,1.22.81-.36-.32-.88-.39-1.22-.81Z"/>
  <path class="cls-2" d="M273.45,219.2c-.19.06-.39.09-.6.1.21,0,.41-.04.6-.1Z"/>
  <path class="cls-2" d="M271.45,218.92c.06.32.17.54.31.7-.14-.17-.25-.39-.31-.7Z"/>
  <path class="cls-2" d="M273.18,220.66c-.18.15-.37.28-.57.38.2-.1.39-.23.57-.38Z"/>
  <path class="cls-2" d="M223.02,227.57c-.33.09-.67.14-1.01.17.34-.03.68-.08,1.01-.17Z"/>
  <path class="cls-2" d="M269.05,230.03c-.09.23-.2.42-.33.57.13-.15.24-.34.33-.57Z"/>
  <path class="cls-2" d="M262.88,228.21c.93.16,1.85.33,2.78.39-.93-.06-1.85-.23-2.78-.39Z"/>
  <path class="cls-2" d="M245.52,227c1.7.22,3.41.35,5.11.38-1.71-.03-3.42-.16-5.11-.38Z"/>
  <path class="cls-2" d="M261.49,227.98c.47.07.93.15,1.39.23-.46-.08-.93-.16-1.39-.23Z"/>
  <path class="cls-2" d="M250.63,227.38c.68,0,1.36.05,2.05.11-.69-.06-1.37-.1-2.05-.11Z"/>
  <path class="cls-2" d="M253.71,227.58c1.03.1,2.05.21,3.04.25-.99-.05-2.01-.15-3.04-.25Z"/>
  <path class="cls-2" d="M270.11,228.68c-.26.02-.49.08-.65.2.16-.12.39-.18.65-.2Z"/>
  <path class="cls-2" d="M253.25,212.69c.44.04.87.12,1.3.21-.43-.09-.86-.16-1.3-.21Z"/>
  <path class="cls-2" d="M213.95,217.07c-.18.03-.36.04-.54.05.18,0,.36-.02.54-.05Z"/>
  <path class="cls-2" d="M254.55,212.89c.43.09.86.19,1.29.3-.43-.11-.85-.21-1.29-.3Z"/>
  <path class="cls-2" d="M205.96,219.85h0c.3.01.59.03.89.05-.3-.02-.6-.04-.89-.05Z"/>
  <path class="cls-2" d="M275.71,217.66c-.16.12-.31.25-.47.39.16-.13.31-.26.47-.39Z"/>
  <path class="cls-2" d="M192.22,219.67c.12,0,.24.02.33.08-.09-.05-.2-.07-.33-.08Z"/>
  <path class="cls-2" d="M255.83,213.2c.64.16,1.27.33,1.91.47-.63-.14-1.27-.31-1.91-.47Z"/>
  <path class="cls-2" d="M218.38,216.44c-1.3.03-2.61.04-3.89.5,1.28-.46,2.58-.47,3.89-.5Z"/>
  <path class="cls-2" d="M277.43,217.03c-.11,0-.21.01-.32.03.11-.01.21-.02.32-.03Z"/>
  <path class="cls-2" d="M276.98,212.39c.64,0,1.29.03,1.95.09-.66-.06-1.31-.09-1.95-.09Z"/>
  <path class="cls-2" d="M278.97,217.01c-.1,0-.2,0-.3,0,.1,0,.2,0,.3,0Z"/>
  <path class="cls-2" d="M276.31,217.28c-.12.06-.25.12-.37.21.12-.08.24-.15.37-.21Z"/>
  <path class="cls-2" d="M279.92,212.6c1,.14,2.02.36,3.07.67-1.05-.31-2.07-.53-3.07-.67Z"/>
  <path class="cls-2" d="M272.08,144.58c-1.19-.02-2.38-.11-3.56-.28,1.18.17,2.37.26,3.56.28Z"/>
  <path class="cls-2" d="M113.66,119.87c-.39.1-.86.34-1.22.39.36-.04.84-.29,1.23-.39,1.73-.46,3.43-1.12,5.23-1.08-1.8-.04-3.5.61-5.24,1.08Z"/>
  <path class="cls-2" d="M280.35,216.56c-.16.13-.34.22-.52.29.18-.07.35-.16.52-.29Z"/>
  <path class="cls-2" d="M211.33,220.24c-.3,0-.6-.02-.9-.04.3.02.6.03.9.04Z"/>
  <path class="cls-2" d="M239.71,212.98c-1.08-.14-2.17-.09-3.24-.18-.76-.07-1.53-.11-2.29-.13.76.02,1.52.06,2.29.13,1.07.1,2.16.04,3.24.18Z"/>
  <path class="cls-2" d="M220.09,218.46c-1.48.02-2.94-.07-4.39-.08,1.45.01,2.92.1,4.39.08Z"/>
  <path class="cls-2" d="M243.07,213.14c-.56.02-1.11.01-1.67-.01.56.03,1.12.03,1.67.01Z"/>
  <path class="cls-2" d="M269.09,220.09c.16-.02.32-.02.47,0-.16-.02-.31-.01-.47,0Z"/>
  <path class="cls-2" d="M260.27,213.96c-.21,0-.42,0-.63,0,.21.01.42.01.63,0Z"/>
  <path class="cls-2" d="M251.28,212.67c-.88,0-1.83-.1-2.78-.12.94.02,1.9.12,2.78.12Z"/>
  <path class="cls-2" d="M238.41,223.32c.42-.12.82-.18,1.21-.18-.4,0-.8.06-1.21.18Z"/>
  <path class="cls-2" d="M137.47,161.76s.03-.07.04-.11c-.01.04-.02.07-.04.11-.15.29-.43.35-.7.42.28-.08.56-.13.7-.42Z"/>
  <path class="cls-2" d="M239.72,224.66c-.79-.01-1.64-.31-2.61-.77.46-.26.89-.45,1.3-.57-.42.12-.85.31-1.3.57.97.46,1.82.76,2.61.77Z"/>
  <path class="cls-2" d="M133.31,158.67c-.21.15-.39.34-.53.6.14-.26.32-.45.53-.6Z"/>
  <path class="cls-2" d="M212.92,225.79c.28,0,.55,0,.82,0-.27,0-.55,0-.82,0h0Z"/>
  <path class="cls-2" d="M125.1,163.42c.95-.13,1.9-.16,2.86-.16-.96,0-1.92.02-2.86.16-.43.06-.87.08-1.32.08.44,0,.89-.02,1.32-.08Z"/>
  <path class="cls-2" d="M248.02,223.68c-.96.1-1.81.79-2.75.79.93,0,1.78-.69,2.75-.79,6.47-.63,12.78-2.18,19.18-3.17.16-.02.31-.06.47-.1-.16.04-.31.07-.47.1-6.4.98-12.71,2.54-19.18,3.17Z"/>
  <path class="cls-2" d="M170.75,222.12c-1.46.38-2.92.71-4.4.94,1.48-.24,2.95-.56,4.4-.94Z"/>
  <path class="cls-2" d="M196.71,221.08c-.56-.02-1.12-.08-1.67-.21.56.13,1.11.2,1.67.21Z"/>
  <path class="cls-2" d="M244.19,226.49c-.47-.45-.48-1.2.1-2.3h0c-.58,1.09-.58,1.84-.1,2.3Z"/>
  <path class="cls-2" d="M130.84,163.3c.72,0,1.44-.02,2.15-.09-.71.07-1.43.09-2.15.09Z"/>
  <path class="cls-2" d="M149.81,225.66c-.1,0-.2.01-.29.01.1,0,.19,0,.29-.01Z"/>
  <path class="cls-2" d="M160.83,223.47c1.68.04,3.35-.09,5-.33-1.65.24-3.32.37-5,.33Z"/>
  <path class="cls-2" d="M188.78,227.96c-.96.05-1.91.21-2.86.39.96-.18,1.9-.34,2.86-.39Z"/>
  <path class="cls-2" d="M166.21,228.5c-.28.05-.56.1-.85.11.29-.01.57-.06.85-.11Z"/>
  <path class="cls-2" d="M183.06,228.84c-2.14.31-4.28.47-6.42.46,2.14,0,4.28-.15,6.42-.46Z"/>
  <path class="cls-2" d="M165.36,228.62c-.1,0-.19,0-.29,0,.1,0,.2,0,.29,0Z"/>
  <path class="cls-2" d="M269.05,230.03c.09-.23.16-.5.21-.82.02-.14.09-.25.2-.33-.11.08-.18.19-.2.33-.05.32-.12.59-.21.82Z"/>
  <path class="cls-2" d="M271.96,228.98c.22,0,.45-.11.69-.39-.63-.58-1.48-.89-2.17-.86.69-.03,1.54.28,2.17.86-.24.28-.47.38-.69.39Z"/>
  <path class="cls-2" d="M226.08,227.12c.51-.03,1.02-.03,1.53-.02-.51-.01-1.02,0-1.53.02Z"/>
  <path class="cls-2" d="M188.78,227.96c.24-.01.48-.02.72-.02-.24,0-.48,0-.72.02Z"/>
  <path class="cls-2" d="M193.27,227.03c-.44.59-.86.9-1.34,1.01.48-.11.9-.42,1.34-1.01.36-.49.75-.95,1.21-1.34-.46.39-.85.85-1.21,1.34Z"/>
  <path class="cls-2" d="M183.06,228.84c.71-.1,1.43-.23,2.14-.36.24-.05.48-.09.72-.14-.24.04-.48.09-.72.14-.71.14-1.42.26-2.14.36Z"/>
  <path class="cls-2" d="M164.44,224.79c1.41,0,2.82-.11,4.24-.43.36-.08.73-.12,1.11-.1-.38-.02-.75.02-1.11.1-1.41.32-2.83.44-4.24.43Z"/>
  <path class="cls-2" d="M133.65,158.48c.35-.16.75-.24,1.14-.31-.39.07-.79.15-1.14.31Z"/>
  <path class="cls-2" d="M159.45,246.11c-3.53.18-7.05.53-10.57,1.11.03.29.1.51.19.67-.09-.17-.16-.39-.19-.67,3.52-.58,7.04-.92,10.57-1.11Z"/>
  <path class="cls-2" d="M149.07,247.89c.14.25.34.39.58.46-.23-.07-.44-.21-.58-.46Z"/>
  <path class="cls-2" d="M151.83,248.89c.11.14.19.33.24.58-1.9.7-3.79,1.29-5.58,2.1,1.78-.81,3.68-1.39,5.58-2.1-.05-.25-.13-.44-.24-.58Z"/>
  <rect class="cls-2" width="315.15" height="1.02"/>
  <path class="cls-2" d="M150.42,248.45c-.18,0-.36-.01-.53-.04.17.03.35.04.53.04Z"/>
  <path class="cls-2" d="M169.99,245.99c-2.63-.06-5.27-.06-7.9.02,2.63-.08,5.27-.07,7.9-.02Z"/>
  <path class="cls-2" d="M150.95,248.48c-.17-.02-.35-.02-.53-.03.18,0,.36,0,.53.03Z"/>
  <path class="cls-2" d="M170.11,245.99c2.58.06,5.17.16,7.75.29-2.58-.13-5.17-.24-7.75-.29Z"/>
  <path class="cls-2" d="M188.28,241.1c.1-.61.26-1.04.57-1.29-.31.25-.47.68-.57,1.29Z"/>
  <path class="cls-2" d="M222.64,244.18c-1,.46-2.02.78-3.06,1.02,1.04-.23,2.06-.55,3.06-1.02Z"/>
  <path class="cls-2" d="M232.26,234.78c.27.2.57.33.92.41-.35-.08-.65-.21-.92-.41Z"/>
  <path class="cls-2" d="M166.9,250.92h0c-.42-.44-1.14-.31-1.44-.78.3.47,1.02.34,1.44.78Z"/>
  <path class="cls-2" d="M162.1,250.14c.43-.02.85-.09,1.26-.25-.41.16-.84.23-1.26.25Z"/>
  <path class="cls-2" d="M241.55,243.06c-.54-.04-1.11-.21-1.66-.33.56.12,1.12.3,1.66.33Z"/>
  <path class="cls-2" d="M142.15,227c-.13,0-.27,0-.4,0,.13,0,.27,0,.4,0Z"/>
  <path class="cls-2" d="M189.11,239.66c.19-.08.43-.11.71-.1-.29-.01-.52.02-.71.1Z"/>
  <path class="cls-2" d="M289.77,83.89c-.51.12-1.27.3-2.08.26.81.04,1.58-.14,2.09-.26,1.95-.49,3.9-.71,5.84-.75-1.94.04-3.89.25-5.85.75Z"/>
  <path class="cls-2" d="M310.94,79.48c1.4.01,2.8.09,4.21.26h0c-1.41-.17-2.81-.25-4.21-.26Z"/>
  <path class="cls-2" d="M157.79,153.78c.38,0,.75.03,1.1.08-.35-.06-.71-.08-1.1-.08Z"/>
  <path class="cls-2" d="M296.16,85.7c-5.71-.43-11.4.27-17.09.52-4.16.17-8.34.22-12.51.18-1.56-.02-2.8.81-4.24,1.12-.2.04-.38.13-.52.26.14-.12.31-.2.51-.25,1.44-.31,2.68-1.15,4.24-1.12,4.17.03,8.35-.01,12.51-.18,5.7-.25,11.38-.95,17.09-.52,5.11.39,10.27.14,15.32.66,1.22.13,2.45.18,3.68.21h0c-1.22-.04-2.45-.09-3.67-.22-5.05-.52-10.21-.27-15.32-.66Z"/>
  <path class="cls-2" d="M281.16,143.94h0c-2.47.3-4.89.56-7.28.63,2.39-.06,4.81-.33,7.28-.63Z"/>
  <path class="cls-2" d="M122.51,118.71c-.44.15-.93.38-1.37.42.44-.04.94-.28,1.38-.42,1.88-.59,3.76-.87,5.69-.9-1.92.03-3.81.31-5.7.9Z"/>
  <path class="cls-2" d="M203.69,112.83c-4.8.65-9.62.55-14.39.68-8.91.24-17.76,1.25-26.63,1.79-7.71.48-15.45,1.39-23.17,2.14-1.95.19-3.92.56-5.86.61,1.94-.05,3.92-.42,5.87-.61,7.72-.75,15.46-1.67,23.17-2.14,8.87-.54,17.72-1.56,26.63-1.79,4.77-.13,9.59-.03,14.39-.68.74-.1,1.47-.16,2.23-.19h0c-.76.03-1.49.1-2.24.19Z"/>
  <path class="cls-2" d="M138.61,253.5c.69-.06,1.39-.1,2.06-.25-.67.15-1.37.18-2.06.25Z"/>
  <path class="cls-2" d="M151.52,248.63c-.17-.09-.36-.14-.56-.16.2.02.39.07.56.16Z"/>
  <path class="cls-2" d="M140.68,253.25c1.48-.32,2.95-.63,4.39-1.13-1.43.49-2.91.81-4.39,1.13Z"/>
  <path class="cls-2" d="M186.2,248.16c-.36,0-.73,0-1.09-.03.36.02.73.03,1.09.03Z"/>
  <path class="cls-2" d="M137.25,253.7c.44-.11.9-.16,1.36-.2-.46.04-.92.1-1.36.2Z"/>
  <path class="cls-2" d="M182.08,247.87c-.42-.03-.83-.04-1.24-.03.41-.01.83,0,1.24.03Z"/>
  <path class="cls-2" d="M135.41,254.67h0c.55-.53,1.18-.81,1.84-.97-.66.16-1.29.44-1.84.97Z"/>
  <path class="cls-2" d="M154.38,154.46c-.45.13-.89.24-1.35.33-2.98.52-5.96,1.06-8.93,1.61,2.98-.55,5.95-1.09,8.93-1.61.46-.08.91-.2,1.35-.33Z"/>
  <path class="cls-2" d="M287.18,164.61c-.66.15-1.32.34-1.99.51.67-.17,1.33-.36,1.99-.51Z"/>
  <path class="cls-2" d="M282.53,230.61c.22.08.42.21.6.39-.18-.18-.38-.31-.6-.39Z"/>
  <path class="cls-2" d="M287.68,164.51h0c-.16.03-.33.06-.49.1.16-.04.33-.07.49-.1Z"/>
  <path class="cls-2" d="M282.96,232.64c.23-.3.42-.64.65-.9h0c-.23.26-.42.6-.65.9Z"/>
  <path class="cls-2" d="M282.44,233.16c.2-.13.37-.32.52-.52-.15.2-.32.39-.52.52Z"/>
  <path class="cls-2" d="M280.36,230.48c-.12,0-.25,0-.37,0,.12,0,.24,0,.37,0Z"/>
  <path class="cls-2" d="M135.7,160.6c-.43-.08-.85-.15-1.27-.24.42.09.85.16,1.27.24Z"/>
  <path class="cls-2" d="M270.83,142.23c.19-.01.38.01.57.06-.2-.05-.39-.07-.57-.06Z"/>
  <path class="cls-2" d="M278.95,141.74c.36-.02.66.08.92.26-.26-.19-.56-.29-.92-.26Z"/>
  <path class="cls-2" d="M280.23,142.35c.23.27.43.61.62.99-.2-.38-.4-.73-.62-.99Z"/>
  <path class="cls-2" d="M282.04,165.41c-.37-.05-.74-.13-1.13-.25.38.13.76.21,1.13.25Z"/>
  <path class="cls-2" d="M267.13,143.81c.52-.2,1.06-.32,1.56-.5-.5.19-1.04.31-1.56.5Z"/>
  <path class="cls-2" d="M282.04,165.41c.37.04.73.05,1.08.04-.35.02-.71,0-1.08-.04Z"/>
  <path class="cls-2" d="M279.29,230.37c.22.06.46.09.7.1-.24,0-.48-.04-.7-.1Z"/>
  <path class="cls-2" d="M315.15,77.96h0c-.97.13-1.96.37-2.93.34.97.03,1.96-.2,2.93-.34Z"/>
  <path class="cls-2" d="M254.45,241.19c1.39-.12,2.81-.05,4.27.06-1.46-.11-2.88-.18-4.27-.06Z"/>
  <path class="cls-2" d="M122.01,256.73c.85-.18,1.69-.31,2.49-.4-.8.08-1.64.22-2.49.4Z"/>
  <path class="cls-2" d="M232.26,234.78c-.18-.14-.35-.31-.51-.51.16.21.33.38.51.51Z"/>
  <path class="cls-2" d="M223.87,234.9c.06.11.12.22.12.32,0-.1-.06-.21-.12-.32Z"/>
  <path class="cls-2" d="M155.21,154.22c.25-.07.5-.14.76-.2-.25.06-.51.13-.76.2Z"/>
  <path class="cls-2" d="M281.48,230.45c.12,0,.24,0,.36.02-.12-.01-.24-.02-.36-.02Z"/>
  <path class="cls-2" d="M281.85,230.46c.24.02.47.07.69.15-.22-.08-.45-.13-.69-.15Z"/>
  <path class="cls-2" d="M118.24,164.84c1.35-1.39,3-1.39,4.64-1.36-1.64-.03-3.29-.03-4.64,1.36,1.15,1.22,2.43,2.01,3.74,2.15-1.31-.14-2.59-.93-3.74-2.15Z"/>
  <path class="cls-1" d="M302.54,267.79s0,0,0,0c0,0,0,0,0,0-.24,0-.47,0-.71,0-1.66.05-3.17.49-4.4,1.81-.36.39-.8.69-1.24.69-.27,0-.54-.1-.81-.36-1.34-1.28-2.95-1.34-4.57-1.32-.23,0-.46,0-.69.01-1.95.01-3.9.04-5.84.15-.08.01-.14.01-.22.01,0,0,0,0,0,0,0,0,0,0,0,0l.09,3.16c.32-.02.66-.02,1.01,0,.3.02.6,0,.87.02.46.03.82.17.91.85.14,1.18-.8.96-1.56,1.15-12.28,2.91-24.85,3.68-37.31,5.16-1.47.17-2.34.2-2.85-.19-.65-.49-.71-1.66-.64-4.06-1.76-.36-3.49-.77-5.24-1.11-2.64-.51-5.29-.85-8.07-.54-5.52.62-11.1.93-16.64,1.41-5.12.44-10.33.31-15.42,1.31-1.12.22-2.29.32-3.46.33-1.12.01-2.24-.06-3.34-.18-.05,0-.1,0-.15-.01-.47-.05-.94-.08-1.41-.08-3.27-.05-6.45.81-9.72.81-2,0-3.93-.33-5.94-.58-1.29-.16-2.61-.27-4-.22,1.07-1.33,2.17-1.5,3.31-1.09,3.58,1.29,7.2.37,10.74.08,4.87-.4,9.73-.59,14.6-.76h0c.2,0,.41.04.62.07.19.03.37.04.53-.02,4.89-1.77,10.02-.8,15.02-1.37,3.43-.4,6.83-1.01,10.24-1.52-.03-.31-.12-.52-.26-.67-.27-.31-.68-.39-1.01-.57-.04-.02-.08-.06-.12-.08-.03-.02-.07-.04-.1-.07-.07-.06-.12-.13-.17-.22,1.48-.72,2.31-1.14,2.94-1.14h0l-.15-2.79c-.76.04-1.52.07-2.28.08-2.28.05-4.56-.02-6.84-.39-.79-.13-1.61-.19-2.42-.17-.27,0-.54.03-.81.06-1.08.11-2.15.15-3.22.13-3.2-.05-6.35-.62-9.49-1.24-.77-.15-1.52-.25-2.24-.25-1.21,0-2.37.3-3.52,1.11-1.24.89-2.57,1.33-4,1.4-.85.05-1.75-.04-2.67-.24-.84-.18-1.68-.41-2.53-.42-1.08,0-2.15.37-3.17,1.74-.43.57-1.37.73-2.46.69-1.09-.04-2.31-.29-3.28-.51-1.39-.33-2.71-.98-4.13-.92-.48.02-.97.12-1.48.34-.16.07-.34.1-.52.09-.55-.02-1.17-.33-1.72-.59-1-.47-1.68-.73-2.14-.72-.76.02-.93.81-1,2.69-1.54.23-3.06.45-4.6.5-1.54.05-3.1-.08-4.73-.54-2.93-.84-6.15-.72-9.08-1.85-.03-.01-.07-.01-.11-.01-.04,0-.08,0-.11.02-1.53.85-3.12,1.07-4.72,1.06-1.87-.01-3.76-.33-5.63-.31-.8,0-1.59.08-2.38.26-.26.07-.53.09-.81.08-.28,0-.56-.04-.83-.09-2.57-.51-5.15-.79-7.75-.81-1.55-.01-3.12.07-4.69.24-.85.1-1.71.16-2.57.19-2.56.09-5.12-.1-7.67-.39-.15-.02-.31-.12-.45-.1-.82.22-1.63.33-2.41.34-3.4.09-6.47-1.47-9.61-2.71-.93.28-.21,1.32-.96,1.87,0,0,0,0,0,0,0,0,0,0,0,0-.65-.48-1.33-.62-2.02-.6-1.11.03-2.26.44-3.45.45-.45,0-.89-.05-1.35-.21-1.4-.48-2.89-1.04-4.46-1-.94.02-1.91.26-2.9.85.4.76,1.79.75,1.41,1.84-.32.93-1.23,1.1-1.98,1.49-1.65.86-3.55.05-5.17.94,0,0,0,0,0,0,0,0,0,0,0,0-.65-1.42,1.02-1.24,1.14-2.3-1.6-.99-3.39-1.3-5.12-1.22-1.04.05-2.07.25-3.02.52-3.68,1.08-7.47,1.02-11.13,1.99-3.98,1.05-8.29.81-12.13,2.31-3.92,1.55-8.01.37-11.91,1.39-8.42,2.22-17.17,2.62-25.67,4.32-3.48.7-7.05,1.06-10.55,1.67v8.97c1.34-.27,2.71-.43,4.11-.39,1.24.03,2.51.22,3.82.64-.9.68-1.62.76-2.31.77-.23,0-.45,0-.67,0-1.67.03-3.33.18-4.94.6v47.15h315.15v-71.08c-2.4.27-4.76.7-7.08,1.43-1.78.56-3.64.81-5.52.77ZM218.18,268.45c-1.3.78-2.21,1.22-2.93-.35.96-.64,1.73-.16,2.93.35ZM209.96,268.84h-10.89c2.22-2.12,8.51-1.86,10.89,0ZM35.73,277.56c-.63.11-1.09-.18-1.2-.82-.11-.67.13-1.37.84-1.44,2.76-.25,5.52-.42,8.28-.54.43-.01.8.45.74,1.37-2.9.49-5.77.97-8.66,1.43ZM52.38,274c-.66.76-1.36,1.28-2.13,1.55-1.27.46-2.72.25-4.37-.64.54-.26,1.06-.54,1.58-.79,1.17-.55,2.34-.94,3.61-.65.42.1.86.27,1.31.53h0s0,0,0,0ZM68.44,271.62c1.67-1.96,5.29-1.98,8.52-.19-2.9,1.21-5.72-1.08-8.52.19ZM80.35,272.29c-.5-.19-.99-.48-1.47-.78.67-.06,1.35-.26,2.05-.31.69-.05,1.4.04,2.11.59-.98.82-1.86.82-2.69.51ZM89.46,268.15c-.55.05-1.16,0-1.84-.18-.34-.09-.69-.2-1.06-.34.69-.19,1.42-.57,2.12-.57.54,0,1.07.22,1.56.93-.25.08-.51.13-.78.16ZM201.13,280.87c.54,0,1.07.01,1.59,0,.26,0,.52-.02.78-.04-.26.04-.52.11-.77.19-.13.04-.26.08-.38.13-1.54.56-3.07,1.45-4.91.54-.15-.08-.31-.16-.47-.27,1.43-.53,2.81-.57,4.15-.56ZM110.52,292.36h0s0,0,0,0c.43-.66.9-1.03,1.37-1.25.16-.07.31-.13.47-.18.62-.19,1.22-.21,1.74-.42.57-.23,1.18-.22,1.81-.17.47.03.96.09,1.45.08.16,0,.33-.01.49-.03-1.95,1.75-4.49,1.15-7.32,1.97ZM199.9,285.6c-7.22.01-14.42,1.08-21.62.44-2.74-.25-5.44-.99-8.24-1.15-2.97-.15-5.92-.06-8.82.52-3.52.71-7.09.74-10.64,1.07-1.72.17-3.45.36-5.17.61-1.72.25-3.43.57-5.11.98-4.1,1.01-8.3.86-12.42,1.68-1.87.37-3.7,1.11-5.68,1.09-1.09-.01-2.14.04-3.77-.52,2.53-.5,4.51-.96,6.52-1.25,4.79-.72,9.67-1.05,14.39-2.1,7.32-1.63,14.82-1.73,22.19-3.01.98-.17,1.98-.25,2.98-.29.67-.03,1.34-.04,2.01-.04,1.01-.01,2.01-.02,3.02-.07,1.09-.05,2.27.02,3.23-.38,2.52-1.05,4.85-.42,7.27.3,3.3.98,6.63,1.6,10.04.52.69-.22,1.63-.06,1.57-1.28-.01-.19.02-.34.09-.44s.16-.18.27-.23c.23-.1.53-.11.8-.12.51-.03.83.02.9.7.14,1.49,1.45,1.44,2.31,1.19,2.98-.86,6.16-.02,9.17-1.35.14-.06.28-.09.43-.1.3,0,.63.09.98.25.35.17.71.4,1.08.67.19.13.37.28.56.42.38.29.76.59,1.13.88-3.43.72-6.44,1.01-9.45,1.01Z"/>
  <path class="cls-1" d="M296.15,85.71c-5.71-.43-11.4.27-17.09.52-4.16.17-8.34.22-12.51.18-1.56-.02-2.8.81-4.24,1.12-.2.04-.37.13-.51.25-.41.35-.5.99-.11,1.63,1.18,1.89,1.08,3.7-.29,5.45,2.54.84,5.07,2.43,7.5,2.28,2.63-.15,5.28.12,7.86-.26,3.25-.49,6.23,1.04,9.41.92,1.19-.03,1.35,1.32,2.05,2.3,2.07-1.95,4.09-1.23,6.07.11,1.15.78,2.39.69,3.57.23,1.11-.44,2.03-.4,2.95.54,0,0,0,0-.01.01,0,0,0,0,0,0-1.21,1.2-2.66,1.3-4.13,1.22-2.51-.13-4.98-.16-7.32.94-.55.25-1.14.34-1.5-.16-1.17-1.62-2.59-1.08-3.97-.48-1.42.64-2.85.92-4.29.36-1.63-.63-3.06.23-4.53.5-5.47.98-11.06.62-16.53,2.1-3.99,1.08-8.3,1.07-12.49,1.28-13.46.68-26.87,1.97-40.31,2.85l.19,3.04s0,0,0,0h0s0,0,.01,0c3.25-.17,6.58.13,9.86,0,15.06-.51,30.11-.99,45.16-1.69,7.37-.34,14.76-.19,22.11-.62,5.82-.34,11.67-.08,17.45-.9,2.19-.31,4.26.68,6.49.43,2.71-.3,5.42-.31,8.14-.25v-23.04c-1.23-.02-2.45-.08-3.68-.21-5.05-.52-10.21-.27-15.32-.66Z"/>
  <path class="cls-1" d="M305.96,79.58c-5.37.19-10.8.05-16.1,1.18-1.67.35-3.2,1.1-4.52,2.35.69.75,1.54,1.01,2.35,1.05.81.04,1.57-.14,2.08-.26,1.95-.5,3.91-.71,5.85-.75,3.23-.06,6.44.37,9.59.83,3.08.44,6.24.83,9.34,1.44.2.04.4.06.6.08v-5.75c-1.41-.17-2.81-.25-4.21-.26-1.67-.02-3.32.05-4.98.11Z"/>
  <path class="cls-1" d="M0,103.24c4.01-.2,7.4-2.47,11.09-3.72,3.27-1.11,6.42-2.32,9.91-2.46.5-.02,1-.02,1.52,0,2.4.12,4.85-.76,7.14-1.68.32-.13.62-.25.91-.27.48-.05.9.17,1.24,1.04-2.39.61-4.65,1.19-7.08,1.81,1.02,1.24,2.21,1.6,3.43,1.59.73-.01,1.46-.16,2.16-.33,4.88-1.21,10.36-.98,14.51-3.9,3.3-2.32,6.82-2.78,10.38-3.52,4.34-.91,8.75-1.15,13.18-1.15.63,0,1.26,0,1.89,0,7.48.08,14.85-.99,22.2-2.29,5.83-1.02,11.71-1.48,17.59-2.01.9-.08,1.47-.31,1.38-1.38-.1-1.45.85-1.87,2.09-1.92,3.54-.16,7.07-.09,10.58-1.03.97-.26,1.95-.37,2.91-.33,1.61.05,3.16.51,4.51,1.37.96-.16.8-1.24,1.65-1.2,0,0,0,0,0,0,0,0,0,0,0,0,.83.12.13,1.72,1.44,1.54.25-.04.51-.04.77-.04.39,0,.78.03,1.16.03.38,0,.74-.04,1.08-.16,1.55-.56,3.12-.61,4.7-.59.79,0,1.58.04,2.37.03.79-.01,1.57-.06,2.36-.2,2.24-.41,4.69.23,6.15-2.62.42-.8,2.9-.52,4.42-.78,1.3-.23,2.6-.32,3.91-.33,2.17-.02,4.34.19,6.47.37,1.21.1,2.41.15,3.61.17,8.38.12,16.55-1.56,24.78-2.83,1.1-.17,2.22-.23,3.33-.22.37,0,.74.01,1.11.02.72.03,1.44.05,2.16.05,5.04.03,10.04-.55,15.06-.92,3.01-.22,6.01-.32,9.02-.32,3,0,6.01.09,9.01.23,1.38.06,2.77-.25,4.17-.35,1.05-.08,2.11-.13,3.16-.11,1.75.03,3.49.25,5.18.82,1.14.38,2.32.45,3.48.43.7,0,1.38-.05,2.05-.08.87-.03,1.75-.04,2.62-.04,6.09.04,12.11.89,18.15,1.44.4.04.79.05,1.18.05,2.74,0,5.32-.76,8.02-.81,0,0,0,0,0,0,0,0,0,0,0,0,3.76-.07,7.47.78,11.2.77.53,0,1.06-.02,1.6-.06.52-.04,1.03-.06,1.55-.07,2.56-.05,5.11.22,7.67.25,1.02.01,2.04-.02,3.06-.12.12-.01.25-.03.37-.03.13,0,.24.01.32.07.75.59,1.53.8,2.32.83.97.03,1.96-.2,2.93-.34V1.02H0v102.21Z"/>
  <path class="cls-4" d="M312.22,78.3c-.8-.03-1.58-.23-2.32-.83-.08-.06-.19-.08-.32-.07-.12,0-.25.02-.36.03-1.02.1-2.05.13-3.07.12-2.55-.03-5.1-.29-7.67-.25-.51,0-1.03.03-1.54.07-.54.04-1.07.06-1.61.06-3.73,0-7.44-.84-11.2-.77,0,0,0,0,0,0-2.7.05-5.28.82-8.03.81-.39,0-.79-.02-1.18-.05-6.04-.55-12.06-1.4-18.15-1.44-.87,0-1.74,0-2.61.04-.67.02-1.36.07-2.06.08-1.16.02-2.34-.05-3.48-.43-1.69-.57-3.43-.79-5.18-.82-1.04-.02-2.1.03-3.15.11-1.39.1-2.79.41-4.17.35,0,0,0,0,0,0-3.01-.15-6.01-.24-9.01-.23-3,0-6,.1-9.01.32-5.02.37-10.03.95-15.07.92-.72,0-1.44-.02-2.16-.05-.37-.01-.74-.02-1.11-.02-1.11,0-2.23.05-3.32.22-8.24,1.27-16.41,2.95-24.79,2.83-1.2-.02-2.4-.07-3.61-.17-2.13-.18-4.3-.39-6.47-.37-1.3,0-2.6.1-3.9.33-1.52.26-4-.02-4.42.78-1.46,2.84-3.91,2.21-6.15,2.62-.78.14-1.57.19-2.37.2-.79.01-1.58-.02-2.37-.03-1.58-.02-3.15.03-4.69.59-.34.12-.71.16-1.09.16-.38,0-.77-.03-1.16-.03-.26,0-.51,0-.76.04,0,0,0,0,0,0-1.31.18-.61-1.42-1.44-1.54,0,0,0,0,0,0-.84-.03-.68,1.05-1.65,1.2,0,0,0,0,0,0-1.35-.86-2.91-1.31-4.51-1.37-.96-.03-1.94.08-2.9.33-3.51.94-7.05.86-10.58,1.03-1.23.05-2.18.48-2.09,1.92.09,1.07-.49,1.31-1.38,1.38-5.88.53-11.76.99-17.59,2.01-7.35,1.3-14.73,2.37-22.21,2.29,0,0,0,0,0,0-.63,0-1.26-.01-1.89,0-4.42,0-8.84.25-13.17,1.15-3.56.75-7.08,1.2-10.38,3.52-4.15,2.92-9.63,2.69-14.51,3.9-.71.17-1.44.32-2.17.33-1.21.02-2.41-.34-3.43-1.59,2.43-.62,4.69-1.2,7.08-1.81-.34-.87-.77-1.08-1.24-1.04-.29.03-.59.15-.9.27-2.29.92-4.75,1.79-7.15,1.68h0c-.51-.03-1.02-.03-1.52,0-3.49.14-6.64,1.36-9.9,2.46-3.69,1.24-7.08,3.52-11.1,3.72v19.5c1.55-.51,3.13-.92,4.72-1.25,3.21-.68,6.47-1.1,9.72-1.62,1.62-.26,3.24-.56,4.84-.92,5.19-1.19,10.38-2.39,15.56-3.61,5.18-1.22,10.35-2.46,15.52-3.75.3-.07.58-.12.86-.14,1.12-.09,2.11.19,3.09.54.74.26,1.46.56,2.24.77-4.05,1.86-8.3,2.83-12.57,3.64-1.43.27-2.85.53-4.28.79-3.32.62-6.62,1.39-9.93,2.09-3.31.7-6.62,1.32-9.96,1.66-5,.5-9.71,2.11-14.64,2.61-.43.04-.84.15-1.25.29-.2.07-.4.15-.6.23-.4.16-.79.33-1.19.47s-.81.25-1.23.3c-.21.02-.43.03-.65.01h0c-.07,0-.15,0-.23,0v2.69c.72-.15,1.44-.26,2.17-.32.44-.03.88-.05,1.32-.05,1.33-.01,2.66.11,4.03.31.28.04.55.06.83.07.31,0,.62-.01.93-.04,1.59-.16,3.12-.78,4.59-1.34.51-.2,1.03-.36,1.55-.52,1.56-.48,3.13-.84,4.72-1.09,3.53-.57,7.13-.74,10.66-1.27,1.37-.21,2.66,1.5,4.39.89.03.25.06.5.1.76-.44.16-.88.34-1.32.54-.22.1-.44.19-.66.29-.44.2-.88.41-1.32.61-.22.1-.44.21-.66.31-.66.31-1.32.61-1.98.87-.44.18-.88.34-1.32.49-.44.14-.88.27-1.32.36-.66.14-1.32.22-1.98.21-1.03-.01-2.05.07-3.06.21-.67.09-1.34.21-2,.34-.33.06-.66.13-1,.2-2.32.49-4.62,1.06-6.97,1.21-1.01.06-2.03.05-3.06-.08-.48-.06-.99.04-1.51.21-.52.17-1.04.42-1.56.67-.34.16-.69.33-1.02.47-1.49.63-2.99,1.16-4.52,1.55v145.59c3.5-.61,7.06-.97,10.55-1.67,8.5-1.71,17.24-2.11,25.67-4.32,3.9-1.03,7.99.15,11.91-1.39,3.84-1.5,8.15-1.27,12.13-2.31,3.65-.97,7.45-.91,11.13-1.99.95-.28,1.98-.47,3.02-.52,1.74-.09,3.53.22,5.13,1.22-.12,1.06-1.78.89-1.14,2.3,0,0,0,0,0,0,1.62-.89,3.51-.08,5.17-.94.75-.39,1.65-.56,1.98-1.49.39-1.09-1.01-1.08-1.41-1.84.99-.6,1.96-.83,2.9-.85,1.57-.04,3.07.52,4.47,1,.45.15.89.21,1.34.21,1.18,0,2.34-.42,3.45-.45.69-.02,1.37.12,2.02.6,0,0,0,0,0,0,.74-.55.03-1.58.96-1.87,0,0,0,0,0,0,3.14,1.24,6.21,2.8,9.61,2.71.79-.02,1.59-.13,2.41-.34,0,0,0,0,0,0,.14-.03.3.08.45.1,2.55.29,5.11.48,7.66.39.86-.03,1.71-.09,2.57-.19,1.57-.17,3.13-.25,4.69-.24,2.6.02,5.18.3,7.76.81.26.05.54.09.82.09.28,0,.55-.02.81-.08.79-.18,1.58-.25,2.38-.26,1.87-.02,3.76.3,5.63.31,1.6.01,3.19-.2,4.72-1.06.03-.02.07-.02.11-.02.04,0,.09,0,.12.01,2.93,1.12,6.15,1.01,9.08,1.85,1.63.46,3.19.59,4.72.54,1.54-.05,3.06-.27,4.6-.5.07-1.88.24-2.67,1-2.69.46-.01,1.14.25,2.15.72.54.26,1.16.57,1.71.59.18,0,.36-.02.52-.09.51-.22,1-.32,1.48-.34,1.43-.07,2.75.58,4.15.91.97.23,2.19.47,3.27.51,1.08.04,2.03-.11,2.46-.69,1.02-1.37,2.09-1.74,3.17-1.74.85,0,1.7.24,2.54.42.92.2,1.81.28,2.66.24,1.43-.08,2.76-.52,4-1.4,1.15-.82,2.31-1.11,3.52-1.11.73,0,1.48.1,2.25.25,3.14.62,6.28,1.18,9.48,1.24,1.07.02,2.14-.02,3.22-.13.27-.03.54-.05.81-.06.81-.03,1.64.04,2.44.17,2.28.36,4.55.44,6.83.39.76-.02,1.52-.05,2.28-.08h0c.98-.05,1.98-.12,2.97-.18,1.12-.07,2.29-.21,3.46-.19,1.94.03,3.83.48,5.32,2.37.19.24.45.35.72.35.45,0,.9-.28,1-.7.38-1.69,1.05-2.22,1.87-2.23.81-.02,1.77.5,2.72.91.78.34,1.58.73,2.38.75.48.02.95-.1,1.43-.42.36-1.03-1.1-.96-1.03-1.18.53-1.47,1.84-.74,2.09-2.13-3.2-.77-6.56.05-9.73-.9-3.21-.96-6.58-1.42-9.64-2.95.45-.84.95-1.16,1.64-1.11.23.02.48.07.75.17,1.14.38,2.3.8,3.45.81.89,0,1.78-.25,2.66-.97.14-.11.33-.2.52-.21.19-.01.38.04.54.22.76.85,1.7,1.13,2.66,1.17.57.02,1.14-.04,1.68-.12,4.87-.71,9.77-.72,14.66-1.05.85-.06,1.76-.22,2.66-.22,1.15,0,2.28.27,3.22,1.37,1.05,1.23,7.1,2.7,10.3,2.78.73.02,1.32-.04,1.65-.18.36-.16.72-.35.98-.62.43-.45.9-.6,1.41-.61.31,0,.63.03.96.09,2.38.42,4.77.68,7.16.71,2.39.03,4.78-.15,7.18-.6.43-.08.95-.22,1.41-.2.46.02.86.21,1.05.8.38,1.16-.94,1.38-1.61,1.97-.82.73-1.72.85-2.63.82-.69-.02-1.38-.13-2.06-.15-.22,0-.45,0-.67.03-3.3.34-5.58,3.34-9,3.42-.22,0-.45,0-.69-.02,1.04.82,2.07,1.18,3.27,1.15,0,0,0,0,0,0,.08,0,.14,0,.22-.01,1.94-.11,3.89-.14,5.84-.15.23,0,.46,0,.69-.01,1.63-.02,3.24.03,4.58,1.32.26.25.53.36.8.36.45,0,.88-.3,1.24-.69,1.22-1.31,2.74-1.75,4.4-1.81.23,0,.47,0,.71,0,0,0,0,0,0,0,1.88.04,3.74-.21,5.52-.77,2.32-.73,4.68-1.16,7.08-1.43v-8.48c-.7.18-1.4.35-2.11.51-1,.22-2.01.41-3.03.55-.51.07-1.02.12-1.54.16-1.33.1-2.31-1.08-4-.83.32-.29.56-.55.74-.79.43-.6.43-1.07.22-1.49s-.65-.79-1.08-1.19c-.17-.16-.35-.32-.51-.5-.16-.17-.31-.36-.44-.56.94-.02,1.88-.04,2.81-.08,1.87-.06,3.72-.15,5.57-.22.92-.04,1.85-.07,2.77-.09.2,0,.4,0,.6-.01v-17.34c-3.31-.48-6.61-1.13-9.92-1.96.17-.34.23-.57.29-.57,2.58-.11,5.1-1.04,7.69-1.1.64-.01,1.29.03,1.94.15v-1.74c-3.79.3-7.63.19-11.3,1.69-1.1.45-2.49.68-3.87.62-.06,0-.11-.02-.16-.02-.41-.03-.81-.07-1.21-.14-.19-.04-.37-.08-.56-.12-.17-.04-.33-.09-.48-.15-.15-.06-.3-.13-.42-.23-.22-.17-.39-.41-.48-.76.24-.82.84-1.02,1.47-1.04,2.97-.12,5.81-.81,8.64-1.71,2.7-.85,5.57-.84,8.37-1.05v-7.7c-1.46.02-2.94.2-4.4.25-1.34.05-2.87.58-3.96-.96,1.4.11,2.77-.19,4.14-.49,1.14-.25,2.28-.51,3.43-.55.23,0,.46,0,.69,0,.03,0,.06,0,.09,0v-7.05s-.07,0-.1,0c-.5.01-1.02-.02-1.56-.09-1.07-.13-2.22-.38-3.42-.57.75-.99,1.49-1.26,2.22-1.26.73,0,1.45.28,2.14.36.24.03.48.05.71.08v-66.73c-.29-.13-.58-.25-.87-.41-.83-.44-1.83-.39-2.85-.33-1.02.06-2.05.11-2.94-.33-.92-.46-1.83-.43-2.77-.29-.31.05-.63.1-.95.16-.16.03-.32.06-.48.08-.32.05-.65.1-.99.12-.17.01-.34.02-.5.01-.68,0-1.38-.13-2.12-.48h0s0,0,0,0c1.43-.66,2.6-1.03,3.75-1.11.38-.03.76-.02,1.14.01,3.19.29,6.39.65,9.57.65v-23.73c-.08,0-.17,0-.25,0-.16.01-.33.02-.49.02-1.14.02-2.29-.17-3.44-.19-1.31-.03-2.62.16-3.92,1.09-.42.3-.97.42-1.59.43,0,0-.01,0-.02,0-.58.01-1.2-.07-1.82-.17-.47-.08-.94-.17-1.38-.25-.57-.11-1.15-.22-1.73-.25-.19,0-.38,0-.57,0-.66.05-1.3.08-1.94.06-1.9-.05-3.69-.49-5.37-1.73-1.23-.9-2.88-.94-4.36-1.46,2.56-.34,5.09-.28,7.62-.98.69-.19,1.49-.37,2.3-.34s1.61.29,2.31.99c.33.32.82.41,1.31.37.16-.01.33-.04.49-.07,4.25-.88,8.54-.99,12.85-.95v-3.74c-2.72-.06-5.43-.05-8.14.25-2.23.25-4.29-.75-6.49-.43-5.78.82-11.63.56-17.45.9-7.35.42-14.74.28-22.11.62-15.05.69-30.1,1.18-45.16,1.69-3.28.13-6.61-.17-9.86,0,0,0,0,0-.01,0-.75.03-1.48.1-2.23.19-4.8.65-9.62.55-14.39.68-8.91.24-17.76,1.25-26.63,1.79-7.71.48-15.45,1.39-23.17,2.14-1.95.19-3.93.56-5.87.61-.65.02-1.29,0-1.92-.07-1.19-.13-2.35-.2-3.5-.18-1.92.03-3.8.31-5.69.9-.44.15-.94.38-1.38.42-.15.01-.29,0-.41-.03-.62-.2-1.23-.29-1.83-.31-1.79-.04-3.5.61-5.23,1.08-.39.1-.87.35-1.23.39-.12.01-.23,0-.32-.04-.91-.48-1.85-.66-2.78-.69-1.56-.05-3.13.3-4.62.35-4.58.15-9.25.21-13.72,1.88-.99.38-2.16,1.17-3.12,1.18-.14,0-.27-.01-.4-.05-.95-.26-1.85-.38-2.74-.38-1.48,0-2.9.33-4.43.87-4.58,1.63-9.59.59-14.29,1.85-.25.07-.5.1-.77.11-.79.02-1.64-.21-2.37-.69.21-1.33.95-1.59,2.23-1.85,3.31-.67,6.81-.82,9.87-2.38,4.47-2.27,9.45-2.35,14.16-3.54,3.56-.9,7.4-.61,11.09-.97,2.78-.28,5.64-.41,8.27-1.24,3.26-1.03,6.56-1.24,9.86-1.23,2.57,0,5.13.15,7.68.12,6.17-.06,12.25-.16,18.28-1.57,1.24-.29,2.52-.69,3.8-.62.77.04,1.55.24,2.32.74.01,0,.03.01.04.02.14.08.29.14.44.17.02,0,.03,0,.05.01.54.1,1.15-.05,1.73-.25,4.18-1.38,8.58-1.46,12.9-1.6,4.5-.15,8.98-.42,13.47-.68,2.95-.16,5.89-.37,8.83-.36,1.77,0,3.54.09,5.32.31,1.42.18,2.86.25,4.3.25,1.44,0,2.89-.06,4.33-.15,1.3-.08,2.59-.16,3.89-.25h0s0,0,.01,0c13.44-.89,26.85-2.17,40.31-2.85,4.18-.21,8.5-.19,12.49-1.28,5.47-1.48,11.06-1.11,16.53-2.1,1.47-.27,2.9-1.12,4.53-.5,1.44.56,2.88.28,4.29-.36,1.37-.61,2.8-1.15,3.97.48.37.5.95.41,1.5.16,2.34-1.1,4.81-1.07,7.32-.94,1.47.08,2.91-.02,4.12-1.21,0,0,0,0,.01-.01-.92-.94-1.84-.98-2.95-.54-1.18.46-2.42.55-3.57-.23-1.98-1.34-4-2.05-6.07-.11-.7-.98-.86-2.34-2.05-2.3-3.18.12-6.15-1.41-9.41-.92-2.58.38-5.23.11-7.86.26-2.43.15-4.96-1.44-7.5-2.28,1.38-1.74,1.47-3.56.29-5.45-.39-.64-.3-1.27.11-1.63.14-.12.31-.21.52-.26,1.44-.31,2.68-1.15,4.24-1.12,4.17.03,8.35-.01,12.51-.18,5.7-.25,11.38-.95,17.09-.52,5.11.39,10.27.14,15.32.66,1.22.12,2.44.18,3.67.21v-1.08c-.2-.02-.4-.04-.6-.08-3.1-.61-6.26-.99-9.34-1.44-3.15-.46-6.36-.89-9.59-.83-1.94.04-3.89.26-5.84.75-.51.12-1.28.3-2.09.26-.81-.04-1.67-.3-2.35-1.05,1.32-1.24,2.85-2,4.52-2.35,5.3-1.12,10.73-.98,16.1-1.18,1.66-.06,3.32-.12,4.98-.11,1.4.01,2.8.09,4.21.26v-1.77c-.97.13-1.96.37-2.93.34ZM186.2,248.16c-.36,0-.73,0-1.09-.03-.66-.03-1.32-.09-1.98-.17-.35-.04-.7-.07-1.05-.09-.42-.03-.83-.04-1.24-.03-.76.02-1.52.12-2.31.35-1.09.32-1.75.67-1.81,1.76-3.95-.18-7.7.45-11.41-.63-.03.39.02.63.13.8.3.47,1.02.34,1.44.78h0c-1.35.27-2.57.62-3.83.74-1.64.16-3.29.29-4.94.42-4.94.39-9.89.73-14.75,1.58-2.63.46-5.27.85-7.97,1.02h0s0,0,0,0c.55-.53,1.18-.81,1.84-.97.44-.11.9-.16,1.36-.2.69-.06,1.39-.1,2.06-.25,1.48-.32,2.95-.63,4.39-1.13.48-.16.95-.35,1.42-.56,1.78-.81,3.68-1.39,5.58-2.1-.05-.25-.13-.44-.24-.58-.09-.12-.19-.19-.31-.25-.17-.09-.36-.14-.56-.16-.17-.02-.35-.02-.53-.03-.18,0-.36-.01-.53-.04-.08-.01-.17-.03-.24-.06-.23-.07-.44-.21-.58-.46-.09-.17-.16-.39-.19-.67,3.52-.58,7.04-.92,10.57-1.11.88-.05,1.76-.08,2.64-.11,2.63-.08,5.27-.07,7.9-.02.04,0,.07,0,.11,0,2.58.06,5.17.16,7.75.29,4.45.22,8.91.51,13.36.73-1.64.85-3.33,1.13-5.03,1.14ZM139.68,227.16c2.07-1.26,4.02-.92,6.09-1.81-.74,1.06-1.57,1.44-2.45,1.57-.38.06-.77.07-1.17.07-.13,0-.27,0-.4,0-.13,0-.27,0-.41,0-.54,0-1.1.03-1.66.16ZM258.72,241.25c-1.46-.11-2.88-.18-4.27-.06-1.39.12-2.75.41-4.09,1.01-.54.25-1.01.14-1.56.08-2.07-.26-4.1-.62-6.12.55-.23.14-.48.21-.74.23-.13.01-.26,0-.4,0-.54-.04-1.11-.21-1.66-.33-.14-.03-.28-.06-.41-.08-.53-.08-1.07-.16-1.6-.24-2.15-.3-4.32-.51-6.45-.24-1.6.2-3.17.68-4.68,1.6-.77.45-1.35.85-2.3.34-.45-.25-1.28-.16-1.79.08-1,.46-2.02.78-3.06,1.02-3.11.7-6.36.58-9.5,1.03-1.98.28-3.41-.59-5.04-2.25-2.02-2.07-5.43-2.76-8.5-1.92-1.35.38-2.37.29-3.48-.29-1.49-.79-3.16-.51-4.78-.66.1-.61.26-1.04.57-1.29.08-.06.16-.11.26-.15.19-.08.43-.11.71-.1.14,0,.3.02.47.05,2.42.43,4.76-.99,7.14-.71,6.37.77,12.78.99,19.17,1.31.31.02.62.04.89.02.28-.01.52-.06.71-.18.37-.24.5-.75.17-1.84-.66-2.15,1.69-3.83,3.96-3.16.37.11.76.13,1.15.19.13-.11.26-.22.4-.34-.05-.3-.26-.69-.14-.89.84-1.41,6.9-1.52,7.78-.1.08.12.16.24.24.34.16.21.33.38.51.51.27.2.57.33.92.41.23.05.49.08.77.09,3.33.06,6.68.06,9.99.1,2.13.02,4.39-.19,6.6-.22,2.37-.02,4.62.49,6.71,1.64,1.92,1.05,4.1.85,6.16,1.08,1.88.21,3.27,1.14,5.06,2.82-3.63.24-6.74.78-9.76.55ZM282.96,232.64c-.15.2-.32.39-.52.52-.3.2-.68.28-1.21.11-2.69-.81-5.43-1.59-6.61-4.94,2.91.54,5.64-1.18,8.26.57-1.31,1.64-3.28-.86-4.49.89.25.31.56.49.89.58.22.06.46.09.7.1.12,0,.24,0,.37,0,.37,0,.75-.04,1.12-.03.12,0,.24,0,.36.02.24.02.47.07.69.15.22.08.42.21.6.39.18.18.34.42.48.73-.23.26-.42.6-.65.9ZM287.68,164.51c-.16.03-.33.06-.49.1-.66.15-1.32.34-1.99.51-.17.04-.34.08-.51.12-.51.11-1.03.19-1.57.22-.35.02-.71,0-1.08-.04-.37-.05-.74-.13-1.13-.25-.58-.19-1.17-.48-1.79-.9,2.05.03,3.84-.52,5.54-.54,1.02-.01,2.01.17,3.01.79h0,0ZM267.13,143.81c.52-.2,1.06-.32,1.56-.5.38-.14.73-.32,1.05-.59.37-.32.72-.47,1.09-.49.19-.01.38.01.57.06.1.02.2.05.31.09.11.03.21.07.33.12,1.17.47,2.38.63,3.55.44.23-.04.47-.09.7-.16.46-.13.92-.33,1.36-.59h0c.51-.29.94-.43,1.3-.45s.66.08.92.26c.13.09.25.21.36.34.23.27.43.61.62.99.1.19.2.39.3.6h0c-2.47.3-4.89.56-7.28.63-.6.02-1.2.02-1.79,0-1.19-.02-2.38-.11-3.56-.28-.59-.09-1.18-.19-1.78-.32.13-.06.26-.11.39-.16ZM174.56,221.01c.06-.02.14-.09.22-.09,5-.15,9.93-1.06,14.93-1.23.71-.02,1.43-.03,2.14-.03.11,0,.24,0,.37,0,.12,0,.24.02.33.08.83.57,1.66.92,2.49,1.12.56.13,1.11.2,1.67.21,3.07.09,6.18-1.33,9.25-1.23h0c.3.01.59.03.89.05,1.19.08,2.38.23,3.58.3.3.02.6.03.9.04.6.01,1.2,0,1.8-.07-.02-.63-.44-.73-.92-.91-.29-.11-.6-.25-.85-.55.86-.18,1.73-.27,2.6-.32.58-.03,1.16-.03,1.74-.03,1.45.01,2.92.1,4.39.08,1.77-.02,3.56-.19,5.37-.81-.87-.66-1.71-1.06-2.5-1.27-.2-.05-.39-.09-.59-.12-.38-.06-.76-.07-1.12-.05-.18.01-.36.03-.53.06-.77.13-1.56.15-2.34.16-1.3.03-2.61.04-3.89.5-.18.06-.36.11-.53.14-.18.03-.36.04-.54.05-.18,0-.36,0-.55-.03-.18-.02-.36-.05-.55-.08-.73-.14-1.46-.39-2.18-.55-.24-.05-.41-.14-.52-.26-.11-.12-.16-.26-.17-.41-.01-.16,0-.33.04-.5.02-.09.04-.18.06-.26.02-.09.05-.18.07-.26.36-.09.73-.16,1.09-.21,2.55-.38,5.13-.03,7.68-.31,2.25-.24,4.5-.59,6.75-.89,3-.41,6-.74,9.04-.68.76.02,1.52.06,2.29.13,1.07.1,2.16.04,3.24.18.56.07,1.12.12,1.68.15.56.03,1.12.03,1.67.01,1.11-.04,2.23-.18,3.36-.43.22-.05.45-.08.67-.11.46-.05.93-.06,1.4-.05.94.02,1.9.12,2.78.12.22,0,.44,0,.64-.01.45-.02.89,0,1.33.04.44.04.87.12,1.3.21.43.09.86.19,1.29.3.64.16,1.27.33,1.91.47s1.26.25,1.89.28c.21.01.42.01.63,0,.21,0,.42-.02.63-.05.42-.05.85-.15,1.27-.31,4.24-1.55,8.61-.82,12.9-1.15.63-.05,1.27-.07,1.91-.07s1.29.03,1.95.09c.33.03.66.07.99.12,1,.14,2.02.36,3.07.67-1.37.91-2.69.06-3.72.97-.02.9,1.29.98,1.31,2.1-.08.08-.15.16-.24.22-.16.13-.34.22-.52.29-.09.03-.18.06-.28.08-.19.04-.38.07-.58.08-.1,0-.2,0-.3,0-.4,0-.82-.02-1.23,0-.11,0-.21.01-.32.03-.28.04-.55.11-.8.22-.12.06-.25.12-.37.21-.08.06-.16.12-.24.18-.16.12-.31.25-.47.39-.55.46-1.12.95-1.78,1.15-.19.06-.39.09-.6.1-.42.01-.88-.09-1.4-.38.06.32.17.54.31.7.35.41.86.48,1.22.81.07.07.14.14.19.23-.18.15-.37.28-.57.38-.3.15-.61.24-.89.23-.19,0-.37-.06-.53-.17-.08-.05-.16-.12-.22-.2-.31-.36-.61-.58-.93-.7-.16-.06-.31-.1-.47-.11-.16-.02-.31-.01-.47,0-.16.02-.32.04-.47.08-.32.07-.63.17-.95.25-.16.04-.31.07-.47.1-6.4.98-12.71,2.54-19.18,3.17-.96.1-1.81.79-2.75.79-.31,0-.63-.08-.97-.28-.58,1.09-.58,1.84-.1,2.3.03.03.07.05.1.07.1.08.22.15.36.22.24.11.52.19.86.23,1.7.22,3.41.35,5.11.38.68,0,1.36.05,2.05.11.34.03.69.06,1.03.09,1.03.1,2.05.21,3.04.25.66.03,1.31.03,1.94,0,.94-.07,1.87.02,2.8.15.47.07.93.15,1.39.23.93.16,1.85.33,2.78.39.46.03.93.04,1.39,0,.7-.04,1.39-.17,2.09-.43.23-.09.47-.18.7-.3.09-.04.19-.08.3-.1s.22-.04.33-.04c.69-.03,1.54.28,2.17.86-.24.28-.47.38-.69.39s-.44-.07-.64-.15c-.14-.05-.27-.1-.41-.12-.25-.04-.53-.05-.79-.03-.26.02-.49.08-.65.2-.11.08-.18.19-.2.33-.05.32-.12.59-.21.82-.09.23-.2.42-.33.57-.38.46-.9.6-1.46.6-.56,0-1.17-.15-1.73-.27-1.13-.24-2.27-.4-3.41-.51-.57-.06-1.14-.1-1.71-.14-1.14-.08-2.29-.13-3.44-.19-1.15-.06-2.29-.12-3.43-.23-.57-.05-1.14-.12-1.71-.2-4.14-.6-8.26-1.52-12.42-1.92-1.39-.13-2.78-.21-4.18-.19-2.04.02-4.07-.24-6.11-.37-.51-.03-1.02-.06-1.53-.07-.51-.01-1.02,0-1.53.02-1.02.05-2.04.18-3.06.46-.33.09-.67.14-1.01.17-1.02.08-2.06-.13-2.83-.62-1.24-.79-2.51-1.13-3.83-1.26-.53-.05-1.06-.07-1.61-.08-.27,0-.55,0-.82,0h0c-3.24.06-6.44-.44-9.66-.81-.64-.07-1.29-.14-1.93-.2-1.29-.12-2.59-.2-3.89-.19-1.26.01-2.2.45-2.97,1.1-.46.39-.85.85-1.21,1.34-.44.59-.86.9-1.34,1.01-.1.02-.2.04-.3.04-.21.01-.42,0-.66-.04-.25-.04-.49-.07-.73-.08s-.49-.03-.73-.03c-.24,0-.48,0-.72.02-.96.05-1.91.21-2.86.39-.24.04-.48.09-.72.14-.71.14-1.42.26-2.14.36-2.14.31-4.28.47-6.42.46-1.43,0-2.85-.09-4.27-.24-1.42-.16-2.84-.39-4.26-.71-.63-.14-1.25.02-1.9.15-.28.05-.56.1-.85.11-.1,0-.19,0-.29,0-.49-.02-1.01-.17-1.58-.56,1.17-.23,2.26-.53,3.29-.89.34-.12.68-.25,1.02-.38,1.34-.53,2.61-1.14,3.9-1.8-.5-.4-1.02-.61-1.53-.7-.13-.02-.25-.04-.38-.04-.38-.02-.75.02-1.11.1-1.41.32-2.83.44-4.24.43-2.35,0-4.69-.35-7.02-.61-2.42-.27-4.39,1.15-6.67,1.36-.33.03-.64.09-.94.12-.1,0-.2.01-.29.01-.39,0-.75-.12-1.11-.5.12-.23.28-.4.45-.52.34-.24.76-.3,1.17-.3.2,0,.41.01.6.02.43.02.86.03,1.29.01,1.71-.05,3.38-.37,5.07-.62.42-.06.85-.12,1.27-.17.85-.1,1.71-.16,2.57-.14,1.68.04,3.35-.09,5-.33.17-.02.34-.05.52-.08,1.48-.24,2.95-.56,4.4-.94,1.28-.33,2.55-.71,3.81-1.11ZM122.88,163.48c.3,0,.6.01.9.01.44,0,.89-.02,1.32-.08.95-.13,1.9-.16,2.86-.16.48,0,.96.01,1.44.02.48.01.96.02,1.44.02.72,0,1.44-.02,2.15-.09,1.19-.12,2.36-.38,3.51-.93.09-.04.18-.07.27-.09.28-.08.56-.13.7-.42.02-.03.03-.07.04-.11.02-.08.03-.18.06-.33.01-.08.03-.16.05-.26-.63-.22-1.27-.35-1.91-.46-.43-.08-.85-.15-1.27-.24-.63-.14-1.25-.33-1.83-.65.05-.16.11-.31.18-.44.14-.26.32-.45.53-.6.11-.07.22-.14.33-.19.35-.16.75-.24,1.14-.31.13-.02.26-.04.39-.07,2.97-.57,5.94-1.14,8.92-1.69,2.98-.55,5.95-1.09,8.93-1.61.46-.08.91-.2,1.35-.33.28-.08.56-.16.84-.24.25-.07.5-.14.76-.2.39-.09.79-.17,1.2-.21.2-.02.41-.03.62-.03.38,0,.75.03,1.1.08.61.1,1.16.29,1.65.64.26.18.5.41.72.69-.39.47-.8.89-1.23,1.27s-.88.72-1.35,1.02c-.23.15-.47.29-.71.43-1.45.8-3.02,1.32-4.61,1.7-.27.06-.53.13-.8.18-.8.18-1.6.33-2.38.48-.26.05-.52.1-.78.15-6.35,1.23-12.64,2.55-18.83,4.4-1.53.45-3.11.57-4.66,1.06-.52.16-1.03.37-1.53.64-.52.28-1.05.44-1.58.48-.26.02-.53.02-.79,0-1.31-.14-2.59-.93-3.74-2.15,1.35-1.39,3-1.39,4.64-1.36ZM122.01,256.73c.85-.18,1.69-.31,2.49-.4s1.58-.11,2.31-.08c-2.71.9-6.34,1.67-10.06,1.99,1.77-.63,3.55-1.15,5.26-1.51ZM106.94,259.92c-2.14.49-3.68,3.7-6.77,1.21,2.75.7,4.37-1.9,6.77-1.21ZM90.59,107.79c-1.09-.01-1.88.32-2.83.57-3.1.83-6.21,2.1-9.85.85,2.41-3.04,14.14-4.96,18.8-3.27-1.92,1.52-4.07,1.87-6.12,1.84ZM206.69,90.35c2.32.53,4.52-.5,6.81-.25-2.22.98-4.45,1.64-6.81.25Z"/>
  <path class="cls-4" d="M4.94,288.93c.22,0,.45,0,.67,0,.69,0,1.41-.09,2.31-.77-1.31-.41-2.58-.61-3.82-.64-1.4-.04-2.77.13-4.11.4v1.61c1.61-.43,3.27-.57,4.94-.6,0,0,0,0,0,0Z"/>
  <path class="cls-1" d="M298.14,229.89c-.63.02-1.23.22-1.47,1.04.09.35.26.59.48.76.13.1.27.17.42.23.15.06.31.11.48.15.18.04.37.08.56.12.39.08.8.12,1.21.14.06,0,.11.02.16.02,1.38.06,2.77-.16,3.87-.62,3.67-1.5,7.51-1.4,11.3-1.69v-2.9c-2.8.21-5.67.2-8.37,1.05-2.83.9-5.67,1.59-8.64,1.71Z"/>
  <path class="cls-1" d="M305.53,232.72c-.06,0-.12.24-.29.57,3.3.83,6.61,1.48,9.92,1.96v-3.47c-.65-.12-1.3-.16-1.94-.15-2.58.05-5.11.99-7.69,1.1Z"/>
  <path class="cls-1" d="M302.3,114.31c-.16.03-.32.06-.49.07-.49.03-.98-.05-1.31-.37-.7-.69-1.5-.95-2.31-.99s-1.61.15-2.3.34c-2.53.7-5.06.65-7.62.98,1.48.52,3.12.56,4.36,1.46,1.68,1.24,3.47,1.68,5.37,1.73.63.02,1.28,0,1.94-.06.19-.02.38-.02.57,0,.58.02,1.16.14,1.73.25.44.08.9.17,1.38.25.62.1,1.24.18,1.82.17,0,0,.01,0,.02,0,.61-.01,1.16-.13,1.59-.43,1.3-.93,2.61-1.11,3.92-1.09,1.15.02,2.3.21,3.44.19.16,0,.33,0,.49-.02h0c.08,0,.17,0,.25,0v-3.43c-4.3-.04-8.59.07-12.85.95Z"/>
  <path class="cls-1" d="M304.44,139.86c-1.14.08-2.32.45-3.75,1.11h0c.74.35,1.44.48,2.12.48.17,0,.34,0,.5-.01.33-.02.66-.07.99-.12.16-.03.32-.05.48-.08.32-.06.64-.12.95-.16.94-.14,1.85-.17,2.77.29.89.44,1.92.38,2.94.33,1.02-.06,2.02-.11,2.85.33.29.15.58.27.87.41v-1.92c-3.18,0-6.38-.36-9.57-.65-.38-.04-.76-.04-1.14-.01Z"/>
  <path class="cls-1" d="M314.36,217.68c-1.15.04-2.29.3-3.43.55-1.37.3-2.74.59-4.14.49,1.09,1.55,2.62,1.02,3.96.96,1.46-.05,2.94-.23,4.4-.25v-1.74s-.06,0-.09,0c-.23-.01-.46-.01-.69,0Z"/>
  <path class="cls-1" d="M311.77,252.69c-1.85.07-3.7.15-5.57.22-.93.03-1.87.06-2.81.08.12.2.27.38.44.56.16.17.34.34.51.5.44.4.87.77,1.08,1.19s.21.89-.22,1.49c-.17.24-.41.5-.74.79,1.69-.25,2.67.93,4,.83.52-.04,1.03-.09,1.54-.16,1.02-.14,2.03-.33,3.03-.55.7-.16,1.41-.33,2.11-.51v-4.53c-.2,0-.4,0-.6.01-.92.02-1.85.06-2.77.09Z"/>
  <path class="cls-1" d="M312.29,208.72c-.73,0-1.48.26-2.22,1.26,1.2.19,2.35.44,3.42.57.54.07,1.06.1,1.56.09.03,0,.07,0,.1,0v-1.48c-.24-.02-.47-.05-.71-.08-.69-.09-1.41-.36-2.14-.36Z"/>
  <path class="cls-1" d="M229.77,270.68c.53.71,1.2.61,1.88.62,7.53.1,15.07.42,22.58.28,1.09-.02,2.17-.05,3.26-.09.36-.01.72-.01,1.07,0,2.46.05,4.71.54,7.07.91,3.74.59,7.55.97,11.32,1.05,2.43.04,4.69-1.34,7.18-1.5h0l-.09-3.16c-1.2.03-2.24-.32-3.28-1.15,0,0,0,0,.01,0,.23.02.46.03.69.02,3.41-.08,5.69-3.07,8.99-3.42.22-.02.45-.03.68-.03.68.01,1.38.12,2.06.15.91.03,1.8-.1,2.62-.82.67-.58,1.99-.81,1.61-1.97-.19-.58-.58-.78-1.04-.8-.46-.03-.97.11-1.41.2-2.4.45-4.79.64-7.18.6-2.39-.03-4.78-.29-7.17-.71-.33-.06-.65-.1-.95-.1-.51.01-.98.17-1.41.61-.26.27-.63.45-.98.62-.34.15-.92.2-1.65.18-3.2-.08-9.26-1.55-10.32-2.78-.94-1.1-2.06-1.37-3.21-1.37-.9,0-1.81.16-2.66.22-4.89.32-9.8.34-14.66,1.05-.54.08-1.11.14-1.68.12-.96-.04-1.91-.32-2.67-1.17-.15-.18-.34-.23-.53-.22-.19.01-.38.1-.52.21-.88.73-1.77.98-2.66.97-1.15,0-2.31-.43-3.46-.81-.27-.09-.52-.15-.74-.17-.68-.05-1.19.26-1.64,1.11,3.06,1.54,6.43,1.99,9.64,2.95,3.17.95,6.53.13,9.73.9-.25,1.39-1.56.66-2.09,2.13-.08.22,1.38.15,1.03,1.18-.48.32-.95.43-1.43.42-.8-.03-1.6-.41-2.39-.75-.94-.42-1.9-.92-2.71-.91-.82.01-1.49.55-1.87,2.23-.09.42-.55.7-1,.7-.27,0-.54-.11-.73-.35-1.49-1.88-3.38-2.34-5.31-2.37-1.16-.02-2.34.12-3.46.19-.99.06-1.99.13-2.97.18h0s.15,2.79.15,2.79c.78,0,1.24.63,2.27,2.05Z"/>
  <path class="cls-4" d="M284.13,271.95c-2.49.16-4.75,1.55-7.18,1.5h0c-3.77-.08-7.58-.45-11.32-1.05-2.37-.38-4.61-.86-7.07-.91-.35,0-.71,0-1.07,0-1.09.04-2.17.07-3.26.09-7.52.14-15.05-.18-22.58-.28-.68-.01-1.35.1-1.88-.62-1.03-1.43-1.49-2.05-2.27-2.05h0c-.63,0-1.46.41-2.94,1.14.04.09.1.16.17.22.03.03.07.05.1.07.04.03.08.06.12.08.33.18.74.26,1.01.57.13.15.23.36.26.67-3.41.52-6.81,1.12-10.24,1.52-5,.57-10.13-.4-15.02,1.37-.16.06-.34.04-.53.02-.21-.03-.42-.08-.62-.07h0c-4.87.16-9.73.36-14.6.76-3.54.29-7.16,1.21-10.74-.08-1.14-.41-2.24-.24-3.31,1.09,1.39-.05,2.71.07,4,.22,2.01.24,3.95.58,5.94.58,3.26,0,6.44-.86,9.72-.81.47,0,.94.03,1.41.08.05,0,.1,0,.15.01,1.1.12,2.22.19,3.34.18,1.17-.01,2.33-.11,3.46-.33,5.09-.99,10.29-.86,15.42-1.31,5.54-.48,11.11-.79,16.64-1.41,2.79-.31,5.44.03,8.07.54,1.74.34,3.48.75,5.24,1.11-.07,2.41,0,3.57.64,4.06.51.39,1.38.36,2.85.19,12.47-1.48,25.03-2.25,37.31-5.16.76-.18,1.7.03,1.56-1.15h0c-.09-.68-.45-.82-.91-.85-.27-.02-.57,0-.87-.02-.35-.02-.68-.02-1.01,0h0Z"/>
  <path class="cls-1" d="M284.66,163.72c-1.7.02-3.49.58-5.54.54.62.42,1.21.71,1.79.9.38.13.76.21,1.13.25.37.04.73.05,1.08.04.53-.02,1.05-.11,1.57-.22.17-.04.34-.08.51-.12.67-.17,1.33-.36,1.99-.51.16-.04.33-.07.49-.1h0c-1-.62-1.99-.8-3.01-.79Z"/>
  <path class="cls-1" d="M282.53,230.61c-.22-.08-.45-.13-.69-.15-.12-.01-.24-.02-.36-.02-.37,0-.75.03-1.12.03-.12,0-.25,0-.37,0-.24,0-.48-.04-.7-.1-.33-.1-.64-.27-.89-.58,1.21-1.75,3.18.76,4.49-.89-2.62-1.75-5.35-.03-8.26-.57,1.18,3.35,3.91,4.13,6.61,4.94.53.16.91.08,1.21-.11.2-.13.37-.32.52-.52.23-.3.42-.64.65-.9h0c-.13-.31-.29-.55-.48-.73-.18-.18-.38-.31-.6-.39Z"/>
  <path class="cls-1" d="M165.84,223.14c-1.65.24-3.32.37-5,.33-.87-.02-1.72.04-2.57.14-.43.05-.85.11-1.27.17-1.69.25-3.37.56-5.07.62-.43.01-.86.01-1.29-.01-.19-.01-.4-.02-.6-.02-.41,0-.83.06-1.17.3-.17.12-.32.29-.45.52.36.37.73.49,1.11.5.1,0,.19,0,.29-.01.3-.02.61-.09.94-.12,2.28-.22,4.25-1.63,6.67-1.36,2.33.26,4.67.6,7.02.61,1.41,0,2.82-.11,4.24-.43.36-.08.73-.12,1.11-.1.13,0,.25.02.38.04.51.09,1.03.3,1.53.7-1.29.65-2.56,1.27-3.9,1.8-.33.13-.67.26-1.02.38-1.03.36-2.12.67-3.29.89.56.39,1.09.54,1.58.56.1,0,.2,0,.29,0,.29-.01.57-.06.85-.11.65-.13,1.26-.29,1.9-.15,1.42.32,2.84.55,4.26.71,1.42.16,2.85.24,4.27.24,2.14,0,4.28-.15,6.42-.46.71-.1,1.43-.23,2.14-.36.24-.05.48-.09.72-.14.96-.18,1.9-.34,2.86-.39.24-.01.48-.02.72-.02.24,0,.48.01.73.03s.49.05.73.08c.24.04.46.05.66.04.1,0,.2-.02.3-.04.48-.11.9-.42,1.34-1.01.36-.49.75-.95,1.21-1.34.76-.65,1.71-1.09,2.97-1.1,1.3,0,2.6.07,3.89.19.65.06,1.29.13,1.93.2,3.22.37,6.42.87,9.66.81h0c.28,0,.55,0,.82,0,.54,0,1.08.02,1.61.08,1.32.13,2.59.47,3.83,1.26.77.49,1.8.7,2.83.62.34-.03.68-.08,1.01-.17,1.02-.27,2.04-.4,3.06-.46.51-.03,1.02-.03,1.53-.02.51.01,1.02.04,1.53.07,2.04.13,4.07.39,6.11.37,1.4-.02,2.79.06,4.18.19,4.16.4,8.27,1.32,12.42,1.92.57.08,1.14.15,1.71.2,1.14.11,2.28.18,3.43.23,1.14.06,2.29.11,3.44.19.57.04,1.14.08,1.71.14,1.14.11,2.28.27,3.41.51.56.12,1.16.26,1.73.27.56,0,1.08-.14,1.46-.6.13-.15.24-.34.33-.57.09-.23.16-.5.21-.82.02-.14.09-.25.2-.33.16-.12.39-.18.65-.2.26-.02.54,0,.79.03.13.02.27.07.41.12.21.08.42.16.64.15.22,0,.45-.11.69-.39-.63-.58-1.48-.89-2.17-.86-.12,0-.23.02-.33.04s-.2.06-.3.1c-.23.11-.47.21-.7.3-.7.26-1.39.38-2.09.43-.46.03-.93.02-1.39,0-.93-.06-1.85-.23-2.78-.39-.46-.08-.93-.16-1.39-.23-.93-.14-1.86-.22-2.8-.15-.63.04-1.28.04-1.94,0-.99-.05-2.01-.15-3.04-.25-.34-.03-.68-.06-1.03-.09-.69-.06-1.37-.1-2.05-.11-1.71-.03-3.42-.16-5.11-.38-.34-.04-.62-.12-.86-.23-.14-.06-.26-.13-.36-.22-.03-.02-.07-.04-.1-.07-.47-.45-.48-1.2.1-2.3h0c.34.2.66.28.97.28.93,0,1.78-.69,2.75-.79,6.47-.63,12.78-2.18,19.18-3.17.16-.02.31-.06.47-.1.32-.08.63-.18.95-.25.16-.04.32-.06.47-.08.16-.02.32-.02.47,0s.31.05.47.11c.31.12.62.34.93.7.07.08.14.15.22.2.16.11.34.16.53.17.29.01.59-.08.89-.23.2-.1.39-.23.57-.38-.06-.09-.12-.17-.19-.23-.36-.32-.88-.39-1.22-.81-.14-.17-.25-.39-.31-.7.52.28.98.39,1.4.38.21,0,.41-.04.6-.1.67-.2,1.23-.69,1.78-1.15.16-.13.31-.26.47-.39.08-.06.16-.12.24-.18.12-.08.24-.15.37-.21.26-.12.53-.19.8-.22.11-.01.21-.02.32-.03.41-.02.83,0,1.23,0,.1,0,.2,0,.3,0,.2-.01.4-.03.58-.08.09-.02.19-.05.28-.08.18-.07.35-.16.52-.29.08-.06.16-.14.24-.22-.02-1.11-1.33-1.2-1.31-2.1,1.03-.91,2.35-.06,3.72-.97-1.05-.31-2.07-.53-3.07-.67-.33-.05-.66-.09-.99-.12-.66-.06-1.31-.09-1.95-.09s-1.28.02-1.91.07c-4.29.32-8.66-.4-12.9,1.15-.43.16-.85.25-1.27.31-.21.03-.42.04-.63.05-.21,0-.42,0-.63,0-.63-.03-1.26-.14-1.89-.28s-1.27-.31-1.91-.47c-.43-.11-.85-.21-1.29-.3-.43-.09-.86-.16-1.3-.21-.44-.04-.88-.06-1.33-.04-.21.01-.42.02-.64.01-.88,0-1.83-.1-2.78-.12-.47,0-.94,0-1.4.05-.23.03-.45.06-.67.11-1.13.25-2.25.39-3.36.43-.56.02-1.11.01-1.67-.01-.56-.03-1.12-.08-1.68-.15-1.08-.14-2.17-.09-3.24-.18-.76-.07-1.53-.11-2.29-.13-3.04-.06-6.04.28-9.04.68-2.25.3-4.49.65-6.75.89-2.54.27-5.12-.07-7.68.31-.36.05-.73.12-1.09.21-.02.09-.04.17-.07.26-.02.09-.04.18-.06.26-.04.17-.06.34-.04.5.01.16.07.3.17.41.11.12.27.21.52.26.71.16,1.45.41,2.18.55.18.04.37.06.55.08.18.02.36.03.55.03.18,0,.36-.02.54-.05.18-.03.36-.08.53-.14,1.28-.46,2.58-.47,3.89-.5.78-.02,1.56-.04,2.34-.16.17-.03.35-.05.53-.06.36-.02.73,0,1.12.05.19.03.39.07.59.12.79.21,1.63.61,2.5,1.27-1.81.62-3.6.79-5.37.81-1.48.02-2.94-.07-4.39-.08-.58,0-1.16,0-1.74.03-.87.04-1.73.13-2.6.32.26.3.56.44.85.55.48.18.9.28.92.91-.6.06-1.2.08-1.8.07-.3,0-.6-.02-.9-.04-1.2-.07-2.39-.22-3.58-.3-.3-.02-.6-.04-.89-.05h0c-3.08-.1-6.18,1.31-9.25,1.23-.56-.02-1.12-.08-1.67-.21-.83-.2-1.67-.55-2.49-1.12-.09-.05-.2-.07-.33-.08s-.25,0-.37,0c-.72,0-1.43,0-2.14.03-5,.17-9.93,1.08-14.93,1.23-.08,0-.15.06-.22.09-1.26.4-2.53.77-3.81,1.11-1.46.38-2.92.71-4.4.94-.17.03-.34.05-.52.08ZM238.41,223.32c.42-.12.82-.18,1.21-.18.79,0,1.56.22,2.39.57-.19.17-.38.32-.57.44-.57.37-1.13.52-1.73.51-.79-.01-1.64-.31-2.61-.77.46-.26.89-.45,1.3-.57Z"/>
  <path class="cls-1" d="M272.08,144.58c.6.01,1.19,0,1.79,0,2.39-.06,4.81-.33,7.28-.63-.1-.21-.2-.41-.3-.6-.2-.38-.4-.73-.62-.99-.11-.13-.23-.25-.36-.34-.26-.19-.56-.29-.92-.26-.36.02-.79.16-1.3.45h0c-.44.26-.89.45-1.36.59-.23.07-.46.12-.7.16-1.17.19-2.39.03-3.55-.44-.11-.04-.22-.08-.33-.12-.11-.03-.21-.06-.31-.09-.2-.05-.39-.07-.57-.06-.37.02-.72.17-1.09.49-.32.27-.67.45-1.05.59-.5.19-1.04.31-1.56.5-.13.05-.26.1-.39.16.59.13,1.18.24,1.78.32,1.18.17,2.37.26,3.56.28Z"/>
  <path class="cls-1" d="M257.26,236.8c-2.1-1.16-4.35-1.67-6.71-1.64-2.21.02-4.47.24-6.6.22-3.31-.03-6.66-.03-9.99-.1-.28,0-.54-.03-.77-.09-.35-.08-.65-.21-.92-.41-.18-.14-.35-.31-.51-.51-.08-.1-.16-.22-.24-.34-.89-1.43-6.94-1.31-7.78.1-.12.19.09.58.14.89.06.11.12.22.12.32s-.04.19-.19.26c-.06.02-.23-.16-.34-.25-.39-.06-.78-.09-1.15-.19-2.27-.67-4.62,1.01-3.96,3.16.33,1.09.2,1.61-.17,1.84-.19.12-.43.16-.71.18-.28.01-.58,0-.89-.02-6.39-.31-12.8-.54-19.17-1.31-2.38-.28-4.71,1.15-7.14.71-.17-.03-.33-.05-.47-.05-.29-.01-.52.02-.71.1-.1.04-.18.09-.26.15-.31.25-.47.68-.57,1.29,1.62.15,3.29-.13,4.78.66,1.11.58,2.13.67,3.48.29,3.07-.83,6.48-.14,8.5,1.92,1.63,1.65,3.06,2.53,5.04,2.25,3.15-.45,6.39-.33,9.5-1.03,1.04-.23,2.06-.55,3.06-1.02.52-.24,1.34-.32,1.79-.08.95.52,1.54.12,2.3-.34,1.51-.92,3.08-1.39,4.68-1.6,2.13-.27,4.3-.06,6.45.24.54.07,1.07.16,1.6.24.14.02.27.05.41.08.56.12,1.12.3,1.66.33.13,0,.27.01.4,0,.26-.02.51-.09.74-.23,2.02-1.17,4.05-.81,6.12-.55.55.06,1.02.17,1.56-.08,1.34-.6,2.7-.89,4.09-1.01,1.39-.12,2.81-.05,4.27.06,3.03.23,6.13-.31,9.76-.55-1.79-1.69-3.18-2.62-5.06-2.82-2.07-.23-4.24-.03-6.16-1.08Z"/>
  <path class="cls-4" d="M239.72,224.66c.59.01,1.16-.14,1.73-.51.19-.12.38-.27.57-.44-.83-.36-1.6-.58-2.39-.57-.4,0-.8.06-1.21.18-.42.12-.85.31-1.3.57.97.46,1.82.76,2.61.77Z"/>
  <path class="cls-3" d="M224,235.22c0-.1-.06-.21-.12-.32-.14.12-.27.23-.4.34.11.09.27.27.34.25.15-.07.19-.16.19-.26Z"/>
  <path class="cls-4" d="M218.18,268.45c-1.2-.51-1.97-.98-2.93-.35.72,1.57,1.63,1.12,2.93.35Z"/>
  <path class="cls-1" d="M206.69,90.35c2.36,1.39,4.6.74,6.81-.25-2.29-.25-4.49.78-6.81.25Z"/>
  <path class="cls-4" d="M199.07,268.84h10.89c-2.38-1.86-8.67-2.12-10.89,0Z"/>
  <path class="cls-1" d="M162.67,115.3c8.87-.54,17.72-1.56,26.63-1.79,4.77-.13,9.59-.03,14.39-.68.75-.1,1.48-.16,2.24-.19,0,0,0,0,0,0l-.19-3.04h0s0-.01,0-.01c-1.3.09-2.59.17-3.89.25-1.44.09-2.88.15-4.33.15-1.45,0-2.89-.07-4.31-.25-1.78-.22-3.54-.3-5.31-.31-2.95,0-5.88.2-8.83.36-4.49.26-8.97.53-13.47.68-4.31.14-8.71.22-12.9,1.6-.58.19-1.19.35-1.73.25-.02,0-.03,0-.05-.01-.15-.03-.3-.09-.44-.17-.02,0-.03,0-.05-.02-.77-.49-1.54-.7-2.31-.74-1.28-.07-2.56.33-3.8.62-6.03,1.41-12.11,1.5-18.28,1.57,0,0,0,0,0,0-2.54.02-5.11-.11-7.67-.12-3.3-.01-6.6.19-9.86,1.23-2.63.83-5.49.96-8.27,1.24-3.7.37-7.54.08-11.09.97-4.71,1.19-9.7,1.27-14.16,3.54-3.06,1.56-6.56,1.71-9.87,2.38-1.28.26-2.02.52-2.23,1.85.72.48,1.57.71,2.37.69.26,0,.52-.04.76-.11,4.7-1.25,9.71-.22,14.29-1.85,1.53-.54,2.96-.87,4.44-.87.89,0,1.79.12,2.74.38.13.03.26.05.4.05.96-.01,2.13-.8,3.11-1.18,4.47-1.68,9.14-1.73,13.72-1.88,1.5-.05,3.07-.4,4.63-.35.94.03,1.87.21,2.78.69.09.05.2.06.32.04.36-.04.84-.29,1.22-.39,1.74-.46,3.44-1.12,5.24-1.08.6.01,1.21.11,1.83.31.13.04.27.05.41.03.44-.04.93-.28,1.37-.42,1.89-.6,3.77-.87,5.7-.9,1.15-.02,2.32.04,3.5.18.64.07,1.28.09,1.92.07,1.94-.05,3.91-.42,5.86-.61,7.72-.75,15.46-1.67,23.17-2.14Z"/>
  <path class="cls-4" d="M207.66,283.3c-.37-.27-.73-.5-1.08-.67s-.67-.26-.98-.25c-.15,0-.3.04-.43.1-3.01,1.33-6.18.49-9.17,1.35-.86.25-2.17.3-2.31-1.19-.06-.68-.39-.74-.9-.7-.27.02-.57.02-.8.12-.11.05-.21.12-.27.23s-.1.25-.09.44c.06,1.21-.88,1.06-1.57,1.28-3.42,1.08-6.75.46-10.04-.52-2.41-.72-4.75-1.35-7.27-.3-.96.4-2.14.32-3.23.38-1,.05-2.01.06-3.02.07-.67,0-1.34.02-2.01.04-1,.04-2,.12-2.98.29-7.36,1.28-14.87,1.37-22.19,3.01-4.72,1.05-9.6,1.37-14.39,2.1-2.01.29-3.99.76-6.52,1.25,1.63.56,2.68.51,3.77.52,1.98.02,3.81-.72,5.68-1.09,4.12-.81,8.33-.67,12.42-1.68,1.68-.41,3.39-.72,5.11-.98,1.72-.25,3.45-.44,5.17-.61,3.55-.34,7.11-.36,10.64-1.07,2.9-.58,5.85-.67,8.82-.52,2.8.15,5.5.9,8.24,1.15,7.2.64,14.4-.44,21.62-.44,3.01,0,6.02-.28,9.45-1.01-.38-.28-.76-.59-1.13-.88-.19-.15-.38-.29-.56-.42Z"/>
  <path class="cls-4" d="M202.35,281.16c.13-.05.26-.09.38-.13.26-.08.51-.15.77-.19-.26.02-.52.03-.78.04-.53.01-1.06,0-1.59,0-1.34,0-2.73.03-4.15.56.16.1.31.19.47.27,1.84.91,3.37.02,4.91-.54Z"/>
  <path class="cls-1" d="M177.86,246.28c-2.58-.13-5.17-.24-7.75-.29-.04,0-.07,0-.11,0-2.63-.06-5.27-.06-7.9.02-.88.03-1.76.06-2.64.11-3.53.18-7.05.53-10.57,1.11.03.29.1.51.19.67.14.25.34.39.58.46.08.02.16.04.24.06.17.03.35.04.53.04.18,0,.36,0,.53.03.2.02.39.07.56.16.12.06.22.14.31.25.11.14.19.33.24.58-1.9.7-3.79,1.29-5.58,2.1-.47.21-.94.4-1.42.56-1.43.49-2.91.81-4.39,1.13-.67.15-1.37.18-2.06.25-.46.04-.92.1-1.36.2-.66.16-1.29.44-1.84.97h0c2.7-.16,5.34-.55,7.97-1.02,4.86-.85,9.81-1.19,14.75-1.58,1.65-.13,3.3-.26,4.94-.42,1.25-.12,2.48-.46,3.83-.74h0c-.42-.44-1.14-.31-1.44-.78-.11-.17-.17-.42-.13-.8,3.71,1.08,7.46.44,11.41.63.05-1.09.71-1.44,1.81-1.76.78-.23,1.55-.33,2.31-.35.41-.01.83,0,1.24.03.35.02.7.05,1.05.09.66.07,1.32.13,1.98.17.36.02.73.03,1.09.03,1.7-.01,3.38-.29,5.03-1.14-4.46-.22-8.91-.51-13.36-.73ZM162.1,250.14c-.64.03-1.29-.07-1.94-.15-.43-.06-.87-.11-1.3-.12,1.61-1.33,3.39-.29,5.12-.29-.2.13-.41.23-.61.32-.41.16-.84.23-1.26.25Z"/>
  <path class="cls-4" d="M163.98,249.58c-1.73,0-3.51-1.04-5.12.29.43.01.87.07,1.3.12.65.09,1.3.18,1.94.15.43-.02.85-.09,1.26-.25.21-.08.41-.18.61-.32Z"/>
  <path class="cls-1" d="M118.24,164.84c1.15,1.22,2.43,2.01,3.74,2.15.26.03.53.03.79,0,.53-.05,1.06-.2,1.58-.48.51-.27,1.02-.47,1.53-.64,1.55-.49,3.13-.61,4.66-1.06,6.2-1.85,12.49-3.17,18.83-4.4.26-.05.52-.1.78-.15.79-.15,1.59-.3,2.38-.48.27-.06.53-.12.8-.18,1.59-.39,3.17-.9,4.61-1.7.24-.13.48-.28.71-.43.47-.3.92-.64,1.35-1.02s.84-.8,1.23-1.27c-.22-.28-.46-.51-.72-.69-.49-.35-1.04-.54-1.65-.64-.35-.06-.71-.08-1.1-.08-.21,0-.42,0-.62.03-.41.04-.81.12-1.2.21-.25.06-.51.13-.76.2-.28.08-.56.16-.84.24-.45.13-.89.24-1.35.33-2.98.52-5.96,1.06-8.93,1.61-2.98.55-5.95,1.12-8.92,1.69-.13.02-.26.04-.39.07-.39.07-.79.15-1.14.31-.12.05-.23.12-.33.19-.21.15-.39.34-.53.6-.07.13-.13.28-.18.44.58.32,1.2.51,1.83.65.42.09.85.16,1.27.24.64.11,1.28.24,1.91.46-.02.1-.04.19-.05.26-.02.15-.04.25-.06.33-.01.04-.02.07-.04.11-.15.29-.43.35-.7.42-.09.03-.18.05-.27.09-1.15.54-2.32.81-3.51.93-.71.07-1.43.09-2.15.09-.48,0-.96,0-1.44-.02-.48-.01-.96-.02-1.44-.02-.96,0-1.92.02-2.86.16-.43.06-.87.08-1.32.08-.3,0-.6,0-.9-.01-1.64-.03-3.29-.03-4.64,1.36Z"/>
  <path class="cls-1" d="M141.75,227c.13,0,.27,0,.4,0,.4,0,.79-.01,1.17-.07.88-.13,1.71-.51,2.45-1.57-2.07.89-4.02.54-6.09,1.81.56-.13,1.12-.16,1.66-.16.14,0,.27,0,.41,0Z"/>
  <path class="cls-1" d="M124.5,256.33c-.8.08-1.64.22-2.49.4-1.71.36-3.49.88-5.26,1.51,3.72-.32,7.34-1.09,10.06-1.99-.73-.03-1.5,0-2.31.08Z"/>
  <path class="cls-4" d="M117.35,290.42c-.49,0-.98-.05-1.45-.08-.63-.05-1.24-.05-1.81.17h0c-.51.21-1.12.23-1.74.42-.15.05-.31.11-.47.18-.47.22-.93.59-1.37,1.25h0c2.83-.82,5.37-.22,7.32-1.97-.16.02-.33.03-.49.03Z"/>
  <path class="cls-1" d="M106.94,259.92c-2.4-.69-4.02,1.91-6.77,1.21,3.09,2.49,4.63-.72,6.77-1.21Z"/>
  <path class="cls-1" d="M77.9,109.22c3.64,1.24,6.75-.02,9.85-.85.95-.25,1.74-.58,2.83-.57,2.05.03,4.2-.31,6.12-1.84-4.66-1.7-16.39.23-18.8,3.27Z"/>
  <path class="cls-4" d="M88.68,267.06c-.7,0-1.42.39-2.12.57.37.14.72.25,1.06.34.67.17,1.29.23,1.84.18.28-.03.54-.08.78-.16-.49-.71-1.02-.94-1.56-.93Z"/>
  <path class="cls-4" d="M80.93,271.2c-.69.05-1.38.26-2.05.31.48.29.97.59,1.47.78.84.31,1.71.32,2.69-.51-.71-.54-1.42-.64-2.11-.59Z"/>
  <path class="cls-4" d="M68.44,271.62c2.8-1.28,5.62,1.02,8.52-.19-3.23-1.78-6.85-1.76-8.52.19Z"/>
  <path class="cls-1" d="M.23,124.82c.22.02.44.01.65-.01.43-.04.83-.16,1.23-.3s.79-.31,1.19-.47c.2-.08.4-.16.6-.23.4-.14.82-.25,1.25-.29,4.93-.5,9.64-2.11,14.64-2.61,3.34-.34,6.65-.96,9.96-1.66,3.31-.7,6.61-1.46,9.93-2.09,1.43-.26,2.86-.52,4.28-.79,4.28-.82,8.52-1.78,12.57-3.64-.77-.21-1.5-.51-2.24-.77-.98-.35-1.97-.63-3.09-.54-.28.02-.57.07-.86.14-5.16,1.29-10.34,2.53-15.52,3.75-5.18,1.22-10.37,2.42-15.56,3.61-1.6.37-3.22.66-4.84.92-3.24.53-6.5.94-9.72,1.62-1.59.34-3.16.74-4.72,1.25v2.08c.08,0,.16,0,.23,0H.23Z"/>
  <path class="cls-4" d="M47.46,274.12c-.52.25-1.04.52-1.58.79,1.66.89,3.1,1.1,4.37.64.76-.28,1.47-.79,2.13-1.55h0c-.45-.27-.89-.44-1.31-.53-1.27-.29-2.43.1-3.61.65Z"/>
  <path class="cls-4" d="M43.65,274.76c-2.76.12-5.52.29-8.28.54-.71.06-.95.77-.84,1.44.11.64.57.93,1.2.82,2.89-.45,5.76-.94,8.66-1.43.06-.92-.3-1.38-.74-1.37Z"/>
  <path class="cls-1" d="M5.54,131.34c.52-.25,1.04-.5,1.56-.67.52-.17,1.03-.27,1.51-.21,1.04.13,2.06.14,3.06.08,2.35-.15,4.65-.72,6.97-1.21.33-.07.66-.14,1-.2.66-.13,1.33-.25,2-.34,1.01-.14,2.03-.22,3.06-.21.66,0,1.32-.07,1.98-.21.44-.09.88-.22,1.32-.36.44-.14.88-.31,1.32-.49.66-.27,1.32-.57,1.98-.87.22-.1.44-.21.66-.31.44-.21.88-.41,1.32-.61.22-.1.44-.2.66-.29.44-.19.88-.37,1.32-.54-.03-.26-.06-.51-.1-.76-1.73.62-3.02-1.09-4.39-.89-3.53.53-7.13.7-10.66,1.27-1.59.26-3.17.61-4.72,1.09-.52.16-1.04.32-1.55.52-1.47.56-3.01,1.18-4.59,1.34-.31.03-.62.05-.93.04-.27,0-.55-.03-.83-.07-1.36-.2-2.7-.32-4.03-.31-.44,0-.88.02-1.32.05-.73.06-1.45.17-2.17.32v5.85c1.53-.38,3.04-.91,4.52-1.55.33-.14.67-.3,1.02-.47Z"/>
</svg>